<?xml version="1.0" encoding="UTF-8" standalone="no"?>
<!DOCTYPE svg PUBLIC "-//W3C//DTD SVG 1.1//EN"
 "http://www.w3.org/Graphics/SVG/1.1/DTD/svg11.dtd">
<!-- Generated by graphviz version 2.38.0 (20140413.2041)
 -->
<!-- Title: %3 Pages: 1 -->
<svg width="1101pt" height="632pt"
 viewBox="0.00 0.00 1101.00 632.00" xmlns="http://www.w3.org/2000/svg" xmlns:xlink="http://www.w3.org/1999/xlink">
<g id="graph0" class="graph" transform="scale(1 1) rotate(0) translate(4 628)">
<title>%3</title>
<polygon fill="white" stroke="none" points="-4,4 -4,-628 1097,-628 1097,4 -4,4"/>
<!-- n0x600086330 -->
<g id="node1" class="node"><title>n0x600086330</title>
<polygon fill="none" stroke="black" points="197.5,-600.5 197.5,-623.5 287.5,-623.5 287.5,-600.5 197.5,-600.5"/>
<text text-anchor="middle" x="232.5" y="-608.3" font-family="Times New Roman,serif" font-size="14.00">programa</text>
<polyline fill="none" stroke="black" points="267.5,-600.5 267.5,-623.5 "/>
<text text-anchor="middle" x="277.5" y="-608.3" font-family="Times New Roman,serif" font-size="14.00"> </text>
</g>
<!-- n0x6000284d0 -->
<g id="node2" class="node"><title>n0x6000284d0</title>
<polygon fill="none" stroke="black" points="0,-540.5 0,-563.5 141,-563.5 141,-540.5 0,-540.5"/>
<text text-anchor="middle" x="43" y="-548.3" font-family="Times New Roman,serif" font-size="14.00">identificador</text>
<polyline fill="none" stroke="black" points="86,-540.5 86,-563.5 "/>
<text text-anchor="middle" x="113.5" y="-548.3" font-family="Times New Roman,serif" font-size="14.00">fatorial</text>
</g>
<!-- n0x600086330&#45;&gt;n0x6000284d0 -->
<g id="edge1" class="edge"><title>n0x600086330&#45;&gt;n0x6000284d0</title>
<path fill="none" stroke="black" d="M211.352,-600.497C183.311,-591.041 141.918,-577.083 111.255,-566.743"/>
<polygon fill="black" stroke="black" points="112.3,-563.402 101.706,-563.523 110.064,-570.035 112.3,-563.402"/>
</g>
<!-- n0x600085eb0 -->
<g id="node3" class="node"><title>n0x600085eb0</title>
<polygon fill="none" stroke="black" points="159.5,-540.5 159.5,-563.5 325.5,-563.5 325.5,-540.5 159.5,-540.5"/>
<text text-anchor="middle" x="232.5" y="-548.3" font-family="Times New Roman,serif" font-size="14.00">declaracao de variaveis</text>
<polyline fill="none" stroke="black" points="305.5,-540.5 305.5,-563.5 "/>
<text text-anchor="middle" x="315.5" y="-548.3" font-family="Times New Roman,serif" font-size="14.00"> </text>
</g>
<!-- n0x600086330&#45;&gt;n0x600085eb0 -->
<g id="edge2" class="edge"><title>n0x600086330&#45;&gt;n0x600085eb0</title>
<path fill="none" stroke="black" d="M242.5,-600.362C242.5,-592.922 242.5,-582.743 242.5,-573.728"/>
<polygon fill="black" stroke="black" points="246,-573.571 242.5,-563.571 239,-573.571 246,-573.571"/>
</g>
<!-- n0x600086310 -->
<g id="node9" class="node"><title>n0x600086310</title>
<polygon fill="none" stroke="black" points="344,-540.5 344,-563.5 465,-563.5 465,-540.5 344,-540.5"/>
<text text-anchor="middle" x="394.5" y="-548.3" font-family="Times New Roman,serif" font-size="14.00">lista comandos</text>
<polyline fill="none" stroke="black" points="445,-540.5 445,-563.5 "/>
<text text-anchor="middle" x="455" y="-548.3" font-family="Times New Roman,serif" font-size="14.00"> </text>
</g>
<!-- n0x600086330&#45;&gt;n0x600086310 -->
<g id="edge8" class="edge"><title>n0x600086330&#45;&gt;n0x600086310</title>
<path fill="none" stroke="black" d="M271.837,-600.497C298.019,-591.123 336.56,-577.324 365.363,-567.012"/>
<polygon fill="black" stroke="black" points="366.873,-570.189 375.108,-563.523 364.513,-563.599 366.873,-570.189"/>
</g>
<!-- n0x600085e10 -->
<g id="node4" class="node"><title>n0x600085e10</title>
<polygon fill="none" stroke="black" points="84,-480.5 84,-503.5 173,-503.5 173,-480.5 84,-480.5"/>
<text text-anchor="middle" x="103" y="-488.3" font-family="Times New Roman,serif" font-size="14.00">tipo</text>
<polyline fill="none" stroke="black" points="122,-480.5 122,-503.5 "/>
<text text-anchor="middle" x="147.5" y="-488.3" font-family="Times New Roman,serif" font-size="14.00">inteiro</text>
</g>
<!-- n0x600085eb0&#45;&gt;n0x600085e10 -->
<g id="edge3" class="edge"><title>n0x600085eb0&#45;&gt;n0x600085e10</title>
<path fill="none" stroke="black" d="M221.855,-540.497C204.13,-531.479 178.355,-518.365 158.377,-508.201"/>
<polygon fill="black" stroke="black" points="159.876,-505.036 149.376,-503.621 156.702,-511.275 159.876,-505.036"/>
</g>
<!-- n0x600085e90 -->
<g id="node5" class="node"><title>n0x600085e90</title>
<polygon fill="none" stroke="black" points="191.5,-480.5 191.5,-503.5 301.5,-503.5 301.5,-480.5 191.5,-480.5"/>
<text text-anchor="middle" x="236.5" y="-488.3" font-family="Times New Roman,serif" font-size="14.00">lista variaveis</text>
<polyline fill="none" stroke="black" points="281.5,-480.5 281.5,-503.5 "/>
<text text-anchor="middle" x="291.5" y="-488.3" font-family="Times New Roman,serif" font-size="14.00"> </text>
</g>
<!-- n0x600085eb0&#45;&gt;n0x600085e90 -->
<g id="edge4" class="edge"><title>n0x600085eb0&#45;&gt;n0x600085e90</title>
<path fill="none" stroke="black" d="M243.234,-540.362C243.747,-532.922 244.449,-522.743 245.071,-513.728"/>
<polygon fill="black" stroke="black" points="248.575,-513.788 245.771,-503.571 241.591,-513.306 248.575,-513.788"/>
</g>
<!-- n0x600085e70 -->
<g id="node6" class="node"><title>n0x600085e70</title>
<polygon fill="none" stroke="black" points="65,-420.5 65,-443.5 182,-443.5 182,-420.5 65,-420.5"/>
<text text-anchor="middle" x="108" y="-428.3" font-family="Times New Roman,serif" font-size="14.00">identificador</text>
<polyline fill="none" stroke="black" points="151,-420.5 151,-443.5 "/>
<text text-anchor="middle" x="166.5" y="-428.3" font-family="Times New Roman,serif" font-size="14.00">fat</text>
</g>
<!-- n0x600085e90&#45;&gt;n0x600085e70 -->
<g id="edge5" class="edge"><title>n0x600085e90&#45;&gt;n0x600085e70</title>
<path fill="none" stroke="black" d="M224.226,-480.497C204.928,-471.397 176.787,-458.127 155.152,-447.925"/>
<polygon fill="black" stroke="black" points="156.562,-444.721 146.024,-443.621 153.576,-451.052 156.562,-444.721"/>
</g>
<!-- n0x600085e50 -->
<g id="node7" class="node"><title>n0x600085e50</title>
<polygon fill="none" stroke="black" points="200.5,-420.5 200.5,-443.5 310.5,-443.5 310.5,-420.5 200.5,-420.5"/>
<text text-anchor="middle" x="245.5" y="-428.3" font-family="Times New Roman,serif" font-size="14.00">lista variaveis</text>
<polyline fill="none" stroke="black" points="290.5,-420.5 290.5,-443.5 "/>
<text text-anchor="middle" x="300.5" y="-428.3" font-family="Times New Roman,serif" font-size="14.00"> </text>
</g>
<!-- n0x600085e90&#45;&gt;n0x600085e50 -->
<g id="edge6" class="edge"><title>n0x600085e90&#45;&gt;n0x600085e50</title>
<path fill="none" stroke="black" d="M248.151,-480.362C249.305,-472.922 250.885,-462.743 252.284,-453.728"/>
<polygon fill="black" stroke="black" points="255.785,-453.989 253.86,-443.571 248.868,-452.916 255.785,-453.989"/>
</g>
<!-- n0x600085e30 -->
<g id="node8" class="node"><title>n0x600085e30</title>
<polygon fill="none" stroke="black" points="201,-360.5 201,-383.5 310,-383.5 310,-360.5 201,-360.5"/>
<text text-anchor="middle" x="244" y="-368.3" font-family="Times New Roman,serif" font-size="14.00">identificador</text>
<polyline fill="none" stroke="black" points="287,-360.5 287,-383.5 "/>
<text text-anchor="middle" x="298.5" y="-368.3" font-family="Times New Roman,serif" font-size="14.00">n</text>
</g>
<!-- n0x600085e50&#45;&gt;n0x600085e30 -->
<g id="edge7" class="edge"><title>n0x600085e50&#45;&gt;n0x600085e30</title>
<path fill="none" stroke="black" d="M255.5,-420.362C255.5,-412.922 255.5,-402.743 255.5,-393.728"/>
<polygon fill="black" stroke="black" points="259,-393.571 255.5,-383.571 252,-393.571 259,-393.571"/>
</g>
<!-- n0x600085f10 -->
<g id="node10" class="node"><title>n0x600085f10</title>
<polygon fill="none" stroke="black" points="363,-480.5 363,-503.5 436,-503.5 436,-480.5 363,-480.5"/>
<text text-anchor="middle" x="389.5" y="-488.3" font-family="Times New Roman,serif" font-size="14.00">escrita</text>
<polyline fill="none" stroke="black" points="416,-480.5 416,-503.5 "/>
<text text-anchor="middle" x="426" y="-488.3" font-family="Times New Roman,serif" font-size="14.00"> </text>
</g>
<!-- n0x600086310&#45;&gt;n0x600085f10 -->
<g id="edge9" class="edge"><title>n0x600086310&#45;&gt;n0x600085f10</title>
<path fill="none" stroke="black" d="M403.583,-540.362C402.942,-532.922 402.064,-522.743 401.287,-513.728"/>
<polygon fill="black" stroke="black" points="404.757,-513.233 400.411,-503.571 397.783,-513.834 404.757,-513.233"/>
</g>
<!-- n0x6000862f0 -->
<g id="node12" class="node"><title>n0x6000862f0</title>
<polygon fill="none" stroke="black" points="454,-480.5 454,-503.5 575,-503.5 575,-480.5 454,-480.5"/>
<text text-anchor="middle" x="504.5" y="-488.3" font-family="Times New Roman,serif" font-size="14.00">lista comandos</text>
<polyline fill="none" stroke="black" points="555,-480.5 555,-503.5 "/>
<text text-anchor="middle" x="565" y="-488.3" font-family="Times New Roman,serif" font-size="14.00"> </text>
</g>
<!-- n0x600086310&#45;&gt;n0x6000862f0 -->
<g id="edge11" class="edge"><title>n0x600086310&#45;&gt;n0x6000862f0</title>
<path fill="none" stroke="black" d="M424.42,-540.497C441.446,-531.519 466.169,-518.484 485.409,-508.339"/>
<polygon fill="black" stroke="black" points="487.143,-511.381 494.356,-503.621 483.878,-505.189 487.143,-511.381"/>
</g>
<!-- n0x600085ef0 -->
<g id="node11" class="node"><title>n0x600085ef0</title>
<polygon fill="none" stroke="black" points="346.5,-420.5 346.5,-443.5 452.5,-443.5 452.5,-420.5 346.5,-420.5"/>
<text text-anchor="middle" x="368.5" y="-428.3" font-family="Times New Roman,serif" font-size="14.00">texto</text>
<polyline fill="none" stroke="black" points="390.5,-420.5 390.5,-443.5 "/>
<text text-anchor="middle" x="421.5" y="-428.3" font-family="Times New Roman,serif" font-size="14.00">_const0</text>
</g>
<!-- n0x600085f10&#45;&gt;n0x600085ef0 -->
<g id="edge10" class="edge"><title>n0x600085f10&#45;&gt;n0x600085ef0</title>
<path fill="none" stroke="black" d="M399.5,-480.362C399.5,-472.922 399.5,-462.743 399.5,-453.728"/>
<polygon fill="black" stroke="black" points="403,-453.571 399.5,-443.571 396,-453.571 403,-453.571"/>
</g>
<!-- n0x600085f50 -->
<g id="node13" class="node"><title>n0x600085f50</title>
<polygon fill="none" stroke="black" points="475.5,-420.5 475.5,-443.5 545.5,-443.5 545.5,-420.5 475.5,-420.5"/>
<text text-anchor="middle" x="500.5" y="-428.3" font-family="Times New Roman,serif" font-size="14.00">leitura</text>
<polyline fill="none" stroke="black" points="525.5,-420.5 525.5,-443.5 "/>
<text text-anchor="middle" x="535.5" y="-428.3" font-family="Times New Roman,serif" font-size="14.00"> </text>
</g>
<!-- n0x6000862f0&#45;&gt;n0x600085f50 -->
<g id="edge12" class="edge"><title>n0x6000862f0&#45;&gt;n0x600085f50</title>
<path fill="none" stroke="black" d="M513.766,-480.362C513.253,-472.922 512.551,-462.743 511.929,-453.728"/>
<polygon fill="black" stroke="black" points="515.409,-453.306 511.229,-443.571 508.425,-453.788 515.409,-453.306"/>
</g>
<!-- n0x6000862d0 -->
<g id="node15" class="node"><title>n0x6000862d0</title>
<polygon fill="none" stroke="black" points="566,-420.5 566,-443.5 687,-443.5 687,-420.5 566,-420.5"/>
<text text-anchor="middle" x="616.5" y="-428.3" font-family="Times New Roman,serif" font-size="14.00">lista comandos</text>
<polyline fill="none" stroke="black" points="667,-420.5 667,-443.5 "/>
<text text-anchor="middle" x="677" y="-428.3" font-family="Times New Roman,serif" font-size="14.00"> </text>
</g>
<!-- n0x6000862f0&#45;&gt;n0x6000862d0 -->
<g id="edge14" class="edge"><title>n0x6000862f0&#45;&gt;n0x6000862d0</title>
<path fill="none" stroke="black" d="M534.782,-480.497C552.118,-471.519 577.29,-458.484 596.88,-448.339"/>
<polygon fill="black" stroke="black" points="598.72,-451.328 605.99,-443.621 595.501,-445.112 598.72,-451.328"/>
</g>
<!-- n0x600085f30 -->
<g id="node14" class="node"><title>n0x600085f30</title>
<polygon fill="none" stroke="black" points="454,-360.5 454,-383.5 563,-383.5 563,-360.5 454,-360.5"/>
<text text-anchor="middle" x="497" y="-368.3" font-family="Times New Roman,serif" font-size="14.00">identificador</text>
<polyline fill="none" stroke="black" points="540,-360.5 540,-383.5 "/>
<text text-anchor="middle" x="551.5" y="-368.3" font-family="Times New Roman,serif" font-size="14.00">n</text>
</g>
<!-- n0x600085f50&#45;&gt;n0x600085f30 -->
<g id="edge13" class="edge"><title>n0x600085f50&#45;&gt;n0x600085f30</title>
<path fill="none" stroke="black" d="M510.133,-420.362C509.877,-412.922 509.526,-402.743 509.215,-393.728"/>
<polygon fill="black" stroke="black" points="512.707,-393.444 508.865,-383.571 505.711,-393.685 512.707,-393.444"/>
</g>
<!-- n0x600085fb0 -->
<g id="node16" class="node"><title>n0x600085fb0</title>
<polygon fill="none" stroke="black" points="581,-360.5 581,-383.5 672,-383.5 672,-360.5 581,-360.5"/>
<text text-anchor="middle" x="616.5" y="-368.3" font-family="Times New Roman,serif" font-size="14.00">atribuicao</text>
<polyline fill="none" stroke="black" points="652,-360.5 652,-383.5 "/>
<text text-anchor="middle" x="662" y="-368.3" font-family="Times New Roman,serif" font-size="14.00"> </text>
</g>
<!-- n0x6000862d0&#45;&gt;n0x600085fb0 -->
<g id="edge15" class="edge"><title>n0x6000862d0&#45;&gt;n0x600085fb0</title>
<path fill="none" stroke="black" d="M626.5,-420.362C626.5,-412.922 626.5,-402.743 626.5,-393.728"/>
<polygon fill="black" stroke="black" points="630,-393.571 626.5,-383.571 623,-393.571 630,-393.571"/>
</g>
<!-- n0x6000862b0 -->
<g id="node19" class="node"><title>n0x6000862b0</title>
<polygon fill="none" stroke="black" points="690,-360.5 690,-383.5 811,-383.5 811,-360.5 690,-360.5"/>
<text text-anchor="middle" x="740.5" y="-368.3" font-family="Times New Roman,serif" font-size="14.00">lista comandos</text>
<polyline fill="none" stroke="black" points="791,-360.5 791,-383.5 "/>
<text text-anchor="middle" x="801" y="-368.3" font-family="Times New Roman,serif" font-size="14.00"> </text>
</g>
<!-- n0x6000862d0&#45;&gt;n0x6000862b0 -->
<g id="edge18" class="edge"><title>n0x6000862d0&#45;&gt;n0x6000862b0</title>
<path fill="none" stroke="black" d="M648.955,-420.497C668.41,-411.397 696.78,-398.127 718.591,-387.925"/>
<polygon fill="black" stroke="black" points="720.217,-391.028 727.793,-383.621 717.252,-384.688 720.217,-391.028"/>
</g>
<!-- n0x600085f90 -->
<g id="node17" class="node"><title>n0x600085f90</title>
<polygon fill="none" stroke="black" points="455,-300.5 455,-323.5 572,-323.5 572,-300.5 455,-300.5"/>
<text text-anchor="middle" x="498" y="-308.3" font-family="Times New Roman,serif" font-size="14.00">identificador</text>
<polyline fill="none" stroke="black" points="541,-300.5 541,-323.5 "/>
<text text-anchor="middle" x="556.5" y="-308.3" font-family="Times New Roman,serif" font-size="14.00">fat</text>
</g>
<!-- n0x600085fb0&#45;&gt;n0x600085f90 -->
<g id="edge16" class="edge"><title>n0x600085fb0&#45;&gt;n0x600085f90</title>
<path fill="none" stroke="black" d="M606.037,-360.497C588.467,-351.479 562.918,-338.365 543.115,-328.201"/>
<polygon fill="black" stroke="black" points="544.688,-325.074 534.193,-323.621 541.491,-331.301 544.688,-325.074"/>
</g>
<!-- n0x600085f70 -->
<g id="node18" class="node"><title>n0x600085f70</title>
<polygon fill="none" stroke="black" points="590.5,-300.5 590.5,-323.5 672.5,-323.5 672.5,-300.5 590.5,-300.5"/>
<text text-anchor="middle" x="620" y="-308.3" font-family="Times New Roman,serif" font-size="14.00">numero</text>
<polyline fill="none" stroke="black" points="649.5,-300.5 649.5,-323.5 "/>
<text text-anchor="middle" x="661" y="-308.3" font-family="Times New Roman,serif" font-size="14.00">1</text>
</g>
<!-- n0x600085fb0&#45;&gt;n0x600085f70 -->
<g id="edge17" class="edge"><title>n0x600085fb0&#45;&gt;n0x600085f70</title>
<path fill="none" stroke="black" d="M627.417,-360.362C628.058,-352.922 628.936,-342.743 629.713,-333.728"/>
<polygon fill="black" stroke="black" points="633.217,-333.834 630.589,-323.571 626.243,-333.233 633.217,-333.834"/>
</g>
<!-- n0x6000861b0 -->
<g id="node20" class="node"><title>n0x6000861b0</title>
<polygon fill="none" stroke="black" points="700.5,-300.5 700.5,-323.5 788.5,-323.5 788.5,-300.5 700.5,-300.5"/>
<text text-anchor="middle" x="734.5" y="-308.3" font-family="Times New Roman,serif" font-size="14.00">repeticao</text>
<polyline fill="none" stroke="black" points="768.5,-300.5 768.5,-323.5 "/>
<text text-anchor="middle" x="778.5" y="-308.3" font-family="Times New Roman,serif" font-size="14.00"> </text>
</g>
<!-- n0x6000862b0&#45;&gt;n0x6000861b0 -->
<g id="edge19" class="edge"><title>n0x6000862b0&#45;&gt;n0x6000861b0</title>
<path fill="none" stroke="black" d="M749.4,-360.362C748.63,-352.922 747.577,-342.743 746.644,-333.728"/>
<polygon fill="black" stroke="black" points="750.104,-333.157 745.594,-323.571 743.141,-333.878 750.104,-333.157"/>
</g>
<!-- n0x600086290 -->
<g id="node36" class="node"><title>n0x600086290</title>
<polygon fill="none" stroke="black" points="857,-300.5 857,-323.5 978,-323.5 978,-300.5 857,-300.5"/>
<text text-anchor="middle" x="907.5" y="-308.3" font-family="Times New Roman,serif" font-size="14.00">lista comandos</text>
<polyline fill="none" stroke="black" points="958,-300.5 958,-323.5 "/>
<text text-anchor="middle" x="968" y="-308.3" font-family="Times New Roman,serif" font-size="14.00"> </text>
</g>
<!-- n0x6000862b0&#45;&gt;n0x600086290 -->
<g id="edge35" class="edge"><title>n0x6000862b0&#45;&gt;n0x600086290</title>
<path fill="none" stroke="black" d="M780.742,-360.497C807.85,-351.082 847.81,-337.204 877.543,-326.877"/>
<polygon fill="black" stroke="black" points="878.903,-330.11 887.201,-323.523 876.606,-323.498 878.903,-330.11"/>
</g>
<!-- n0x600086010 -->
<g id="node21" class="node"><title>n0x600086010</title>
<polygon fill="none" stroke="black" points="500,-240.5 500,-263.5 621,-263.5 621,-240.5 500,-240.5"/>
<text text-anchor="middle" x="550.5" y="-248.3" font-family="Times New Roman,serif" font-size="14.00">compara maior</text>
<polyline fill="none" stroke="black" points="601,-240.5 601,-263.5 "/>
<text text-anchor="middle" x="611" y="-248.3" font-family="Times New Roman,serif" font-size="14.00"> </text>
</g>
<!-- n0x6000861b0&#45;&gt;n0x600086010 -->
<g id="edge20" class="edge"><title>n0x6000861b0&#45;&gt;n0x600086010</title>
<path fill="none" stroke="black" d="M711.179,-300.497C681.052,-291 636.517,-276.962 603.672,-266.609"/>
<polygon fill="black" stroke="black" points="604.473,-263.191 593.884,-263.523 602.369,-269.868 604.473,-263.191"/>
</g>
<!-- n0x600086190 -->
<g id="node24" class="node"><title>n0x600086190</title>
<polygon fill="none" stroke="black" points="684,-240.5 684,-263.5 805,-263.5 805,-240.5 684,-240.5"/>
<text text-anchor="middle" x="734.5" y="-248.3" font-family="Times New Roman,serif" font-size="14.00">lista comandos</text>
<polyline fill="none" stroke="black" points="785,-240.5 785,-263.5 "/>
<text text-anchor="middle" x="795" y="-248.3" font-family="Times New Roman,serif" font-size="14.00"> </text>
</g>
<!-- n0x6000861b0&#45;&gt;n0x600086190 -->
<g id="edge23" class="edge"><title>n0x6000861b0&#45;&gt;n0x600086190</title>
<path fill="none" stroke="black" d="M744.5,-300.362C744.5,-292.922 744.5,-282.743 744.5,-273.728"/>
<polygon fill="black" stroke="black" points="748,-273.571 744.5,-263.571 741,-273.571 748,-273.571"/>
</g>
<!-- n0x600085fd0 -->
<g id="node22" class="node"><title>n0x600085fd0</title>
<polygon fill="none" stroke="black" points="419.5,-180.5 419.5,-203.5 501.5,-203.5 501.5,-180.5 419.5,-180.5"/>
<text text-anchor="middle" x="449" y="-188.3" font-family="Times New Roman,serif" font-size="14.00">variavel</text>
<polyline fill="none" stroke="black" points="478.5,-180.5 478.5,-203.5 "/>
<text text-anchor="middle" x="490" y="-188.3" font-family="Times New Roman,serif" font-size="14.00">n</text>
</g>
<!-- n0x600086010&#45;&gt;n0x600085fd0 -->
<g id="edge21" class="edge"><title>n0x600086010&#45;&gt;n0x600085fd0</title>
<path fill="none" stroke="black" d="M542.158,-240.362C526.934,-231.532 505.059,-218.844 487.78,-208.822"/>
<polygon fill="black" stroke="black" points="489.132,-205.56 478.725,-203.571 485.62,-211.615 489.132,-205.56"/>
</g>
<!-- n0x600085ff0 -->
<g id="node23" class="node"><title>n0x600085ff0</title>
<polygon fill="none" stroke="black" points="519.5,-180.5 519.5,-203.5 601.5,-203.5 601.5,-180.5 519.5,-180.5"/>
<text text-anchor="middle" x="549" y="-188.3" font-family="Times New Roman,serif" font-size="14.00">numero</text>
<polyline fill="none" stroke="black" points="578.5,-180.5 578.5,-203.5 "/>
<text text-anchor="middle" x="590" y="-188.3" font-family="Times New Roman,serif" font-size="14.00">0</text>
</g>
<!-- n0x600086010&#45;&gt;n0x600085ff0 -->
<g id="edge22" class="edge"><title>n0x600086010&#45;&gt;n0x600085ff0</title>
<path fill="none" stroke="black" d="M560.5,-240.362C560.5,-232.922 560.5,-222.743 560.5,-213.728"/>
<polygon fill="black" stroke="black" points="564,-213.571 560.5,-203.571 557,-213.571 564,-213.571"/>
</g>
<!-- n0x6000860b0 -->
<g id="node25" class="node"><title>n0x6000860b0</title>
<polygon fill="none" stroke="black" points="620,-180.5 620,-203.5 711,-203.5 711,-180.5 620,-180.5"/>
<text text-anchor="middle" x="655.5" y="-188.3" font-family="Times New Roman,serif" font-size="14.00">atribuicao</text>
<polyline fill="none" stroke="black" points="691,-180.5 691,-203.5 "/>
<text text-anchor="middle" x="701" y="-188.3" font-family="Times New Roman,serif" font-size="14.00"> </text>
</g>
<!-- n0x600086190&#45;&gt;n0x6000860b0 -->
<g id="edge24" class="edge"><title>n0x600086190&#45;&gt;n0x6000860b0</title>
<path fill="none" stroke="black" d="M730.01,-240.362C718.317,-231.777 701.657,-219.546 688.197,-209.664"/>
<polygon fill="black" stroke="black" points="690.03,-206.667 679.898,-203.571 685.887,-212.31 690.03,-206.667"/>
</g>
<!-- n0x600086170 -->
<g id="node30" class="node"><title>n0x600086170</title>
<polygon fill="none" stroke="black" points="729,-180.5 729,-203.5 850,-203.5 850,-180.5 729,-180.5"/>
<text text-anchor="middle" x="779.5" y="-188.3" font-family="Times New Roman,serif" font-size="14.00">lista comandos</text>
<polyline fill="none" stroke="black" points="830,-180.5 830,-203.5 "/>
<text text-anchor="middle" x="840" y="-188.3" font-family="Times New Roman,serif" font-size="14.00"> </text>
</g>
<!-- n0x600086190&#45;&gt;n0x600086170 -->
<g id="edge29" class="edge"><title>n0x600086190&#45;&gt;n0x600086170</title>
<path fill="none" stroke="black" d="M752.754,-240.362C758.97,-232.35 767.651,-221.161 775.015,-211.67"/>
<polygon fill="black" stroke="black" points="777.934,-213.617 781.299,-203.571 772.403,-209.326 777.934,-213.617"/>
</g>
<!-- n0x600086090 -->
<g id="node26" class="node"><title>n0x600086090</title>
<polygon fill="none" stroke="black" points="490,-120.5 490,-143.5 607,-143.5 607,-120.5 490,-120.5"/>
<text text-anchor="middle" x="533" y="-128.3" font-family="Times New Roman,serif" font-size="14.00">identificador</text>
<polyline fill="none" stroke="black" points="576,-120.5 576,-143.5 "/>
<text text-anchor="middle" x="591.5" y="-128.3" font-family="Times New Roman,serif" font-size="14.00">fat</text>
</g>
<!-- n0x6000860b0&#45;&gt;n0x600086090 -->
<g id="edge25" class="edge"><title>n0x6000860b0&#45;&gt;n0x600086090</title>
<path fill="none" stroke="black" d="M644.312,-180.497C626.038,-171.438 599.428,-158.246 578.885,-148.063"/>
<polygon fill="black" stroke="black" points="580.44,-144.927 569.926,-143.621 577.331,-151.199 580.44,-144.927"/>
</g>
<!-- n0x600086070 -->
<g id="node27" class="node"><title>n0x600086070</title>
<polygon fill="none" stroke="black" points="625.5,-120.5 625.5,-143.5 715.5,-143.5 715.5,-120.5 625.5,-120.5"/>
<text text-anchor="middle" x="660.5" y="-128.3" font-family="Times New Roman,serif" font-size="14.00">multiplica</text>
<polyline fill="none" stroke="black" points="695.5,-120.5 695.5,-143.5 "/>
<text text-anchor="middle" x="705.5" y="-128.3" font-family="Times New Roman,serif" font-size="14.00"> </text>
</g>
<!-- n0x6000860b0&#45;&gt;n0x600086070 -->
<g id="edge26" class="edge"><title>n0x6000860b0&#45;&gt;n0x600086070</title>
<path fill="none" stroke="black" d="M666.417,-180.362C667.058,-172.922 667.936,-162.743 668.713,-153.728"/>
<polygon fill="black" stroke="black" points="672.217,-153.834 669.589,-143.571 665.243,-153.233 672.217,-153.834"/>
</g>
<!-- n0x600086030 -->
<g id="node28" class="node"><title>n0x600086030</title>
<polygon fill="none" stroke="black" points="522.5,-60.5 522.5,-83.5 612.5,-83.5 612.5,-60.5 522.5,-60.5"/>
<text text-anchor="middle" x="552" y="-68.3" font-family="Times New Roman,serif" font-size="14.00">variavel</text>
<polyline fill="none" stroke="black" points="581.5,-60.5 581.5,-83.5 "/>
<text text-anchor="middle" x="597" y="-68.3" font-family="Times New Roman,serif" font-size="14.00">fat</text>
</g>
<!-- n0x600086070&#45;&gt;n0x600086030 -->
<g id="edge27" class="edge"><title>n0x600086070&#45;&gt;n0x600086030</title>
<path fill="none" stroke="black" d="M651.608,-120.362C635.782,-111.45 612.977,-98.6087 595.105,-88.5447"/>
<polygon fill="black" stroke="black" points="596.703,-85.4276 586.272,-83.5707 593.268,-91.5271 596.703,-85.4276"/>
</g>
<!-- n0x600086050 -->
<g id="node29" class="node"><title>n0x600086050</title>
<polygon fill="none" stroke="black" points="630.5,-60.5 630.5,-83.5 712.5,-83.5 712.5,-60.5 630.5,-60.5"/>
<text text-anchor="middle" x="660" y="-68.3" font-family="Times New Roman,serif" font-size="14.00">variavel</text>
<polyline fill="none" stroke="black" points="689.5,-60.5 689.5,-83.5 "/>
<text text-anchor="middle" x="701" y="-68.3" font-family="Times New Roman,serif" font-size="14.00">n</text>
</g>
<!-- n0x600086070&#45;&gt;n0x600086050 -->
<g id="edge28" class="edge"><title>n0x600086070&#45;&gt;n0x600086050</title>
<path fill="none" stroke="black" d="M670.683,-120.362C670.812,-112.922 670.987,-102.743 671.143,-93.7276"/>
<polygon fill="black" stroke="black" points="674.645,-93.6295 671.318,-83.5707 667.646,-93.5088 674.645,-93.6295"/>
</g>
<!-- n0x600086150 -->
<g id="node31" class="node"><title>n0x600086150</title>
<polygon fill="none" stroke="black" points="744,-120.5 744,-143.5 835,-143.5 835,-120.5 744,-120.5"/>
<text text-anchor="middle" x="779.5" y="-128.3" font-family="Times New Roman,serif" font-size="14.00">atribuicao</text>
<polyline fill="none" stroke="black" points="815,-120.5 815,-143.5 "/>
<text text-anchor="middle" x="825" y="-128.3" font-family="Times New Roman,serif" font-size="14.00"> </text>
</g>
<!-- n0x600086170&#45;&gt;n0x600086150 -->
<g id="edge30" class="edge"><title>n0x600086170&#45;&gt;n0x600086150</title>
<path fill="none" stroke="black" d="M789.5,-180.362C789.5,-172.922 789.5,-162.743 789.5,-153.728"/>
<polygon fill="black" stroke="black" points="793,-153.571 789.5,-143.571 786,-153.571 793,-153.571"/>
</g>
<!-- n0x600086130 -->
<g id="node32" class="node"><title>n0x600086130</title>
<polygon fill="none" stroke="black" points="733,-60.5 733,-83.5 842,-83.5 842,-60.5 733,-60.5"/>
<text text-anchor="middle" x="776" y="-68.3" font-family="Times New Roman,serif" font-size="14.00">identificador</text>
<polyline fill="none" stroke="black" points="819,-60.5 819,-83.5 "/>
<text text-anchor="middle" x="830.5" y="-68.3" font-family="Times New Roman,serif" font-size="14.00">n</text>
</g>
<!-- n0x600086150&#45;&gt;n0x600086130 -->
<g id="edge31" class="edge"><title>n0x600086150&#45;&gt;n0x600086130</title>
<path fill="none" stroke="black" d="M789.133,-120.362C788.877,-112.922 788.526,-102.743 788.215,-93.7276"/>
<polygon fill="black" stroke="black" points="791.707,-93.4441 787.865,-83.5707 784.711,-93.6854 791.707,-93.4441"/>
</g>
<!-- n0x600086110 -->
<g id="node33" class="node"><title>n0x600086110</title>
<polygon fill="none" stroke="black" points="860.5,-60.5 860.5,-83.5 934.5,-83.5 934.5,-60.5 860.5,-60.5"/>
<text text-anchor="middle" x="887.5" y="-68.3" font-family="Times New Roman,serif" font-size="14.00">subtrai</text>
<polyline fill="none" stroke="black" points="914.5,-60.5 914.5,-83.5 "/>
<text text-anchor="middle" x="924.5" y="-68.3" font-family="Times New Roman,serif" font-size="14.00"> </text>
</g>
<!-- n0x600086150&#45;&gt;n0x600086110 -->
<g id="edge32" class="edge"><title>n0x600086150&#45;&gt;n0x600086110</title>
<path fill="none" stroke="black" d="M809.058,-120.497C825.698,-111.56 849.827,-98.602 868.68,-88.4772"/>
<polygon fill="black" stroke="black" points="870.569,-91.436 877.723,-83.6212 867.257,-85.2691 870.569,-91.436"/>
</g>
<!-- n0x6000860d0 -->
<g id="node34" class="node"><title>n0x6000860d0</title>
<polygon fill="none" stroke="black" points="806.5,-0.5 806.5,-23.5 888.5,-23.5 888.5,-0.5 806.5,-0.5"/>
<text text-anchor="middle" x="836" y="-8.3" font-family="Times New Roman,serif" font-size="14.00">variavel</text>
<polyline fill="none" stroke="black" points="865.5,-0.5 865.5,-23.5 "/>
<text text-anchor="middle" x="877" y="-8.3" font-family="Times New Roman,serif" font-size="14.00">n</text>
</g>
<!-- n0x600086110&#45;&gt;n0x6000860d0 -->
<g id="edge33" class="edge"><title>n0x600086110&#45;&gt;n0x6000860d0</title>
<path fill="none" stroke="black" d="M888.329,-60.3619C881.352,-52.2678 871.579,-40.9318 863.344,-31.3796"/>
<polygon fill="black" stroke="black" points="865.793,-28.8595 856.613,-23.5707 860.491,-33.4301 865.793,-28.8595"/>
</g>
<!-- n0x6000860f0 -->
<g id="node35" class="node"><title>n0x6000860f0</title>
<polygon fill="none" stroke="black" points="906.5,-0.5 906.5,-23.5 988.5,-23.5 988.5,-0.5 906.5,-0.5"/>
<text text-anchor="middle" x="936" y="-8.3" font-family="Times New Roman,serif" font-size="14.00">numero</text>
<polyline fill="none" stroke="black" points="965.5,-0.5 965.5,-23.5 "/>
<text text-anchor="middle" x="977" y="-8.3" font-family="Times New Roman,serif" font-size="14.00">1</text>
</g>
<!-- n0x600086110&#45;&gt;n0x6000860f0 -->
<g id="edge34" class="edge"><title>n0x600086110&#45;&gt;n0x6000860f0</title>
<path fill="none" stroke="black" d="M906.671,-60.3619C913.648,-52.2678 923.421,-40.9318 931.656,-31.3796"/>
<polygon fill="black" stroke="black" points="934.509,-33.4301 938.387,-23.5707 929.207,-28.8595 934.509,-33.4301"/>
</g>
<!-- n0x600086210 -->
<g id="node37" class="node"><title>n0x600086210</title>
<polygon fill="none" stroke="black" points="881,-240.5 881,-263.5 954,-263.5 954,-240.5 881,-240.5"/>
<text text-anchor="middle" x="907.5" y="-248.3" font-family="Times New Roman,serif" font-size="14.00">escrita</text>
<polyline fill="none" stroke="black" points="934,-240.5 934,-263.5 "/>
<text text-anchor="middle" x="944" y="-248.3" font-family="Times New Roman,serif" font-size="14.00"> </text>
</g>
<!-- n0x600086290&#45;&gt;n0x600086210 -->
<g id="edge36" class="edge"><title>n0x600086290&#45;&gt;n0x600086210</title>
<path fill="none" stroke="black" d="M917.5,-300.362C917.5,-292.922 917.5,-282.743 917.5,-273.728"/>
<polygon fill="black" stroke="black" points="921,-273.571 917.5,-263.571 914,-273.571 921,-273.571"/>
</g>
<!-- n0x600086270 -->
<g id="node39" class="node"><title>n0x600086270</title>
<polygon fill="none" stroke="black" points="972,-240.5 972,-263.5 1093,-263.5 1093,-240.5 972,-240.5"/>
<text text-anchor="middle" x="1022.5" y="-248.3" font-family="Times New Roman,serif" font-size="14.00">lista comandos</text>
<polyline fill="none" stroke="black" points="1073,-240.5 1073,-263.5 "/>
<text text-anchor="middle" x="1083" y="-248.3" font-family="Times New Roman,serif" font-size="14.00"> </text>
</g>
<!-- n0x600086290&#45;&gt;n0x600086270 -->
<g id="edge38" class="edge"><title>n0x600086290&#45;&gt;n0x600086270</title>
<path fill="none" stroke="black" d="M938.326,-300.497C956.206,-291.479 982.207,-278.365 1002.36,-268.201"/>
<polygon fill="black" stroke="black" points="1004.09,-271.249 1011.44,-263.621 1000.94,-264.999 1004.09,-271.249"/>
</g>
<!-- n0x6000861f0 -->
<g id="node38" class="node"><title>n0x6000861f0</title>
<polygon fill="none" stroke="black" points="868.5,-180.5 868.5,-203.5 974.5,-203.5 974.5,-180.5 868.5,-180.5"/>
<text text-anchor="middle" x="890.5" y="-188.3" font-family="Times New Roman,serif" font-size="14.00">texto</text>
<polyline fill="none" stroke="black" points="912.5,-180.5 912.5,-203.5 "/>
<text text-anchor="middle" x="943.5" y="-188.3" font-family="Times New Roman,serif" font-size="14.00">_const1</text>
</g>
<!-- n0x600086210&#45;&gt;n0x6000861f0 -->
<g id="edge37" class="edge"><title>n0x600086210&#45;&gt;n0x6000861f0</title>
<path fill="none" stroke="black" d="M918.234,-240.362C918.747,-232.922 919.449,-222.743 920.071,-213.728"/>
<polygon fill="black" stroke="black" points="923.575,-213.788 920.771,-203.571 916.591,-213.306 923.575,-213.788"/>
</g>
<!-- n0x600086250 -->
<g id="node40" class="node"><title>n0x600086250</title>
<polygon fill="none" stroke="black" points="996,-180.5 996,-203.5 1069,-203.5 1069,-180.5 996,-180.5"/>
<text text-anchor="middle" x="1022.5" y="-188.3" font-family="Times New Roman,serif" font-size="14.00">escrita</text>
<polyline fill="none" stroke="black" points="1049,-180.5 1049,-203.5 "/>
<text text-anchor="middle" x="1059" y="-188.3" font-family="Times New Roman,serif" font-size="14.00"> </text>
</g>
<!-- n0x600086270&#45;&gt;n0x600086250 -->
<g id="edge39" class="edge"><title>n0x600086270&#45;&gt;n0x600086250</title>
<path fill="none" stroke="black" d="M1032.5,-240.362C1032.5,-232.922 1032.5,-222.743 1032.5,-213.728"/>
<polygon fill="black" stroke="black" points="1036,-213.571 1032.5,-203.571 1029,-213.571 1036,-213.571"/>
</g>
<!-- n0x600086230 -->
<g id="node41" class="node"><title>n0x600086230</title>
<polygon fill="none" stroke="black" points="987.5,-120.5 987.5,-143.5 1077.5,-143.5 1077.5,-120.5 987.5,-120.5"/>
<text text-anchor="middle" x="1017" y="-128.3" font-family="Times New Roman,serif" font-size="14.00">variavel</text>
<polyline fill="none" stroke="black" points="1046.5,-120.5 1046.5,-143.5 "/>
<text text-anchor="middle" x="1062" y="-128.3" font-family="Times New Roman,serif" font-size="14.00">fat</text>
</g>
<!-- n0x600086250&#45;&gt;n0x600086230 -->
<g id="edge40" class="edge"><title>n0x600086250&#45;&gt;n0x600086230</title>
<path fill="none" stroke="black" d="M1032.5,-180.362C1032.5,-172.922 1032.5,-162.743 1032.5,-153.728"/>
<polygon fill="black" stroke="black" points="1036,-153.571 1032.5,-143.571 1029,-153.571 1036,-153.571"/>
</g>
</g>
</svg>
