<?xml version="1.0" encoding="UTF-8" standalone="no"?>
<!DOCTYPE svg PUBLIC "-//W3C//DTD SVG 1.1//EN"
 "http://www.w3.org/Graphics/SVG/1.1/DTD/svg11.dtd">
<!-- Generated by graphviz version 2.38.0 (20140413.2041)
 -->
<!-- Title: %3 Pages: 1 -->
<svg width="1159pt" height="632pt"
 viewBox="0.00 0.00 1158.50 632.00" xmlns="http://www.w3.org/2000/svg" xmlns:xlink="http://www.w3.org/1999/xlink">
<g id="graph0" class="graph" transform="scale(1 1) rotate(0) translate(4 628)">
<title>%3</title>
<polygon fill="white" stroke="none" points="-4,4 -4,-628 1154.5,-628 1154.5,4 -4,4"/>
<!-- n0x600086290 -->
<g id="node1" class="node"><title>n0x600086290</title>
<polygon fill="none" stroke="black" points="190,-600.5 190,-623.5 280,-623.5 280,-600.5 190,-600.5"/>
<text text-anchor="middle" x="225" y="-608.3" font-family="Times New Roman,serif" font-size="14.00">programa</text>
<polyline fill="none" stroke="black" points="260,-600.5 260,-623.5 "/>
<text text-anchor="middle" x="270" y="-608.3" font-family="Times New Roman,serif" font-size="14.00"> </text>
</g>
<!-- n0x6000284d0 -->
<g id="node2" class="node"><title>n0x6000284d0</title>
<polygon fill="none" stroke="black" points="0,-540.5 0,-563.5 134,-563.5 134,-540.5 0,-540.5"/>
<text text-anchor="middle" x="43" y="-548.3" font-family="Times New Roman,serif" font-size="14.00">identificador</text>
<polyline fill="none" stroke="black" points="86,-540.5 86,-563.5 "/>
<text text-anchor="middle" x="110" y="-548.3" font-family="Times New Roman,serif" font-size="14.00">maior</text>
</g>
<!-- n0x600086290&#45;&gt;n0x6000284d0 -->
<g id="edge1" class="edge"><title>n0x600086290&#45;&gt;n0x6000284d0</title>
<path fill="none" stroke="black" d="M204.576,-600.497C177.306,-591.082 137.107,-577.204 107.196,-566.877"/>
<polygon fill="black" stroke="black" points="108.075,-563.478 97.4806,-563.523 105.791,-570.095 108.075,-563.478"/>
</g>
<!-- n0x600085eb0 -->
<g id="node3" class="node"><title>n0x600085eb0</title>
<polygon fill="none" stroke="black" points="152,-540.5 152,-563.5 318,-563.5 318,-540.5 152,-540.5"/>
<text text-anchor="middle" x="225" y="-548.3" font-family="Times New Roman,serif" font-size="14.00">declaracao de variaveis</text>
<polyline fill="none" stroke="black" points="298,-540.5 298,-563.5 "/>
<text text-anchor="middle" x="308" y="-548.3" font-family="Times New Roman,serif" font-size="14.00"> </text>
</g>
<!-- n0x600086290&#45;&gt;n0x600085eb0 -->
<g id="edge2" class="edge"><title>n0x600086290&#45;&gt;n0x600085eb0</title>
<path fill="none" stroke="black" d="M235,-600.362C235,-592.922 235,-582.743 235,-573.728"/>
<polygon fill="black" stroke="black" points="238.5,-573.571 235,-563.571 231.5,-573.571 238.5,-573.571"/>
</g>
<!-- n0x600086270 -->
<g id="node9" class="node"><title>n0x600086270</title>
<polygon fill="none" stroke="black" points="336.5,-540.5 336.5,-563.5 457.5,-563.5 457.5,-540.5 336.5,-540.5"/>
<text text-anchor="middle" x="387" y="-548.3" font-family="Times New Roman,serif" font-size="14.00">lista comandos</text>
<polyline fill="none" stroke="black" points="437.5,-540.5 437.5,-563.5 "/>
<text text-anchor="middle" x="447.5" y="-548.3" font-family="Times New Roman,serif" font-size="14.00"> </text>
</g>
<!-- n0x600086290&#45;&gt;n0x600086270 -->
<g id="edge8" class="edge"><title>n0x600086290&#45;&gt;n0x600086270</title>
<path fill="none" stroke="black" d="M264.337,-600.497C290.519,-591.123 329.06,-577.324 357.863,-567.012"/>
<polygon fill="black" stroke="black" points="359.373,-570.189 367.608,-563.523 357.013,-563.599 359.373,-570.189"/>
</g>
<!-- n0x600085e10 -->
<g id="node4" class="node"><title>n0x600085e10</title>
<polygon fill="none" stroke="black" points="76.5,-480.5 76.5,-503.5 165.5,-503.5 165.5,-480.5 76.5,-480.5"/>
<text text-anchor="middle" x="95.5" y="-488.3" font-family="Times New Roman,serif" font-size="14.00">tipo</text>
<polyline fill="none" stroke="black" points="114.5,-480.5 114.5,-503.5 "/>
<text text-anchor="middle" x="140" y="-488.3" font-family="Times New Roman,serif" font-size="14.00">inteiro</text>
</g>
<!-- n0x600085eb0&#45;&gt;n0x600085e10 -->
<g id="edge3" class="edge"><title>n0x600085eb0&#45;&gt;n0x600085e10</title>
<path fill="none" stroke="black" d="M214.355,-540.497C196.63,-531.479 170.855,-518.365 150.877,-508.201"/>
<polygon fill="black" stroke="black" points="152.376,-505.036 141.876,-503.621 149.202,-511.275 152.376,-505.036"/>
</g>
<!-- n0x600085e90 -->
<g id="node5" class="node"><title>n0x600085e90</title>
<polygon fill="none" stroke="black" points="184,-480.5 184,-503.5 294,-503.5 294,-480.5 184,-480.5"/>
<text text-anchor="middle" x="229" y="-488.3" font-family="Times New Roman,serif" font-size="14.00">lista variaveis</text>
<polyline fill="none" stroke="black" points="274,-480.5 274,-503.5 "/>
<text text-anchor="middle" x="284" y="-488.3" font-family="Times New Roman,serif" font-size="14.00"> </text>
</g>
<!-- n0x600085eb0&#45;&gt;n0x600085e90 -->
<g id="edge4" class="edge"><title>n0x600085eb0&#45;&gt;n0x600085e90</title>
<path fill="none" stroke="black" d="M235.734,-540.362C236.247,-532.922 236.949,-522.743 237.571,-513.728"/>
<polygon fill="black" stroke="black" points="241.075,-513.788 238.271,-503.571 234.091,-513.306 241.075,-513.788"/>
</g>
<!-- n0x600085e70 -->
<g id="node6" class="node"><title>n0x600085e70</title>
<polygon fill="none" stroke="black" points="65,-420.5 65,-443.5 175,-443.5 175,-420.5 65,-420.5"/>
<text text-anchor="middle" x="108" y="-428.3" font-family="Times New Roman,serif" font-size="14.00">identificador</text>
<polyline fill="none" stroke="black" points="151,-420.5 151,-443.5 "/>
<text text-anchor="middle" x="163" y="-428.3" font-family="Times New Roman,serif" font-size="14.00">b</text>
</g>
<!-- n0x600085e90&#45;&gt;n0x600085e70 -->
<g id="edge5" class="edge"><title>n0x600085e90&#45;&gt;n0x600085e70</title>
<path fill="none" stroke="black" d="M217.45,-480.497C198.864,-471.438 171.798,-458.246 150.905,-448.063"/>
<polygon fill="black" stroke="black" points="152.314,-444.856 141.792,-443.621 149.247,-451.149 152.314,-444.856"/>
</g>
<!-- n0x600085e50 -->
<g id="node7" class="node"><title>n0x600085e50</title>
<polygon fill="none" stroke="black" points="193,-420.5 193,-443.5 303,-443.5 303,-420.5 193,-420.5"/>
<text text-anchor="middle" x="238" y="-428.3" font-family="Times New Roman,serif" font-size="14.00">lista variaveis</text>
<polyline fill="none" stroke="black" points="283,-420.5 283,-443.5 "/>
<text text-anchor="middle" x="293" y="-428.3" font-family="Times New Roman,serif" font-size="14.00"> </text>
</g>
<!-- n0x600085e90&#45;&gt;n0x600085e50 -->
<g id="edge6" class="edge"><title>n0x600085e90&#45;&gt;n0x600085e50</title>
<path fill="none" stroke="black" d="M240.651,-480.362C241.805,-472.922 243.385,-462.743 244.784,-453.728"/>
<polygon fill="black" stroke="black" points="248.285,-453.989 246.36,-443.571 241.368,-452.916 248.285,-453.989"/>
</g>
<!-- n0x600085e30 -->
<g id="node8" class="node"><title>n0x600085e30</title>
<polygon fill="none" stroke="black" points="193.5,-360.5 193.5,-383.5 302.5,-383.5 302.5,-360.5 193.5,-360.5"/>
<text text-anchor="middle" x="236.5" y="-368.3" font-family="Times New Roman,serif" font-size="14.00">identificador</text>
<polyline fill="none" stroke="black" points="279.5,-360.5 279.5,-383.5 "/>
<text text-anchor="middle" x="291" y="-368.3" font-family="Times New Roman,serif" font-size="14.00">a</text>
</g>
<!-- n0x600085e50&#45;&gt;n0x600085e30 -->
<g id="edge7" class="edge"><title>n0x600085e50&#45;&gt;n0x600085e30</title>
<path fill="none" stroke="black" d="M248,-420.362C248,-412.922 248,-402.743 248,-393.728"/>
<polygon fill="black" stroke="black" points="251.5,-393.571 248,-383.571 244.5,-393.571 251.5,-393.571"/>
</g>
<!-- n0x600085f10 -->
<g id="node10" class="node"><title>n0x600085f10</title>
<polygon fill="none" stroke="black" points="355.5,-480.5 355.5,-503.5 428.5,-503.5 428.5,-480.5 355.5,-480.5"/>
<text text-anchor="middle" x="382" y="-488.3" font-family="Times New Roman,serif" font-size="14.00">escrita</text>
<polyline fill="none" stroke="black" points="408.5,-480.5 408.5,-503.5 "/>
<text text-anchor="middle" x="418.5" y="-488.3" font-family="Times New Roman,serif" font-size="14.00"> </text>
</g>
<!-- n0x600086270&#45;&gt;n0x600085f10 -->
<g id="edge9" class="edge"><title>n0x600086270&#45;&gt;n0x600085f10</title>
<path fill="none" stroke="black" d="M396.083,-540.362C395.442,-532.922 394.564,-522.743 393.787,-513.728"/>
<polygon fill="black" stroke="black" points="397.257,-513.233 392.911,-503.571 390.283,-513.834 397.257,-513.233"/>
</g>
<!-- n0x600086250 -->
<g id="node12" class="node"><title>n0x600086250</title>
<polygon fill="none" stroke="black" points="446.5,-480.5 446.5,-503.5 567.5,-503.5 567.5,-480.5 446.5,-480.5"/>
<text text-anchor="middle" x="497" y="-488.3" font-family="Times New Roman,serif" font-size="14.00">lista comandos</text>
<polyline fill="none" stroke="black" points="547.5,-480.5 547.5,-503.5 "/>
<text text-anchor="middle" x="557.5" y="-488.3" font-family="Times New Roman,serif" font-size="14.00"> </text>
</g>
<!-- n0x600086270&#45;&gt;n0x600086250 -->
<g id="edge11" class="edge"><title>n0x600086270&#45;&gt;n0x600086250</title>
<path fill="none" stroke="black" d="M416.92,-540.497C433.946,-531.519 458.669,-518.484 477.909,-508.339"/>
<polygon fill="black" stroke="black" points="479.643,-511.381 486.856,-503.621 476.378,-505.189 479.643,-511.381"/>
</g>
<!-- n0x600085ef0 -->
<g id="node11" class="node"><title>n0x600085ef0</title>
<polygon fill="none" stroke="black" points="339,-420.5 339,-443.5 445,-443.5 445,-420.5 339,-420.5"/>
<text text-anchor="middle" x="361" y="-428.3" font-family="Times New Roman,serif" font-size="14.00">texto</text>
<polyline fill="none" stroke="black" points="383,-420.5 383,-443.5 "/>
<text text-anchor="middle" x="414" y="-428.3" font-family="Times New Roman,serif" font-size="14.00">_const0</text>
</g>
<!-- n0x600085f10&#45;&gt;n0x600085ef0 -->
<g id="edge10" class="edge"><title>n0x600085f10&#45;&gt;n0x600085ef0</title>
<path fill="none" stroke="black" d="M392,-480.362C392,-472.922 392,-462.743 392,-453.728"/>
<polygon fill="black" stroke="black" points="395.5,-453.571 392,-443.571 388.5,-453.571 395.5,-453.571"/>
</g>
<!-- n0x600085f50 -->
<g id="node13" class="node"><title>n0x600085f50</title>
<polygon fill="none" stroke="black" points="468,-420.5 468,-443.5 538,-443.5 538,-420.5 468,-420.5"/>
<text text-anchor="middle" x="493" y="-428.3" font-family="Times New Roman,serif" font-size="14.00">leitura</text>
<polyline fill="none" stroke="black" points="518,-420.5 518,-443.5 "/>
<text text-anchor="middle" x="528" y="-428.3" font-family="Times New Roman,serif" font-size="14.00"> </text>
</g>
<!-- n0x600086250&#45;&gt;n0x600085f50 -->
<g id="edge12" class="edge"><title>n0x600086250&#45;&gt;n0x600085f50</title>
<path fill="none" stroke="black" d="M506.266,-480.362C505.753,-472.922 505.051,-462.743 504.429,-453.728"/>
<polygon fill="black" stroke="black" points="507.909,-453.306 503.729,-443.571 500.925,-453.788 507.909,-453.306"/>
</g>
<!-- n0x600086230 -->
<g id="node15" class="node"><title>n0x600086230</title>
<polygon fill="none" stroke="black" points="556.5,-420.5 556.5,-443.5 677.5,-443.5 677.5,-420.5 556.5,-420.5"/>
<text text-anchor="middle" x="607" y="-428.3" font-family="Times New Roman,serif" font-size="14.00">lista comandos</text>
<polyline fill="none" stroke="black" points="657.5,-420.5 657.5,-443.5 "/>
<text text-anchor="middle" x="667.5" y="-428.3" font-family="Times New Roman,serif" font-size="14.00"> </text>
</g>
<!-- n0x600086250&#45;&gt;n0x600086230 -->
<g id="edge14" class="edge"><title>n0x600086250&#45;&gt;n0x600086230</title>
<path fill="none" stroke="black" d="M526.92,-480.497C543.946,-471.519 568.669,-458.484 587.909,-448.339"/>
<polygon fill="black" stroke="black" points="589.643,-451.381 596.856,-443.621 586.378,-445.189 589.643,-451.381"/>
</g>
<!-- n0x600085f30 -->
<g id="node14" class="node"><title>n0x600085f30</title>
<polygon fill="none" stroke="black" points="448.5,-360.5 448.5,-383.5 557.5,-383.5 557.5,-360.5 448.5,-360.5"/>
<text text-anchor="middle" x="491.5" y="-368.3" font-family="Times New Roman,serif" font-size="14.00">identificador</text>
<polyline fill="none" stroke="black" points="534.5,-360.5 534.5,-383.5 "/>
<text text-anchor="middle" x="546" y="-368.3" font-family="Times New Roman,serif" font-size="14.00">a</text>
</g>
<!-- n0x600085f50&#45;&gt;n0x600085f30 -->
<g id="edge13" class="edge"><title>n0x600085f50&#45;&gt;n0x600085f30</title>
<path fill="none" stroke="black" d="M503,-420.362C503,-412.922 503,-402.743 503,-393.728"/>
<polygon fill="black" stroke="black" points="506.5,-393.571 503,-383.571 499.5,-393.571 506.5,-393.571"/>
</g>
<!-- n0x600085fb0 -->
<g id="node16" class="node"><title>n0x600085fb0</title>
<polygon fill="none" stroke="black" points="577.5,-360.5 577.5,-383.5 650.5,-383.5 650.5,-360.5 577.5,-360.5"/>
<text text-anchor="middle" x="604" y="-368.3" font-family="Times New Roman,serif" font-size="14.00">escrita</text>
<polyline fill="none" stroke="black" points="630.5,-360.5 630.5,-383.5 "/>
<text text-anchor="middle" x="640.5" y="-368.3" font-family="Times New Roman,serif" font-size="14.00"> </text>
</g>
<!-- n0x600086230&#45;&gt;n0x600085fb0 -->
<g id="edge15" class="edge"><title>n0x600086230&#45;&gt;n0x600085fb0</title>
<path fill="none" stroke="black" d="M616.45,-420.362C616.065,-412.922 615.538,-402.743 615.072,-393.728"/>
<polygon fill="black" stroke="black" points="618.559,-393.376 614.547,-383.571 611.568,-393.738 618.559,-393.376"/>
</g>
<!-- n0x600086210 -->
<g id="node18" class="node"><title>n0x600086210</title>
<polygon fill="none" stroke="black" points="668.5,-360.5 668.5,-383.5 789.5,-383.5 789.5,-360.5 668.5,-360.5"/>
<text text-anchor="middle" x="719" y="-368.3" font-family="Times New Roman,serif" font-size="14.00">lista comandos</text>
<polyline fill="none" stroke="black" points="769.5,-360.5 769.5,-383.5 "/>
<text text-anchor="middle" x="779.5" y="-368.3" font-family="Times New Roman,serif" font-size="14.00"> </text>
</g>
<!-- n0x600086230&#45;&gt;n0x600086210 -->
<g id="edge17" class="edge"><title>n0x600086230&#45;&gt;n0x600086210</title>
<path fill="none" stroke="black" d="M637.282,-420.497C654.618,-411.519 679.79,-398.484 699.38,-388.339"/>
<polygon fill="black" stroke="black" points="701.22,-391.328 708.49,-383.621 698.001,-385.112 701.22,-391.328"/>
</g>
<!-- n0x600085f90 -->
<g id="node17" class="node"><title>n0x600085f90</title>
<polygon fill="none" stroke="black" points="561,-300.5 561,-323.5 667,-323.5 667,-300.5 561,-300.5"/>
<text text-anchor="middle" x="583" y="-308.3" font-family="Times New Roman,serif" font-size="14.00">texto</text>
<polyline fill="none" stroke="black" points="605,-300.5 605,-323.5 "/>
<text text-anchor="middle" x="636" y="-308.3" font-family="Times New Roman,serif" font-size="14.00">_const1</text>
</g>
<!-- n0x600085fb0&#45;&gt;n0x600085f90 -->
<g id="edge16" class="edge"><title>n0x600085fb0&#45;&gt;n0x600085f90</title>
<path fill="none" stroke="black" d="M614,-360.362C614,-352.922 614,-342.743 614,-333.728"/>
<polygon fill="black" stroke="black" points="617.5,-333.571 614,-323.571 610.5,-333.571 617.5,-333.571"/>
</g>
<!-- n0x600085ff0 -->
<g id="node19" class="node"><title>n0x600085ff0</title>
<polygon fill="none" stroke="black" points="689,-300.5 689,-323.5 759,-323.5 759,-300.5 689,-300.5"/>
<text text-anchor="middle" x="714" y="-308.3" font-family="Times New Roman,serif" font-size="14.00">leitura</text>
<polyline fill="none" stroke="black" points="739,-300.5 739,-323.5 "/>
<text text-anchor="middle" x="749" y="-308.3" font-family="Times New Roman,serif" font-size="14.00"> </text>
</g>
<!-- n0x600086210&#45;&gt;n0x600085ff0 -->
<g id="edge18" class="edge"><title>n0x600086210&#45;&gt;n0x600085ff0</title>
<path fill="none" stroke="black" d="M728.083,-360.362C727.442,-352.922 726.564,-342.743 725.787,-333.728"/>
<polygon fill="black" stroke="black" points="729.257,-333.233 724.911,-323.571 722.283,-333.834 729.257,-333.233"/>
</g>
<!-- n0x6000861f0 -->
<g id="node21" class="node"><title>n0x6000861f0</title>
<polygon fill="none" stroke="black" points="777.5,-300.5 777.5,-323.5 898.5,-323.5 898.5,-300.5 777.5,-300.5"/>
<text text-anchor="middle" x="828" y="-308.3" font-family="Times New Roman,serif" font-size="14.00">lista comandos</text>
<polyline fill="none" stroke="black" points="878.5,-300.5 878.5,-323.5 "/>
<text text-anchor="middle" x="888.5" y="-308.3" font-family="Times New Roman,serif" font-size="14.00"> </text>
</g>
<!-- n0x600086210&#45;&gt;n0x6000861f0 -->
<g id="edge20" class="edge"><title>n0x600086210&#45;&gt;n0x6000861f0</title>
<path fill="none" stroke="black" d="M748.739,-360.497C765.61,-351.519 790.109,-338.484 809.174,-328.339"/>
<polygon fill="black" stroke="black" points="810.856,-331.409 818.039,-323.621 807.567,-325.229 810.856,-331.409"/>
</g>
<!-- n0x600085fd0 -->
<g id="node20" class="node"><title>n0x600085fd0</title>
<polygon fill="none" stroke="black" points="669,-240.5 669,-263.5 779,-263.5 779,-240.5 669,-240.5"/>
<text text-anchor="middle" x="712" y="-248.3" font-family="Times New Roman,serif" font-size="14.00">identificador</text>
<polyline fill="none" stroke="black" points="755,-240.5 755,-263.5 "/>
<text text-anchor="middle" x="767" y="-248.3" font-family="Times New Roman,serif" font-size="14.00">b</text>
</g>
<!-- n0x600085ff0&#45;&gt;n0x600085fd0 -->
<g id="edge19" class="edge"><title>n0x600085ff0&#45;&gt;n0x600085fd0</title>
<path fill="none" stroke="black" d="M724,-300.362C724,-292.922 724,-282.743 724,-273.728"/>
<polygon fill="black" stroke="black" points="727.5,-273.571 724,-263.571 720.5,-273.571 727.5,-273.571"/>
</g>
<!-- n0x600086050 -->
<g id="node22" class="node"><title>n0x600086050</title>
<polygon fill="none" stroke="black" points="799.5,-240.5 799.5,-263.5 872.5,-263.5 872.5,-240.5 799.5,-240.5"/>
<text text-anchor="middle" x="826" y="-248.3" font-family="Times New Roman,serif" font-size="14.00">escrita</text>
<polyline fill="none" stroke="black" points="852.5,-240.5 852.5,-263.5 "/>
<text text-anchor="middle" x="862.5" y="-248.3" font-family="Times New Roman,serif" font-size="14.00"> </text>
</g>
<!-- n0x6000861f0&#45;&gt;n0x600086050 -->
<g id="edge21" class="edge"><title>n0x6000861f0&#45;&gt;n0x600086050</title>
<path fill="none" stroke="black" d="M837.633,-300.362C837.377,-292.922 837.026,-282.743 836.715,-273.728"/>
<polygon fill="black" stroke="black" points="840.207,-273.444 836.365,-263.571 833.211,-273.685 840.207,-273.444"/>
</g>
<!-- n0x6000861d0 -->
<g id="node24" class="node"><title>n0x6000861d0</title>
<polygon fill="none" stroke="black" points="890.5,-240.5 890.5,-263.5 1011.5,-263.5 1011.5,-240.5 890.5,-240.5"/>
<text text-anchor="middle" x="941" y="-248.3" font-family="Times New Roman,serif" font-size="14.00">lista comandos</text>
<polyline fill="none" stroke="black" points="991.5,-240.5 991.5,-263.5 "/>
<text text-anchor="middle" x="1001.5" y="-248.3" font-family="Times New Roman,serif" font-size="14.00"> </text>
</g>
<!-- n0x6000861f0&#45;&gt;n0x6000861d0 -->
<g id="edge23" class="edge"><title>n0x6000861f0&#45;&gt;n0x6000861d0</title>
<path fill="none" stroke="black" d="M858.463,-300.497C876.033,-291.479 901.582,-278.365 921.385,-268.201"/>
<polygon fill="black" stroke="black" points="923.009,-271.301 930.307,-263.621 919.812,-265.074 923.009,-271.301"/>
</g>
<!-- n0x600086030 -->
<g id="node23" class="node"><title>n0x600086030</title>
<polygon fill="none" stroke="black" points="783,-180.5 783,-203.5 889,-203.5 889,-180.5 783,-180.5"/>
<text text-anchor="middle" x="805" y="-188.3" font-family="Times New Roman,serif" font-size="14.00">texto</text>
<polyline fill="none" stroke="black" points="827,-180.5 827,-203.5 "/>
<text text-anchor="middle" x="858" y="-188.3" font-family="Times New Roman,serif" font-size="14.00">_const2</text>
</g>
<!-- n0x600086050&#45;&gt;n0x600086030 -->
<g id="edge22" class="edge"><title>n0x600086050&#45;&gt;n0x600086030</title>
<path fill="none" stroke="black" d="M836,-240.362C836,-232.922 836,-222.743 836,-213.728"/>
<polygon fill="black" stroke="black" points="839.5,-213.571 836,-203.571 832.5,-213.571 839.5,-213.571"/>
</g>
<!-- n0x6000861b0 -->
<g id="node25" class="node"><title>n0x6000861b0</title>
<polygon fill="none" stroke="black" points="912,-180.5 912,-203.5 990,-203.5 990,-180.5 912,-180.5"/>
<text text-anchor="middle" x="941" y="-188.3" font-family="Times New Roman,serif" font-size="14.00">selecao</text>
<polyline fill="none" stroke="black" points="970,-180.5 970,-203.5 "/>
<text text-anchor="middle" x="980" y="-188.3" font-family="Times New Roman,serif" font-size="14.00"> </text>
</g>
<!-- n0x6000861d0&#45;&gt;n0x6000861b0 -->
<g id="edge24" class="edge"><title>n0x6000861d0&#45;&gt;n0x6000861b0</title>
<path fill="none" stroke="black" d="M951,-240.362C951,-232.922 951,-222.743 951,-213.728"/>
<polygon fill="black" stroke="black" points="954.5,-213.571 951,-203.571 947.5,-213.571 954.5,-213.571"/>
</g>
<!-- n0x6000860d0 -->
<g id="node26" class="node"><title>n0x6000860d0</title>
<polygon fill="none" stroke="black" points="747.5,-120.5 747.5,-143.5 872.5,-143.5 872.5,-120.5 747.5,-120.5"/>
<text text-anchor="middle" x="800" y="-128.3" font-family="Times New Roman,serif" font-size="14.00">negacao (NAO)</text>
<polyline fill="none" stroke="black" points="852.5,-120.5 852.5,-143.5 "/>
<text text-anchor="middle" x="862.5" y="-128.3" font-family="Times New Roman,serif" font-size="14.00"> </text>
</g>
<!-- n0x6000861b0&#45;&gt;n0x6000860d0 -->
<g id="edge25" class="edge"><title>n0x6000861b0&#45;&gt;n0x6000860d0</title>
<path fill="none" stroke="black" d="M925.466,-180.497C903.047,-171.275 870.215,-157.769 845.287,-147.515"/>
<polygon fill="black" stroke="black" points="846.4,-144.189 835.821,-143.621 843.737,-150.662 846.4,-144.189"/>
</g>
<!-- n0x600086130 -->
<g id="node30" class="node"><title>n0x600086130</title>
<polygon fill="none" stroke="black" points="890.5,-120.5 890.5,-143.5 1011.5,-143.5 1011.5,-120.5 890.5,-120.5"/>
<text text-anchor="middle" x="941" y="-128.3" font-family="Times New Roman,serif" font-size="14.00">lista comandos</text>
<polyline fill="none" stroke="black" points="991.5,-120.5 991.5,-143.5 "/>
<text text-anchor="middle" x="1001.5" y="-128.3" font-family="Times New Roman,serif" font-size="14.00"> </text>
</g>
<!-- n0x6000861b0&#45;&gt;n0x600086130 -->
<g id="edge29" class="edge"><title>n0x6000861b0&#45;&gt;n0x600086130</title>
<path fill="none" stroke="black" d="M951,-180.362C951,-172.922 951,-162.743 951,-153.728"/>
<polygon fill="black" stroke="black" points="954.5,-153.571 951,-143.571 947.5,-153.571 954.5,-153.571"/>
</g>
<!-- n0x600086190 -->
<g id="node33" class="node"><title>n0x600086190</title>
<polygon fill="none" stroke="black" points="1029.5,-120.5 1029.5,-143.5 1150.5,-143.5 1150.5,-120.5 1029.5,-120.5"/>
<text text-anchor="middle" x="1080" y="-128.3" font-family="Times New Roman,serif" font-size="14.00">lista comandos</text>
<polyline fill="none" stroke="black" points="1130.5,-120.5 1130.5,-143.5 "/>
<text text-anchor="middle" x="1140.5" y="-128.3" font-family="Times New Roman,serif" font-size="14.00"> </text>
</g>
<!-- n0x6000861b0&#45;&gt;n0x600086190 -->
<g id="edge32" class="edge"><title>n0x6000861b0&#45;&gt;n0x600086190</title>
<path fill="none" stroke="black" d="M976.172,-180.497C998.273,-171.275 1030.64,-157.769 1055.21,-147.515"/>
<polygon fill="black" stroke="black" points="1056.66,-150.702 1064.55,-143.621 1053.97,-144.242 1056.66,-150.702"/>
</g>
<!-- n0x6000860b0 -->
<g id="node27" class="node"><title>n0x6000860b0</title>
<polygon fill="none" stroke="black" points="748,-60.5 748,-83.5 872,-83.5 872,-60.5 748,-60.5"/>
<text text-anchor="middle" x="800" y="-68.3" font-family="Times New Roman,serif" font-size="14.00">compara menor</text>
<polyline fill="none" stroke="black" points="852,-60.5 852,-83.5 "/>
<text text-anchor="middle" x="862" y="-68.3" font-family="Times New Roman,serif" font-size="14.00"> </text>
</g>
<!-- n0x6000860d0&#45;&gt;n0x6000860b0 -->
<g id="edge26" class="edge"><title>n0x6000860d0&#45;&gt;n0x6000860b0</title>
<path fill="none" stroke="black" d="M810,-120.362C810,-112.922 810,-102.743 810,-93.7276"/>
<polygon fill="black" stroke="black" points="813.5,-93.5706 810,-83.5707 806.5,-93.5707 813.5,-93.5706"/>
</g>
<!-- n0x600086070 -->
<g id="node28" class="node"><title>n0x600086070</title>
<polygon fill="none" stroke="black" points="688,-0.5 688,-23.5 770,-23.5 770,-0.5 688,-0.5"/>
<text text-anchor="middle" x="717.5" y="-8.3" font-family="Times New Roman,serif" font-size="14.00">variavel</text>
<polyline fill="none" stroke="black" points="747,-0.5 747,-23.5 "/>
<text text-anchor="middle" x="758.5" y="-8.3" font-family="Times New Roman,serif" font-size="14.00">a</text>
</g>
<!-- n0x6000860b0&#45;&gt;n0x600086070 -->
<g id="edge27" class="edge"><title>n0x6000860b0&#45;&gt;n0x600086070</title>
<path fill="none" stroke="black" d="M795.143,-60.3619C783.154,-51.7773 766.073,-39.5459 752.272,-29.6636"/>
<polygon fill="black" stroke="black" points="753.931,-26.5469 743.762,-23.5707 749.855,-32.2383 753.931,-26.5469"/>
</g>
<!-- n0x600086090 -->
<g id="node29" class="node"><title>n0x600086090</title>
<polygon fill="none" stroke="black" points="788.5,-0.5 788.5,-23.5 871.5,-23.5 871.5,-0.5 788.5,-0.5"/>
<text text-anchor="middle" x="818" y="-8.3" font-family="Times New Roman,serif" font-size="14.00">variavel</text>
<polyline fill="none" stroke="black" points="847.5,-0.5 847.5,-23.5 "/>
<text text-anchor="middle" x="859.5" y="-8.3" font-family="Times New Roman,serif" font-size="14.00">b</text>
</g>
<!-- n0x6000860b0&#45;&gt;n0x600086090 -->
<g id="edge28" class="edge"><title>n0x6000860b0&#45;&gt;n0x600086090</title>
<path fill="none" stroke="black" d="M813.668,-60.3619C816.29,-52.7584 819.899,-42.294 823.057,-33.1349"/>
<polygon fill="black" stroke="black" points="826.404,-34.1654 826.355,-23.5707 819.786,-31.8834 826.404,-34.1654"/>
</g>
<!-- n0x600086110 -->
<g id="node31" class="node"><title>n0x600086110</title>
<polygon fill="none" stroke="black" points="914.5,-60.5 914.5,-83.5 987.5,-83.5 987.5,-60.5 914.5,-60.5"/>
<text text-anchor="middle" x="941" y="-68.3" font-family="Times New Roman,serif" font-size="14.00">escrita</text>
<polyline fill="none" stroke="black" points="967.5,-60.5 967.5,-83.5 "/>
<text text-anchor="middle" x="977.5" y="-68.3" font-family="Times New Roman,serif" font-size="14.00"> </text>
</g>
<!-- n0x600086130&#45;&gt;n0x600086110 -->
<g id="edge30" class="edge"><title>n0x600086130&#45;&gt;n0x600086110</title>
<path fill="none" stroke="black" d="M951,-120.362C951,-112.922 951,-102.743 951,-93.7276"/>
<polygon fill="black" stroke="black" points="954.5,-93.5706 951,-83.5707 947.5,-93.5707 954.5,-93.5706"/>
</g>
<!-- n0x6000860f0 -->
<g id="node32" class="node"><title>n0x6000860f0</title>
<polygon fill="none" stroke="black" points="910,-0.5 910,-23.5 992,-23.5 992,-0.5 910,-0.5"/>
<text text-anchor="middle" x="939.5" y="-8.3" font-family="Times New Roman,serif" font-size="14.00">variavel</text>
<polyline fill="none" stroke="black" points="969,-0.5 969,-23.5 "/>
<text text-anchor="middle" x="980.5" y="-8.3" font-family="Times New Roman,serif" font-size="14.00">a</text>
</g>
<!-- n0x600086110&#45;&gt;n0x6000860f0 -->
<g id="edge31" class="edge"><title>n0x600086110&#45;&gt;n0x6000860f0</title>
<path fill="none" stroke="black" d="M951,-60.3619C951,-52.9219 951,-42.7427 951,-33.7276"/>
<polygon fill="black" stroke="black" points="954.5,-33.5706 951,-23.5707 947.5,-33.5707 954.5,-33.5706"/>
</g>
<!-- n0x600086170 -->
<g id="node34" class="node"><title>n0x600086170</title>
<polygon fill="none" stroke="black" points="1053.5,-60.5 1053.5,-83.5 1126.5,-83.5 1126.5,-60.5 1053.5,-60.5"/>
<text text-anchor="middle" x="1080" y="-68.3" font-family="Times New Roman,serif" font-size="14.00">escrita</text>
<polyline fill="none" stroke="black" points="1106.5,-60.5 1106.5,-83.5 "/>
<text text-anchor="middle" x="1116.5" y="-68.3" font-family="Times New Roman,serif" font-size="14.00"> </text>
</g>
<!-- n0x600086190&#45;&gt;n0x600086170 -->
<g id="edge33" class="edge"><title>n0x600086190&#45;&gt;n0x600086170</title>
<path fill="none" stroke="black" d="M1090,-120.362C1090,-112.922 1090,-102.743 1090,-93.7276"/>
<polygon fill="black" stroke="black" points="1093.5,-93.5706 1090,-83.5707 1086.5,-93.5707 1093.5,-93.5706"/>
</g>
<!-- n0x600086150 -->
<g id="node35" class="node"><title>n0x600086150</title>
<polygon fill="none" stroke="black" points="1048.5,-0.5 1048.5,-23.5 1131.5,-23.5 1131.5,-0.5 1048.5,-0.5"/>
<text text-anchor="middle" x="1078" y="-8.3" font-family="Times New Roman,serif" font-size="14.00">variavel</text>
<polyline fill="none" stroke="black" points="1107.5,-0.5 1107.5,-23.5 "/>
<text text-anchor="middle" x="1119.5" y="-8.3" font-family="Times New Roman,serif" font-size="14.00">b</text>
</g>
<!-- n0x600086170&#45;&gt;n0x600086150 -->
<g id="edge34" class="edge"><title>n0x600086170&#45;&gt;n0x600086150</title>
<path fill="none" stroke="black" d="M1090,-60.3619C1090,-52.9219 1090,-42.7427 1090,-33.7276"/>
<polygon fill="black" stroke="black" points="1093.5,-33.5706 1090,-23.5707 1086.5,-33.5707 1093.5,-33.5706"/>
</g>
</g>
</svg>
