<?xml version="1.0" encoding="UTF-8" standalone="no"?>
<!DOCTYPE svg PUBLIC "-//W3C//DTD SVG 1.1//EN"
 "http://www.w3.org/Graphics/SVG/1.1/DTD/svg11.dtd">
<!-- Generated by graphviz version 2.40.1 (0)
 -->
<!-- Title: %3 Pages: 1 -->
<svg width="1462pt" height="632pt"
 viewBox="0.00 0.00 1461.50 632.00" xmlns="http://www.w3.org/2000/svg" xmlns:xlink="http://www.w3.org/1999/xlink">
<g id="graph0" class="graph" transform="scale(1 1) rotate(0) translate(4 628)">
<title>%3</title>
<polygon fill="#ffffff" stroke="transparent" points="-4,4 -4,-628 1457.5,-628 1457.5,4 -4,4"/>
<!-- n0x736d90 -->
<g id="node1" class="node">
<title>n0x736d90</title>
<polygon fill="none" stroke="#000000" points="239,-600.5 239,-623.5 346,-623.5 346,-600.5 239,-600.5"/>
<text text-anchor="middle" x="282" y="-608.3" font-family="Times,serif" font-size="14.00" fill="#000000">programa</text>
<polyline fill="none" stroke="#000000" points="325,-600.5 325,-623.5 "/>
<text text-anchor="middle" x="335.5" y="-608.3" font-family="Times,serif" font-size="14.00" fill="#000000"> </text>
</g>
<!-- n0x7362f0 -->
<g id="node2" class="node">
<title>n0x7362f0</title>
<polygon fill="none" stroke="#000000" points="0,-540.5 0,-563.5 171,-563.5 171,-540.5 0,-540.5"/>
<text text-anchor="middle" x="56.5" y="-548.3" font-family="Times,serif" font-size="14.00" fill="#000000">identificador:</text>
<polyline fill="none" stroke="#000000" points="113,-540.5 113,-563.5 "/>
<text text-anchor="middle" x="142" y="-548.3" font-family="Times,serif" font-size="14.00" fill="#000000">maior</text>
</g>
<!-- n0x736d90&#45;&gt;n0x7362f0 -->
<g id="edge1" class="edge">
<title>n0x736d90&#45;&gt;n0x7362f0</title>
<path fill="none" stroke="#000000" d="M252.5883,-600.4314C219.0834,-590.7198 171.0631,-576.8009 135.093,-566.3748"/>
<polygon fill="#000000" stroke="#000000" points="135.8682,-562.9555 125.2892,-563.5331 133.9194,-569.6788 135.8682,-562.9555"/>
</g>
<!-- n0x7364d0 -->
<g id="node3" class="node">
<title>n0x7364d0</title>
<polygon fill="none" stroke="#000000" points="189.5,-540.5 189.5,-563.5 395.5,-563.5 395.5,-540.5 189.5,-540.5"/>
<text text-anchor="middle" x="282" y="-548.3" font-family="Times,serif" font-size="14.00" fill="#000000">declaracao de variaveis</text>
<polyline fill="none" stroke="#000000" points="374.5,-540.5 374.5,-563.5 "/>
<text text-anchor="middle" x="385" y="-548.3" font-family="Times,serif" font-size="14.00" fill="#000000"> </text>
</g>
<!-- n0x736d90&#45;&gt;n0x7364d0 -->
<g id="edge7" class="edge">
<title>n0x736d90&#45;&gt;n0x7364d0</title>
<path fill="none" stroke="#000000" d="M292.5,-600.4314C292.5,-592.8779 292.5,-582.7793 292.5,-573.7585"/>
<polygon fill="#000000" stroke="#000000" points="296.0001,-573.5331 292.5,-563.5331 289.0001,-573.5331 296.0001,-573.5331"/>
</g>
<!-- n0x736d40 -->
<g id="node9" class="node">
<title>n0x736d40</title>
<polygon fill="none" stroke="#000000" points="414,-540.5 414,-563.5 559,-563.5 559,-540.5 414,-540.5"/>
<text text-anchor="middle" x="476" y="-548.3" font-family="Times,serif" font-size="14.00" fill="#000000">lista comandos</text>
<polyline fill="none" stroke="#000000" points="538,-540.5 538,-563.5 "/>
<text text-anchor="middle" x="548.5" y="-548.3" font-family="Times,serif" font-size="14.00" fill="#000000"> </text>
</g>
<!-- n0x736d90&#45;&gt;n0x736d40 -->
<g id="edge34" class="edge">
<title>n0x736d90&#45;&gt;n0x736d40</title>
<path fill="none" stroke="#000000" d="M329.9052,-600.4314C361.1717,-590.7613 405.926,-576.9198 439.5888,-566.5086"/>
<polygon fill="#000000" stroke="#000000" points="440.6903,-569.8316 449.2097,-563.5331 438.622,-563.1441 440.6903,-569.8316"/>
</g>
<!-- n0x736340 -->
<g id="node4" class="node">
<title>n0x736340</title>
<polygon fill="none" stroke="#000000" points="99,-480.5 99,-503.5 212,-503.5 212,-480.5 99,-480.5"/>
<text text-anchor="middle" x="123.5" y="-488.3" font-family="Times,serif" font-size="14.00" fill="#000000">tipo:</text>
<polyline fill="none" stroke="#000000" points="148,-480.5 148,-503.5 "/>
<text text-anchor="middle" x="180" y="-488.3" font-family="Times,serif" font-size="14.00" fill="#000000">inteiro</text>
</g>
<!-- n0x7364d0&#45;&gt;n0x736340 -->
<g id="edge2" class="edge">
<title>n0x7364d0&#45;&gt;n0x736340</title>
<path fill="none" stroke="#000000" d="M266.085,-540.4314C244.7631,-531.0933 214.5593,-517.8654 191.1037,-507.5929"/>
<polygon fill="#000000" stroke="#000000" points="192.398,-504.3388 181.8339,-503.5331 189.5898,-510.7509 192.398,-504.3388"/>
</g>
<!-- n0x736430 -->
<g id="node5" class="node">
<title>n0x736430</title>
<polygon fill="none" stroke="#000000" points="230,-480.5 230,-503.5 367,-503.5 367,-480.5 230,-480.5"/>
<text text-anchor="middle" x="288" y="-488.3" font-family="Times,serif" font-size="14.00" fill="#000000">lista variaveis</text>
<polyline fill="none" stroke="#000000" points="346,-480.5 346,-503.5 "/>
<text text-anchor="middle" x="356.5" y="-488.3" font-family="Times,serif" font-size="14.00" fill="#000000"> </text>
</g>
<!-- n0x7364d0&#45;&gt;n0x736430 -->
<g id="edge6" class="edge">
<title>n0x7364d0&#45;&gt;n0x736430</title>
<path fill="none" stroke="#000000" d="M293.6569,-540.4314C294.4122,-532.8779 295.4221,-522.7793 296.3242,-513.7585"/>
<polygon fill="#000000" stroke="#000000" points="299.8342,-513.8318 297.3467,-503.5331 292.8689,-513.1352 299.8342,-513.8318"/>
</g>
<!-- n0x736390 -->
<g id="node6" class="node">
<title>n0x736390</title>
<polygon fill="none" stroke="#000000" points="85,-420.5 85,-443.5 222,-443.5 222,-420.5 85,-420.5"/>
<text text-anchor="middle" x="143" y="-428.3" font-family="Times,serif" font-size="14.00" fill="#000000">lista variaveis</text>
<polyline fill="none" stroke="#000000" points="201,-420.5 201,-443.5 "/>
<text text-anchor="middle" x="211.5" y="-428.3" font-family="Times,serif" font-size="14.00" fill="#000000"> </text>
</g>
<!-- n0x736430&#45;&gt;n0x736390 -->
<g id="edge4" class="edge">
<title>n0x736430&#45;&gt;n0x736390</title>
<path fill="none" stroke="#000000" d="M270.5425,-480.4314C247.8753,-471.0518 215.7236,-457.7477 190.8521,-447.4561"/>
<polygon fill="#000000" stroke="#000000" points="191.9501,-444.1226 181.3716,-443.5331 189.2736,-450.5907 191.9501,-444.1226"/>
</g>
<!-- n0x736480 -->
<g id="node8" class="node">
<title>n0x736480</title>
<polygon fill="none" stroke="#000000" points="240,-420.5 240,-443.5 379,-443.5 379,-420.5 240,-420.5"/>
<text text-anchor="middle" x="296.5" y="-428.3" font-family="Times,serif" font-size="14.00" fill="#000000">identificador:</text>
<polyline fill="none" stroke="#000000" points="353,-420.5 353,-443.5 "/>
<text text-anchor="middle" x="366" y="-428.3" font-family="Times,serif" font-size="14.00" fill="#000000">b</text>
</g>
<!-- n0x736430&#45;&gt;n0x736480 -->
<g id="edge5" class="edge">
<title>n0x736430&#45;&gt;n0x736480</title>
<path fill="none" stroke="#000000" d="M300.6209,-480.4314C302.0209,-472.7949 303.8979,-462.5571 305.5654,-453.4615"/>
<polygon fill="#000000" stroke="#000000" points="309.0249,-454.0003 307.3856,-443.5331 302.1396,-452.738 309.0249,-454.0003"/>
</g>
<!-- n0x7363e0 -->
<g id="node7" class="node">
<title>n0x7363e0</title>
<polygon fill="none" stroke="#000000" points="84.5,-360.5 84.5,-383.5 222.5,-383.5 222.5,-360.5 84.5,-360.5"/>
<text text-anchor="middle" x="141" y="-368.3" font-family="Times,serif" font-size="14.00" fill="#000000">identificador:</text>
<polyline fill="none" stroke="#000000" points="197.5,-360.5 197.5,-383.5 "/>
<text text-anchor="middle" x="210" y="-368.3" font-family="Times,serif" font-size="14.00" fill="#000000">a</text>
</g>
<!-- n0x736390&#45;&gt;n0x7363e0 -->
<g id="edge3" class="edge">
<title>n0x736390&#45;&gt;n0x7363e0</title>
<path fill="none" stroke="#000000" d="M153.5,-420.4314C153.5,-412.8779 153.5,-402.7793 153.5,-393.7585"/>
<polygon fill="#000000" stroke="#000000" points="157.0001,-393.5331 153.5,-383.5331 150.0001,-393.5331 157.0001,-393.5331"/>
</g>
<!-- n0x736570 -->
<g id="node10" class="node">
<title>n0x736570</title>
<polygon fill="none" stroke="#000000" points="438,-480.5 438,-503.5 525,-503.5 525,-480.5 438,-480.5"/>
<text text-anchor="middle" x="471" y="-488.3" font-family="Times,serif" font-size="14.00" fill="#000000">escrita</text>
<polyline fill="none" stroke="#000000" points="504,-480.5 504,-503.5 "/>
<text text-anchor="middle" x="514.5" y="-488.3" font-family="Times,serif" font-size="14.00" fill="#000000"> </text>
</g>
<!-- n0x736d40&#45;&gt;n0x736570 -->
<g id="edge9" class="edge">
<title>n0x736d40&#45;&gt;n0x736570</title>
<path fill="none" stroke="#000000" d="M485.5359,-540.4314C484.9065,-532.8779 484.0649,-522.7793 483.3132,-513.7585"/>
<polygon fill="#000000" stroke="#000000" points="486.7795,-513.2079 482.4611,-503.5331 479.8037,-513.7892 486.7795,-513.2079"/>
</g>
<!-- n0x736cf0 -->
<g id="node12" class="node">
<title>n0x736cf0</title>
<polygon fill="none" stroke="#000000" points="543,-480.5 543,-503.5 688,-503.5 688,-480.5 543,-480.5"/>
<text text-anchor="middle" x="605" y="-488.3" font-family="Times,serif" font-size="14.00" fill="#000000">lista comandos</text>
<polyline fill="none" stroke="#000000" points="667,-480.5 667,-503.5 "/>
<text text-anchor="middle" x="677.5" y="-488.3" font-family="Times,serif" font-size="14.00" fill="#000000"> </text>
</g>
<!-- n0x736d40&#45;&gt;n0x736cf0 -->
<g id="edge33" class="edge">
<title>n0x736d40&#45;&gt;n0x736cf0</title>
<path fill="none" stroke="#000000" d="M511.3725,-540.4314C531.2709,-531.1763 559.3845,-518.1002 581.3849,-507.8675"/>
<polygon fill="#000000" stroke="#000000" points="583.1127,-510.924 590.7039,-503.5331 580.1606,-504.5769 583.1127,-510.924"/>
</g>
<!-- n0x736520 -->
<g id="node11" class="node">
<title>n0x736520</title>
<polygon fill="none" stroke="#000000" points="419,-420.5 419,-443.5 544,-443.5 544,-420.5 419,-420.5"/>
<text text-anchor="middle" x="445.5" y="-428.3" font-family="Times,serif" font-size="14.00" fill="#000000">texto</text>
<polyline fill="none" stroke="#000000" points="472,-420.5 472,-443.5 "/>
<text text-anchor="middle" x="508" y="-428.3" font-family="Times,serif" font-size="14.00" fill="#000000">_const0</text>
</g>
<!-- n0x736570&#45;&gt;n0x736520 -->
<g id="edge8" class="edge">
<title>n0x736570&#45;&gt;n0x736520</title>
<path fill="none" stroke="#000000" d="M481.5,-480.4314C481.5,-472.8779 481.5,-462.7793 481.5,-453.7585"/>
<polygon fill="#000000" stroke="#000000" points="485.0001,-453.5331 481.5,-443.5331 478.0001,-453.5331 485.0001,-453.5331"/>
</g>
<!-- n0x7365c0 -->
<g id="node13" class="node">
<title>n0x7365c0</title>
<polygon fill="none" stroke="#000000" points="568,-420.5 568,-443.5 653,-443.5 653,-420.5 568,-420.5"/>
<text text-anchor="middle" x="600" y="-428.3" font-family="Times,serif" font-size="14.00" fill="#000000">leitura</text>
<polyline fill="none" stroke="#000000" points="632,-420.5 632,-443.5 "/>
<text text-anchor="middle" x="642.5" y="-428.3" font-family="Times,serif" font-size="14.00" fill="#000000"> </text>
</g>
<!-- n0x736cf0&#45;&gt;n0x7365c0 -->
<g id="edge11" class="edge">
<title>n0x736cf0&#45;&gt;n0x7365c0</title>
<path fill="none" stroke="#000000" d="M614.5359,-480.4314C613.9065,-472.8779 613.0649,-462.7793 612.3132,-453.7585"/>
<polygon fill="#000000" stroke="#000000" points="615.7795,-453.2079 611.4611,-443.5331 608.8037,-453.7892 615.7795,-453.2079"/>
</g>
<!-- n0x736ca0 -->
<g id="node15" class="node">
<title>n0x736ca0</title>
<polygon fill="none" stroke="#000000" points="671,-420.5 671,-443.5 816,-443.5 816,-420.5 671,-420.5"/>
<text text-anchor="middle" x="733" y="-428.3" font-family="Times,serif" font-size="14.00" fill="#000000">lista comandos</text>
<polyline fill="none" stroke="#000000" points="795,-420.5 795,-443.5 "/>
<text text-anchor="middle" x="805.5" y="-428.3" font-family="Times,serif" font-size="14.00" fill="#000000"> </text>
</g>
<!-- n0x736cf0&#45;&gt;n0x736ca0 -->
<g id="edge32" class="edge">
<title>n0x736cf0&#45;&gt;n0x736ca0</title>
<path fill="none" stroke="#000000" d="M640.1797,-480.4314C659.9238,-471.1763 687.8195,-458.1002 709.6494,-447.8675"/>
<polygon fill="#000000" stroke="#000000" points="711.327,-450.9466 718.8961,-443.5331 708.3559,-444.6084 711.327,-450.9466"/>
</g>
<!-- n0x736610 -->
<g id="node14" class="node">
<title>n0x736610</title>
<polygon fill="none" stroke="#000000" points="541.5,-360.5 541.5,-383.5 679.5,-383.5 679.5,-360.5 541.5,-360.5"/>
<text text-anchor="middle" x="598" y="-368.3" font-family="Times,serif" font-size="14.00" fill="#000000">identificador:</text>
<polyline fill="none" stroke="#000000" points="654.5,-360.5 654.5,-383.5 "/>
<text text-anchor="middle" x="667" y="-368.3" font-family="Times,serif" font-size="14.00" fill="#000000">a</text>
</g>
<!-- n0x7365c0&#45;&gt;n0x736610 -->
<g id="edge10" class="edge">
<title>n0x7365c0&#45;&gt;n0x736610</title>
<path fill="none" stroke="#000000" d="M610.5,-420.4314C610.5,-412.8779 610.5,-402.7793 610.5,-393.7585"/>
<polygon fill="#000000" stroke="#000000" points="614.0001,-393.5331 610.5,-383.5331 607.0001,-393.5331 614.0001,-393.5331"/>
</g>
<!-- n0x7366b0 -->
<g id="node16" class="node">
<title>n0x7366b0</title>
<polygon fill="none" stroke="#000000" points="699,-360.5 699,-383.5 786,-383.5 786,-360.5 699,-360.5"/>
<text text-anchor="middle" x="732" y="-368.3" font-family="Times,serif" font-size="14.00" fill="#000000">escrita</text>
<polyline fill="none" stroke="#000000" points="765,-360.5 765,-383.5 "/>
<text text-anchor="middle" x="775.5" y="-368.3" font-family="Times,serif" font-size="14.00" fill="#000000"> </text>
</g>
<!-- n0x736ca0&#45;&gt;n0x7366b0 -->
<g id="edge13" class="edge">
<title>n0x736ca0&#45;&gt;n0x7366b0</title>
<path fill="none" stroke="#000000" d="M743.3072,-420.4314C743.1813,-412.8779 743.013,-402.7793 742.8626,-393.7585"/>
<polygon fill="#000000" stroke="#000000" points="746.3585,-393.4733 742.6922,-383.5331 739.3594,-393.5901 746.3585,-393.4733"/>
</g>
<!-- n0x736c50 -->
<g id="node18" class="node">
<title>n0x736c50</title>
<polygon fill="none" stroke="#000000" points="804,-360.5 804,-383.5 949,-383.5 949,-360.5 804,-360.5"/>
<text text-anchor="middle" x="866" y="-368.3" font-family="Times,serif" font-size="14.00" fill="#000000">lista comandos</text>
<polyline fill="none" stroke="#000000" points="928,-360.5 928,-383.5 "/>
<text text-anchor="middle" x="938.5" y="-368.3" font-family="Times,serif" font-size="14.00" fill="#000000"> </text>
</g>
<!-- n0x736ca0&#45;&gt;n0x736c50 -->
<g id="edge31" class="edge">
<title>n0x736ca0&#45;&gt;n0x736c50</title>
<path fill="none" stroke="#000000" d="M769.1437,-420.4314C789.7511,-411.1348 818.9046,-397.9829 841.6319,-387.73"/>
<polygon fill="#000000" stroke="#000000" points="843.2589,-390.8357 850.935,-383.5331 840.3803,-384.455 843.2589,-390.8357"/>
</g>
<!-- n0x736660 -->
<g id="node17" class="node">
<title>n0x736660</title>
<polygon fill="none" stroke="#000000" points="680,-300.5 680,-323.5 805,-323.5 805,-300.5 680,-300.5"/>
<text text-anchor="middle" x="706.5" y="-308.3" font-family="Times,serif" font-size="14.00" fill="#000000">texto</text>
<polyline fill="none" stroke="#000000" points="733,-300.5 733,-323.5 "/>
<text text-anchor="middle" x="769" y="-308.3" font-family="Times,serif" font-size="14.00" fill="#000000">_const1</text>
</g>
<!-- n0x7366b0&#45;&gt;n0x736660 -->
<g id="edge12" class="edge">
<title>n0x7366b0&#45;&gt;n0x736660</title>
<path fill="none" stroke="#000000" d="M742.5,-360.4314C742.5,-352.8779 742.5,-342.7793 742.5,-333.7585"/>
<polygon fill="#000000" stroke="#000000" points="746.0001,-333.5331 742.5,-323.5331 739.0001,-333.5331 746.0001,-333.5331"/>
</g>
<!-- n0x736700 -->
<g id="node19" class="node">
<title>n0x736700</title>
<polygon fill="none" stroke="#000000" points="828,-300.5 828,-323.5 913,-323.5 913,-300.5 828,-300.5"/>
<text text-anchor="middle" x="860" y="-308.3" font-family="Times,serif" font-size="14.00" fill="#000000">leitura</text>
<polyline fill="none" stroke="#000000" points="892,-300.5 892,-323.5 "/>
<text text-anchor="middle" x="902.5" y="-308.3" font-family="Times,serif" font-size="14.00" fill="#000000"> </text>
</g>
<!-- n0x736c50&#45;&gt;n0x736700 -->
<g id="edge15" class="edge">
<title>n0x736c50&#45;&gt;n0x736700</title>
<path fill="none" stroke="#000000" d="M875.3431,-360.4314C874.5878,-352.8779 873.5779,-342.7793 872.6758,-333.7585"/>
<polygon fill="#000000" stroke="#000000" points="876.1311,-333.1352 871.6533,-323.5331 869.1658,-333.8318 876.1311,-333.1352"/>
</g>
<!-- n0x736c00 -->
<g id="node21" class="node">
<title>n0x736c00</title>
<polygon fill="none" stroke="#000000" points="931,-300.5 931,-323.5 1076,-323.5 1076,-300.5 931,-300.5"/>
<text text-anchor="middle" x="993" y="-308.3" font-family="Times,serif" font-size="14.00" fill="#000000">lista comandos</text>
<polyline fill="none" stroke="#000000" points="1055,-300.5 1055,-323.5 "/>
<text text-anchor="middle" x="1065.5" y="-308.3" font-family="Times,serif" font-size="14.00" fill="#000000"> </text>
</g>
<!-- n0x736c50&#45;&gt;n0x736c00 -->
<g id="edge30" class="edge">
<title>n0x736c50&#45;&gt;n0x736c00</title>
<path fill="none" stroke="#000000" d="M900.9869,-360.4314C920.5767,-351.1763 948.2545,-338.1002 969.9138,-327.8675"/>
<polygon fill="#000000" stroke="#000000" points="971.5417,-330.9694 979.0883,-323.5331 968.5515,-324.6402 971.5417,-330.9694"/>
</g>
<!-- n0x736750 -->
<g id="node20" class="node">
<title>n0x736750</title>
<polygon fill="none" stroke="#000000" points="801,-240.5 801,-263.5 940,-263.5 940,-240.5 801,-240.5"/>
<text text-anchor="middle" x="857.5" y="-248.3" font-family="Times,serif" font-size="14.00" fill="#000000">identificador:</text>
<polyline fill="none" stroke="#000000" points="914,-240.5 914,-263.5 "/>
<text text-anchor="middle" x="927" y="-248.3" font-family="Times,serif" font-size="14.00" fill="#000000">b</text>
</g>
<!-- n0x736700&#45;&gt;n0x736750 -->
<g id="edge14" class="edge">
<title>n0x736700&#45;&gt;n0x736750</title>
<path fill="none" stroke="#000000" d="M870.5,-300.4314C870.5,-292.8779 870.5,-282.7793 870.5,-273.7585"/>
<polygon fill="#000000" stroke="#000000" points="874.0001,-273.5331 870.5,-263.5331 867.0001,-273.5331 874.0001,-273.5331"/>
</g>
<!-- n0x7367f0 -->
<g id="node22" class="node">
<title>n0x7367f0</title>
<polygon fill="none" stroke="#000000" points="959,-240.5 959,-263.5 1046,-263.5 1046,-240.5 959,-240.5"/>
<text text-anchor="middle" x="992" y="-248.3" font-family="Times,serif" font-size="14.00" fill="#000000">escrita</text>
<polyline fill="none" stroke="#000000" points="1025,-240.5 1025,-263.5 "/>
<text text-anchor="middle" x="1035.5" y="-248.3" font-family="Times,serif" font-size="14.00" fill="#000000"> </text>
</g>
<!-- n0x736c00&#45;&gt;n0x7367f0 -->
<g id="edge17" class="edge">
<title>n0x736c00&#45;&gt;n0x7367f0</title>
<path fill="none" stroke="#000000" d="M1003.3072,-300.4314C1003.1813,-292.8779 1003.013,-282.7793 1002.8626,-273.7585"/>
<polygon fill="#000000" stroke="#000000" points="1006.3585,-273.4733 1002.6922,-263.5331 999.3594,-273.5901 1006.3585,-273.4733"/>
</g>
<!-- n0x736bb0 -->
<g id="node24" class="node">
<title>n0x736bb0</title>
<polygon fill="none" stroke="#000000" points="1064,-240.5 1064,-263.5 1209,-263.5 1209,-240.5 1064,-240.5"/>
<text text-anchor="middle" x="1126" y="-248.3" font-family="Times,serif" font-size="14.00" fill="#000000">lista comandos</text>
<polyline fill="none" stroke="#000000" points="1188,-240.5 1188,-263.5 "/>
<text text-anchor="middle" x="1198.5" y="-248.3" font-family="Times,serif" font-size="14.00" fill="#000000"> </text>
</g>
<!-- n0x736c00&#45;&gt;n0x736bb0 -->
<g id="edge29" class="edge">
<title>n0x736c00&#45;&gt;n0x736bb0</title>
<path fill="none" stroke="#000000" d="M1029.1437,-300.4314C1049.7511,-291.1348 1078.9046,-277.9829 1101.6319,-267.73"/>
<polygon fill="#000000" stroke="#000000" points="1103.2589,-270.8357 1110.935,-263.5331 1100.3803,-264.455 1103.2589,-270.8357"/>
</g>
<!-- n0x7367a0 -->
<g id="node23" class="node">
<title>n0x7367a0</title>
<polygon fill="none" stroke="#000000" points="940,-180.5 940,-203.5 1065,-203.5 1065,-180.5 940,-180.5"/>
<text text-anchor="middle" x="966.5" y="-188.3" font-family="Times,serif" font-size="14.00" fill="#000000">texto</text>
<polyline fill="none" stroke="#000000" points="993,-180.5 993,-203.5 "/>
<text text-anchor="middle" x="1029" y="-188.3" font-family="Times,serif" font-size="14.00" fill="#000000">_const2</text>
</g>
<!-- n0x7367f0&#45;&gt;n0x7367a0 -->
<g id="edge16" class="edge">
<title>n0x7367f0&#45;&gt;n0x7367a0</title>
<path fill="none" stroke="#000000" d="M1002.5,-240.4314C1002.5,-232.8779 1002.5,-222.7793 1002.5,-213.7585"/>
<polygon fill="#000000" stroke="#000000" points="1006.0001,-213.5331 1002.5,-203.5331 999.0001,-213.5331 1006.0001,-213.5331"/>
</g>
<!-- n0x736b60 -->
<g id="node25" class="node">
<title>n0x736b60</title>
<polygon fill="none" stroke="#000000" points="1091,-180.5 1091,-203.5 1182,-203.5 1182,-180.5 1091,-180.5"/>
<text text-anchor="middle" x="1126" y="-188.3" font-family="Times,serif" font-size="14.00" fill="#000000">selecao</text>
<polyline fill="none" stroke="#000000" points="1161,-180.5 1161,-203.5 "/>
<text text-anchor="middle" x="1171.5" y="-188.3" font-family="Times,serif" font-size="14.00" fill="#000000"> </text>
</g>
<!-- n0x736bb0&#45;&gt;n0x736b60 -->
<g id="edge28" class="edge">
<title>n0x736bb0&#45;&gt;n0x736b60</title>
<path fill="none" stroke="#000000" d="M1136.5,-240.4314C1136.5,-232.8779 1136.5,-222.7793 1136.5,-213.7585"/>
<polygon fill="#000000" stroke="#000000" points="1140.0001,-213.5331 1136.5,-203.5331 1133.0001,-213.5331 1140.0001,-213.5331"/>
</g>
<!-- n0x736b10 -->
<g id="node26" class="node">
<title>n0x736b10</title>
<polygon fill="none" stroke="#000000" points="901,-120.5 901,-143.5 1046,-143.5 1046,-120.5 901,-120.5"/>
<text text-anchor="middle" x="963" y="-128.3" font-family="Times,serif" font-size="14.00" fill="#000000">lista comandos</text>
<polyline fill="none" stroke="#000000" points="1025,-120.5 1025,-143.5 "/>
<text text-anchor="middle" x="1035.5" y="-128.3" font-family="Times,serif" font-size="14.00" fill="#000000"> </text>
</g>
<!-- n0x736b60&#45;&gt;n0x736b10 -->
<g id="edge20" class="edge">
<title>n0x736b60&#45;&gt;n0x736b10</title>
<path fill="none" stroke="#000000" d="M1105.072,-180.4314C1079.2526,-170.9273 1042.4865,-157.3938 1014.3799,-147.0478"/>
<polygon fill="#000000" stroke="#000000" points="1015.425,-143.703 1004.8316,-143.5331 1013.0069,-150.2721 1015.425,-143.703"/>
</g>
<!-- n0x736a20 -->
<g id="node29" class="node">
<title>n0x736a20</title>
<polygon fill="none" stroke="#000000" points="1064,-120.5 1064,-143.5 1209,-143.5 1209,-120.5 1064,-120.5"/>
<text text-anchor="middle" x="1126" y="-128.3" font-family="Times,serif" font-size="14.00" fill="#000000">lista comandos</text>
<polyline fill="none" stroke="#000000" points="1188,-120.5 1188,-143.5 "/>
<text text-anchor="middle" x="1198.5" y="-128.3" font-family="Times,serif" font-size="14.00" fill="#000000"> </text>
</g>
<!-- n0x736b60&#45;&gt;n0x736a20 -->
<g id="edge23" class="edge">
<title>n0x736b60&#45;&gt;n0x736a20</title>
<path fill="none" stroke="#000000" d="M1136.5,-180.4314C1136.5,-172.8779 1136.5,-162.7793 1136.5,-153.7585"/>
<polygon fill="#000000" stroke="#000000" points="1140.0001,-153.5331 1136.5,-143.5331 1133.0001,-153.5331 1140.0001,-153.5331"/>
</g>
<!-- n0x736930 -->
<g id="node32" class="node">
<title>n0x736930</title>
<polygon fill="none" stroke="#000000" points="1227,-120.5 1227,-143.5 1374,-143.5 1374,-120.5 1227,-120.5"/>
<text text-anchor="middle" x="1290" y="-128.3" font-family="Times,serif" font-size="14.00" fill="#000000">negacao (NAO)</text>
<polyline fill="none" stroke="#000000" points="1353,-120.5 1353,-143.5 "/>
<text text-anchor="middle" x="1363.5" y="-128.3" font-family="Times,serif" font-size="14.00" fill="#000000"> </text>
</g>
<!-- n0x736b60&#45;&gt;n0x736930 -->
<g id="edge27" class="edge">
<title>n0x736b60&#45;&gt;n0x736930</title>
<path fill="none" stroke="#000000" d="M1168.1208,-180.4314C1194.0986,-170.9273 1231.0903,-157.3938 1259.3693,-147.0478"/>
<polygon fill="#000000" stroke="#000000" points="1260.7875,-150.2559 1268.9762,-143.5331 1258.3824,-143.682 1260.7875,-150.2559"/>
</g>
<!-- n0x736ac0 -->
<g id="node27" class="node">
<title>n0x736ac0</title>
<polygon fill="none" stroke="#000000" points="930,-60.5 930,-83.5 1017,-83.5 1017,-60.5 930,-60.5"/>
<text text-anchor="middle" x="963" y="-68.3" font-family="Times,serif" font-size="14.00" fill="#000000">escrita</text>
<polyline fill="none" stroke="#000000" points="996,-60.5 996,-83.5 "/>
<text text-anchor="middle" x="1006.5" y="-68.3" font-family="Times,serif" font-size="14.00" fill="#000000"> </text>
</g>
<!-- n0x736b10&#45;&gt;n0x736ac0 -->
<g id="edge19" class="edge">
<title>n0x736b10&#45;&gt;n0x736ac0</title>
<path fill="none" stroke="#000000" d="M973.5,-120.4314C973.5,-112.8779 973.5,-102.7793 973.5,-93.7585"/>
<polygon fill="#000000" stroke="#000000" points="977.0001,-93.5331 973.5,-83.5331 970.0001,-93.5331 977.0001,-93.5331"/>
</g>
<!-- n0x736a70 -->
<g id="node28" class="node">
<title>n0x736a70</title>
<polygon fill="none" stroke="#000000" points="921.5,-.5 921.5,-23.5 1025.5,-23.5 1025.5,-.5 921.5,-.5"/>
<text text-anchor="middle" x="960.5" y="-8.3" font-family="Times,serif" font-size="14.00" fill="#000000">variavel:</text>
<polyline fill="none" stroke="#000000" points="999.5,-.5 999.5,-23.5 "/>
<text text-anchor="middle" x="1012.5" y="-8.3" font-family="Times,serif" font-size="14.00" fill="#000000">b</text>
</g>
<!-- n0x736ac0&#45;&gt;n0x736a70 -->
<g id="edge18" class="edge">
<title>n0x736ac0&#45;&gt;n0x736a70</title>
<path fill="none" stroke="#000000" d="M973.5,-60.4314C973.5,-52.8779 973.5,-42.7793 973.5,-33.7585"/>
<polygon fill="#000000" stroke="#000000" points="977.0001,-33.5331 973.5,-23.5331 970.0001,-33.5331 977.0001,-33.5331"/>
</g>
<!-- n0x7369d0 -->
<g id="node30" class="node">
<title>n0x7369d0</title>
<polygon fill="none" stroke="#000000" points="1093,-60.5 1093,-83.5 1180,-83.5 1180,-60.5 1093,-60.5"/>
<text text-anchor="middle" x="1126" y="-68.3" font-family="Times,serif" font-size="14.00" fill="#000000">escrita</text>
<polyline fill="none" stroke="#000000" points="1159,-60.5 1159,-83.5 "/>
<text text-anchor="middle" x="1169.5" y="-68.3" font-family="Times,serif" font-size="14.00" fill="#000000"> </text>
</g>
<!-- n0x736a20&#45;&gt;n0x7369d0 -->
<g id="edge22" class="edge">
<title>n0x736a20&#45;&gt;n0x7369d0</title>
<path fill="none" stroke="#000000" d="M1136.5,-120.4314C1136.5,-112.8779 1136.5,-102.7793 1136.5,-93.7585"/>
<polygon fill="#000000" stroke="#000000" points="1140.0001,-93.5331 1136.5,-83.5331 1133.0001,-93.5331 1140.0001,-93.5331"/>
</g>
<!-- n0x736980 -->
<g id="node31" class="node">
<title>n0x736980</title>
<polygon fill="none" stroke="#000000" points="1085,-.5 1085,-23.5 1188,-23.5 1188,-.5 1085,-.5"/>
<text text-anchor="middle" x="1124" y="-8.3" font-family="Times,serif" font-size="14.00" fill="#000000">variavel:</text>
<polyline fill="none" stroke="#000000" points="1163,-.5 1163,-23.5 "/>
<text text-anchor="middle" x="1175.5" y="-8.3" font-family="Times,serif" font-size="14.00" fill="#000000">a</text>
</g>
<!-- n0x7369d0&#45;&gt;n0x736980 -->
<g id="edge21" class="edge">
<title>n0x7369d0&#45;&gt;n0x736980</title>
<path fill="none" stroke="#000000" d="M1136.5,-60.4314C1136.5,-52.8779 1136.5,-42.7793 1136.5,-33.7585"/>
<polygon fill="#000000" stroke="#000000" points="1140.0001,-33.5331 1136.5,-23.5331 1133.0001,-33.5331 1140.0001,-33.5331"/>
</g>
<!-- n0x7368e0 -->
<g id="node33" class="node">
<title>n0x7368e0</title>
<polygon fill="none" stroke="#000000" points="1225.5,-60.5 1225.5,-83.5 1375.5,-83.5 1375.5,-60.5 1225.5,-60.5"/>
<text text-anchor="middle" x="1290" y="-68.3" font-family="Times,serif" font-size="14.00" fill="#000000">compara menor</text>
<polyline fill="none" stroke="#000000" points="1354.5,-60.5 1354.5,-83.5 "/>
<text text-anchor="middle" x="1365" y="-68.3" font-family="Times,serif" font-size="14.00" fill="#000000"> </text>
</g>
<!-- n0x736930&#45;&gt;n0x7368e0 -->
<g id="edge26" class="edge">
<title>n0x736930&#45;&gt;n0x7368e0</title>
<path fill="none" stroke="#000000" d="M1300.5,-120.4314C1300.5,-112.8779 1300.5,-102.7793 1300.5,-93.7585"/>
<polygon fill="#000000" stroke="#000000" points="1304.0001,-93.5331 1300.5,-83.5331 1297.0001,-93.5331 1304.0001,-93.5331"/>
</g>
<!-- n0x736840 -->
<g id="node34" class="node">
<title>n0x736840</title>
<polygon fill="none" stroke="#000000" points="1228,-.5 1228,-23.5 1331,-23.5 1331,-.5 1228,-.5"/>
<text text-anchor="middle" x="1267" y="-8.3" font-family="Times,serif" font-size="14.00" fill="#000000">variavel:</text>
<polyline fill="none" stroke="#000000" points="1306,-.5 1306,-23.5 "/>
<text text-anchor="middle" x="1318.5" y="-8.3" font-family="Times,serif" font-size="14.00" fill="#000000">a</text>
</g>
<!-- n0x7368e0&#45;&gt;n0x736840 -->
<g id="edge24" class="edge">
<title>n0x7368e0&#45;&gt;n0x736840</title>
<path fill="none" stroke="#000000" d="M1296.451,-60.4314C1293.7492,-52.7119 1290.117,-42.3342 1286.9079,-33.1653"/>
<polygon fill="#000000" stroke="#000000" points="1290.1437,-31.8154 1283.5366,-23.5331 1283.5366,-34.1279 1290.1437,-31.8154"/>
</g>
<!-- n0x736890 -->
<g id="node35" class="node">
<title>n0x736890</title>
<polygon fill="none" stroke="#000000" points="1349.5,-.5 1349.5,-23.5 1453.5,-23.5 1453.5,-.5 1349.5,-.5"/>
<text text-anchor="middle" x="1388.5" y="-8.3" font-family="Times,serif" font-size="14.00" fill="#000000">variavel:</text>
<polyline fill="none" stroke="#000000" points="1427.5,-.5 1427.5,-23.5 "/>
<text text-anchor="middle" x="1440.5" y="-8.3" font-family="Times,serif" font-size="14.00" fill="#000000">b</text>
</g>
<!-- n0x7368e0&#45;&gt;n0x736890 -->
<g id="edge25" class="edge">
<title>n0x7368e0&#45;&gt;n0x736890</title>
<path fill="none" stroke="#000000" d="M1319.9738,-60.4314C1335.0641,-51.4669 1356.1891,-38.9174 1373.1538,-28.8393"/>
<polygon fill="#000000" stroke="#000000" points="1375.2762,-31.6496 1382.086,-23.5331 1371.701,-25.6314 1375.2762,-31.6496"/>
</g>
</g>
</svg>
