<?xml version="1.0" encoding="UTF-8" standalone="no"?>
<!DOCTYPE svg PUBLIC "-//W3C//DTD SVG 1.1//EN"
 "http://www.w3.org/Graphics/SVG/1.1/DTD/svg11.dtd">
<!-- Generated by graphviz version 2.40.1 (0)
 -->
<!-- Title: %3 Pages: 1 -->
<svg width="1299pt" height="632pt"
 viewBox="0.00 0.00 1298.50 632.00" xmlns="http://www.w3.org/2000/svg" xmlns:xlink="http://www.w3.org/1999/xlink">
<g id="graph0" class="graph" transform="scale(1 1) rotate(0) translate(4 628)">
<title>%3</title>
<polygon fill="#ffffff" stroke="transparent" points="-4,4 -4,-628 1294.5,-628 1294.5,4 -4,4"/>
<!-- n0x238cf70 -->
<g id="node1" class="node">
<title>n0x238cf70</title>
<polygon fill="none" stroke="#000000" points="243.5,-600.5 243.5,-623.5 350.5,-623.5 350.5,-600.5 243.5,-600.5"/>
<text text-anchor="middle" x="286.5" y="-608.3" font-family="Times,serif" font-size="14.00" fill="#000000">programa</text>
<polyline fill="none" stroke="#000000" points="329.5,-600.5 329.5,-623.5 "/>
<text text-anchor="middle" x="340" y="-608.3" font-family="Times,serif" font-size="14.00" fill="#000000"> </text>
</g>
<!-- n0x238c2f0 -->
<g id="node2" class="node">
<title>n0x238c2f0</title>
<polygon fill="none" stroke="#000000" points="0,-540.5 0,-563.5 176,-563.5 176,-540.5 0,-540.5"/>
<text text-anchor="middle" x="54" y="-548.3" font-family="Times,serif" font-size="14.00" fill="#000000">identificador</text>
<polyline fill="none" stroke="#000000" points="108,-540.5 108,-563.5 "/>
<text text-anchor="middle" x="142" y="-548.3" font-family="Times,serif" font-size="14.00" fill="#000000">fatorial</text>
</g>
<!-- n0x238cf70&#45;&gt;n0x238c2f0 -->
<g id="edge1" class="edge">
<title>n0x238cf70&#45;&gt;n0x238c2f0</title>
<path fill="none" stroke="#000000" d="M256.7027,-600.4314C222.874,-590.7198 174.3898,-576.8009 138.0721,-566.3748"/>
<polygon fill="#000000" stroke="#000000" points="138.7512,-562.9284 128.1736,-563.5331 136.8196,-569.6566 138.7512,-562.9284"/>
</g>
<!-- n0x238c4d0 -->
<g id="node3" class="node">
<title>n0x238c4d0</title>
<polygon fill="none" stroke="#000000" points="194,-540.5 194,-563.5 400,-563.5 400,-540.5 194,-540.5"/>
<text text-anchor="middle" x="286.5" y="-548.3" font-family="Times,serif" font-size="14.00" fill="#000000">declaracao de variaveis</text>
<polyline fill="none" stroke="#000000" points="379,-540.5 379,-563.5 "/>
<text text-anchor="middle" x="389.5" y="-548.3" font-family="Times,serif" font-size="14.00" fill="#000000"> </text>
</g>
<!-- n0x238cf70&#45;&gt;n0x238c4d0 -->
<g id="edge7" class="edge">
<title>n0x238cf70&#45;&gt;n0x238c4d0</title>
<path fill="none" stroke="#000000" d="M297,-600.4314C297,-592.8779 297,-582.7793 297,-573.7585"/>
<polygon fill="#000000" stroke="#000000" points="300.5001,-573.5331 297,-563.5331 293.5001,-573.5331 300.5001,-573.5331"/>
</g>
<!-- n0x238cf20 -->
<g id="node9" class="node">
<title>n0x238cf20</title>
<polygon fill="none" stroke="#000000" points="418.5,-540.5 418.5,-563.5 563.5,-563.5 563.5,-540.5 418.5,-540.5"/>
<text text-anchor="middle" x="480.5" y="-548.3" font-family="Times,serif" font-size="14.00" fill="#000000">lista comandos</text>
<polyline fill="none" stroke="#000000" points="542.5,-540.5 542.5,-563.5 "/>
<text text-anchor="middle" x="553" y="-548.3" font-family="Times,serif" font-size="14.00" fill="#000000"> </text>
</g>
<!-- n0x238cf70&#45;&gt;n0x238cf20 -->
<g id="edge40" class="edge">
<title>n0x238cf70&#45;&gt;n0x238cf20</title>
<path fill="none" stroke="#000000" d="M334.4052,-600.4314C365.6717,-590.7613 410.426,-576.9198 444.0888,-566.5086"/>
<polygon fill="#000000" stroke="#000000" points="445.1903,-569.8316 453.7097,-563.5331 443.122,-563.1441 445.1903,-569.8316"/>
</g>
<!-- n0x238c340 -->
<g id="node4" class="node">
<title>n0x238c340</title>
<polygon fill="none" stroke="#000000" points="108,-480.5 108,-503.5 216,-503.5 216,-480.5 108,-480.5"/>
<text text-anchor="middle" x="130" y="-488.3" font-family="Times,serif" font-size="14.00" fill="#000000">tipo</text>
<polyline fill="none" stroke="#000000" points="152,-480.5 152,-503.5 "/>
<text text-anchor="middle" x="184" y="-488.3" font-family="Times,serif" font-size="14.00" fill="#000000">inteiro</text>
</g>
<!-- n0x238c4d0&#45;&gt;n0x238c340 -->
<g id="edge2" class="edge">
<title>n0x238c4d0&#45;&gt;n0x238c340</title>
<path fill="none" stroke="#000000" d="M270.9706,-540.4314C250.0534,-531.1348 220.4615,-517.9829 197.3925,-507.73"/>
<polygon fill="#000000" stroke="#000000" points="198.5091,-504.3962 187.9494,-503.5331 195.6661,-510.7929 198.5091,-504.3962"/>
</g>
<!-- n0x238c430 -->
<g id="node5" class="node">
<title>n0x238c430</title>
<polygon fill="none" stroke="#000000" points="234.5,-480.5 234.5,-503.5 371.5,-503.5 371.5,-480.5 234.5,-480.5"/>
<text text-anchor="middle" x="292.5" y="-488.3" font-family="Times,serif" font-size="14.00" fill="#000000">lista variaveis</text>
<polyline fill="none" stroke="#000000" points="350.5,-480.5 350.5,-503.5 "/>
<text text-anchor="middle" x="361" y="-488.3" font-family="Times,serif" font-size="14.00" fill="#000000"> </text>
</g>
<!-- n0x238c4d0&#45;&gt;n0x238c430 -->
<g id="edge6" class="edge">
<title>n0x238c4d0&#45;&gt;n0x238c430</title>
<path fill="none" stroke="#000000" d="M298.1569,-540.4314C298.9122,-532.8779 299.9221,-522.7793 300.8242,-513.7585"/>
<polygon fill="#000000" stroke="#000000" points="304.3342,-513.8318 301.8467,-503.5331 297.3689,-513.1352 304.3342,-513.8318"/>
</g>
<!-- n0x238c480 -->
<g id="node6" class="node">
<title>n0x238c480</title>
<polygon fill="none" stroke="#000000" points="83,-420.5 83,-443.5 227,-443.5 227,-420.5 83,-420.5"/>
<text text-anchor="middle" x="137" y="-428.3" font-family="Times,serif" font-size="14.00" fill="#000000">identificador</text>
<polyline fill="none" stroke="#000000" points="191,-420.5 191,-443.5 "/>
<text text-anchor="middle" x="209" y="-428.3" font-family="Times,serif" font-size="14.00" fill="#000000">fat</text>
</g>
<!-- n0x238c430&#45;&gt;n0x238c480 -->
<g id="edge3" class="edge">
<title>n0x238c430&#45;&gt;n0x238c480</title>
<path fill="none" stroke="#000000" d="M274.4641,-480.4314C251.2255,-471.0103 218.2204,-457.6299 192.7884,-447.3196"/>
<polygon fill="#000000" stroke="#000000" points="194.0307,-444.0466 183.4483,-443.5331 191.4007,-450.5338 194.0307,-444.0466"/>
</g>
<!-- n0x238c390 -->
<g id="node7" class="node">
<title>n0x238c390</title>
<polygon fill="none" stroke="#000000" points="245.5,-420.5 245.5,-443.5 382.5,-443.5 382.5,-420.5 245.5,-420.5"/>
<text text-anchor="middle" x="303.5" y="-428.3" font-family="Times,serif" font-size="14.00" fill="#000000">lista variaveis</text>
<polyline fill="none" stroke="#000000" points="361.5,-420.5 361.5,-443.5 "/>
<text text-anchor="middle" x="372" y="-428.3" font-family="Times,serif" font-size="14.00" fill="#000000"> </text>
</g>
<!-- n0x238c430&#45;&gt;n0x238c390 -->
<g id="edge5" class="edge">
<title>n0x238c430&#45;&gt;n0x238c390</title>
<path fill="none" stroke="#000000" d="M305.1209,-480.4314C306.5209,-472.7949 308.3979,-462.5571 310.0654,-453.4615"/>
<polygon fill="#000000" stroke="#000000" points="313.5249,-454.0003 311.8856,-443.5331 306.6396,-452.738 313.5249,-454.0003"/>
</g>
<!-- n0x238c3e0 -->
<g id="node8" class="node">
<title>n0x238c3e0</title>
<polygon fill="none" stroke="#000000" points="247,-360.5 247,-383.5 381,-383.5 381,-360.5 247,-360.5"/>
<text text-anchor="middle" x="301" y="-368.3" font-family="Times,serif" font-size="14.00" fill="#000000">identificador</text>
<polyline fill="none" stroke="#000000" points="355,-360.5 355,-383.5 "/>
<text text-anchor="middle" x="368" y="-368.3" font-family="Times,serif" font-size="14.00" fill="#000000">n</text>
</g>
<!-- n0x238c390&#45;&gt;n0x238c3e0 -->
<g id="edge4" class="edge">
<title>n0x238c390&#45;&gt;n0x238c3e0</title>
<path fill="none" stroke="#000000" d="M314,-420.4314C314,-412.8779 314,-402.7793 314,-393.7585"/>
<polygon fill="#000000" stroke="#000000" points="317.5001,-393.5331 314,-383.5331 310.5001,-393.5331 317.5001,-393.5331"/>
</g>
<!-- n0x238c570 -->
<g id="node10" class="node">
<title>n0x238c570</title>
<polygon fill="none" stroke="#000000" points="441.5,-480.5 441.5,-503.5 528.5,-503.5 528.5,-480.5 441.5,-480.5"/>
<text text-anchor="middle" x="474.5" y="-488.3" font-family="Times,serif" font-size="14.00" fill="#000000">escrita</text>
<polyline fill="none" stroke="#000000" points="507.5,-480.5 507.5,-503.5 "/>
<text text-anchor="middle" x="518" y="-488.3" font-family="Times,serif" font-size="14.00" fill="#000000"> </text>
</g>
<!-- n0x238cf20&#45;&gt;n0x238c570 -->
<g id="edge9" class="edge">
<title>n0x238cf20&#45;&gt;n0x238c570</title>
<path fill="none" stroke="#000000" d="M489.8431,-540.4314C489.0878,-532.8779 488.0779,-522.7793 487.1758,-513.7585"/>
<polygon fill="#000000" stroke="#000000" points="490.6311,-513.1352 486.1533,-503.5331 483.6658,-513.8318 490.6311,-513.1352"/>
</g>
<!-- n0x238ced0 -->
<g id="node12" class="node">
<title>n0x238ced0</title>
<polygon fill="none" stroke="#000000" points="546.5,-480.5 546.5,-503.5 691.5,-503.5 691.5,-480.5 546.5,-480.5"/>
<text text-anchor="middle" x="608.5" y="-488.3" font-family="Times,serif" font-size="14.00" fill="#000000">lista comandos</text>
<polyline fill="none" stroke="#000000" points="670.5,-480.5 670.5,-503.5 "/>
<text text-anchor="middle" x="681" y="-488.3" font-family="Times,serif" font-size="14.00" fill="#000000"> </text>
</g>
<!-- n0x238cf20&#45;&gt;n0x238ced0 -->
<g id="edge39" class="edge">
<title>n0x238cf20&#45;&gt;n0x238ced0</title>
<path fill="none" stroke="#000000" d="M515.6797,-540.4314C535.4238,-531.1763 563.3195,-518.1002 585.1494,-507.8675"/>
<polygon fill="#000000" stroke="#000000" points="586.827,-510.9466 594.3961,-503.5331 583.8559,-504.6084 586.827,-510.9466"/>
</g>
<!-- n0x238c520 -->
<g id="node11" class="node">
<title>n0x238c520</title>
<polygon fill="none" stroke="#000000" points="422.5,-420.5 422.5,-443.5 547.5,-443.5 547.5,-420.5 422.5,-420.5"/>
<text text-anchor="middle" x="449" y="-428.3" font-family="Times,serif" font-size="14.00" fill="#000000">texto</text>
<polyline fill="none" stroke="#000000" points="475.5,-420.5 475.5,-443.5 "/>
<text text-anchor="middle" x="511.5" y="-428.3" font-family="Times,serif" font-size="14.00" fill="#000000">_const0</text>
</g>
<!-- n0x238c570&#45;&gt;n0x238c520 -->
<g id="edge8" class="edge">
<title>n0x238c570&#45;&gt;n0x238c520</title>
<path fill="none" stroke="#000000" d="M485,-480.4314C485,-472.8779 485,-462.7793 485,-453.7585"/>
<polygon fill="#000000" stroke="#000000" points="488.5001,-453.5331 485,-443.5331 481.5001,-453.5331 488.5001,-453.5331"/>
</g>
<!-- n0x238c5c0 -->
<g id="node13" class="node">
<title>n0x238c5c0</title>
<polygon fill="none" stroke="#000000" points="571.5,-420.5 571.5,-443.5 656.5,-443.5 656.5,-420.5 571.5,-420.5"/>
<text text-anchor="middle" x="603.5" y="-428.3" font-family="Times,serif" font-size="14.00" fill="#000000">leitura</text>
<polyline fill="none" stroke="#000000" points="635.5,-420.5 635.5,-443.5 "/>
<text text-anchor="middle" x="646" y="-428.3" font-family="Times,serif" font-size="14.00" fill="#000000"> </text>
</g>
<!-- n0x238ced0&#45;&gt;n0x238c5c0 -->
<g id="edge11" class="edge">
<title>n0x238ced0&#45;&gt;n0x238c5c0</title>
<path fill="none" stroke="#000000" d="M618.0359,-480.4314C617.4065,-472.8779 616.5649,-462.7793 615.8132,-453.7585"/>
<polygon fill="#000000" stroke="#000000" points="619.2795,-453.2079 614.9611,-443.5331 612.3037,-453.7892 619.2795,-453.2079"/>
</g>
<!-- n0x238ce80 -->
<g id="node15" class="node">
<title>n0x238ce80</title>
<polygon fill="none" stroke="#000000" points="677.5,-420.5 677.5,-443.5 822.5,-443.5 822.5,-420.5 677.5,-420.5"/>
<text text-anchor="middle" x="739.5" y="-428.3" font-family="Times,serif" font-size="14.00" fill="#000000">lista comandos</text>
<polyline fill="none" stroke="#000000" points="801.5,-420.5 801.5,-443.5 "/>
<text text-anchor="middle" x="812" y="-428.3" font-family="Times,serif" font-size="14.00" fill="#000000"> </text>
</g>
<!-- n0x238ced0&#45;&gt;n0x238ce80 -->
<g id="edge38" class="edge">
<title>n0x238ced0&#45;&gt;n0x238ce80</title>
<path fill="none" stroke="#000000" d="M644.2581,-480.4314C664.5556,-471.1348 693.2707,-457.9829 715.6562,-447.73"/>
<polygon fill="#000000" stroke="#000000" points="717.1851,-450.8794 724.8194,-443.5331 714.2702,-444.5152 717.1851,-450.8794"/>
</g>
<!-- n0x238c610 -->
<g id="node14" class="node">
<title>n0x238c610</title>
<polygon fill="none" stroke="#000000" points="543,-360.5 543,-383.5 677,-383.5 677,-360.5 543,-360.5"/>
<text text-anchor="middle" x="597" y="-368.3" font-family="Times,serif" font-size="14.00" fill="#000000">identificador</text>
<polyline fill="none" stroke="#000000" points="651,-360.5 651,-383.5 "/>
<text text-anchor="middle" x="664" y="-368.3" font-family="Times,serif" font-size="14.00" fill="#000000">n</text>
</g>
<!-- n0x238c5c0&#45;&gt;n0x238c610 -->
<g id="edge10" class="edge">
<title>n0x238c5c0&#45;&gt;n0x238c610</title>
<path fill="none" stroke="#000000" d="M613.2288,-420.4314C612.7252,-412.8779 612.052,-402.7793 611.4506,-393.7585"/>
<polygon fill="#000000" stroke="#000000" points="614.9264,-393.2781 610.7689,-383.5331 607.9419,-393.7438 614.9264,-393.2781"/>
</g>
<!-- n0x238c700 -->
<g id="node16" class="node">
<title>n0x238c700</title>
<polygon fill="none" stroke="#000000" points="695,-360.5 695,-383.5 805,-383.5 805,-360.5 695,-360.5"/>
<text text-anchor="middle" x="739.5" y="-368.3" font-family="Times,serif" font-size="14.00" fill="#000000">atribuicao</text>
<polyline fill="none" stroke="#000000" points="784,-360.5 784,-383.5 "/>
<text text-anchor="middle" x="794.5" y="-368.3" font-family="Times,serif" font-size="14.00" fill="#000000"> </text>
</g>
<!-- n0x238ce80&#45;&gt;n0x238c700 -->
<g id="edge14" class="edge">
<title>n0x238ce80&#45;&gt;n0x238c700</title>
<path fill="none" stroke="#000000" d="M750,-420.4314C750,-412.8779 750,-402.7793 750,-393.7585"/>
<polygon fill="#000000" stroke="#000000" points="753.5001,-393.5331 750,-383.5331 746.5001,-393.5331 753.5001,-393.5331"/>
</g>
<!-- n0x238ce30 -->
<g id="node19" class="node">
<title>n0x238ce30</title>
<polygon fill="none" stroke="#000000" points="823.5,-360.5 823.5,-383.5 968.5,-383.5 968.5,-360.5 823.5,-360.5"/>
<text text-anchor="middle" x="885.5" y="-368.3" font-family="Times,serif" font-size="14.00" fill="#000000">lista comandos</text>
<polyline fill="none" stroke="#000000" points="947.5,-360.5 947.5,-383.5 "/>
<text text-anchor="middle" x="958" y="-368.3" font-family="Times,serif" font-size="14.00" fill="#000000"> </text>
</g>
<!-- n0x238ce80&#45;&gt;n0x238ce30 -->
<g id="edge37" class="edge">
<title>n0x238ce80&#45;&gt;n0x238ce30</title>
<path fill="none" stroke="#000000" d="M778.1503,-420.4314C800.9739,-411.0518 833.3472,-397.7477 858.3903,-387.4561"/>
<polygon fill="#000000" stroke="#000000" points="860.0172,-390.5716 867.9362,-383.5331 857.3563,-384.097 860.0172,-390.5716"/>
</g>
<!-- n0x238c660 -->
<g id="node17" class="node">
<title>n0x238c660</title>
<polygon fill="none" stroke="#000000" points="580,-300.5 580,-323.5 690,-323.5 690,-300.5 580,-300.5"/>
<text text-anchor="middle" x="617" y="-308.3" font-family="Times,serif" font-size="14.00" fill="#000000">variavel</text>
<polyline fill="none" stroke="#000000" points="654,-300.5 654,-323.5 "/>
<text text-anchor="middle" x="672" y="-308.3" font-family="Times,serif" font-size="14.00" fill="#000000">fat</text>
</g>
<!-- n0x238c700&#45;&gt;n0x238c660 -->
<g id="edge12" class="edge">
<title>n0x238c700&#45;&gt;n0x238c660</title>
<path fill="none" stroke="#000000" d="M727.8268,-360.4314C710.3266,-351.3008 685.6984,-338.4514 666.2071,-328.282"/>
<polygon fill="#000000" stroke="#000000" points="667.5899,-325.0557 657.1051,-323.5331 664.3519,-331.2619 667.5899,-325.0557"/>
</g>
<!-- n0x238c6b0 -->
<g id="node18" class="node">
<title>n0x238c6b0</title>
<polygon fill="none" stroke="#000000" points="708.5,-300.5 708.5,-323.5 805.5,-323.5 805.5,-300.5 708.5,-300.5"/>
<text text-anchor="middle" x="744" y="-308.3" font-family="Times,serif" font-size="14.00" fill="#000000">numero</text>
<polyline fill="none" stroke="#000000" points="779.5,-300.5 779.5,-323.5 "/>
<text text-anchor="middle" x="792.5" y="-308.3" font-family="Times,serif" font-size="14.00" fill="#000000">1</text>
</g>
<!-- n0x238c700&#45;&gt;n0x238c6b0 -->
<g id="edge13" class="edge">
<title>n0x238c700&#45;&gt;n0x238c6b0</title>
<path fill="none" stroke="#000000" d="M751.3497,-360.4314C752.2309,-352.8779 753.4091,-342.7793 754.4615,-333.7585"/>
<polygon fill="#000000" stroke="#000000" points="757.972,-333.8713 755.6545,-323.5331 751.0192,-333.0601 757.972,-333.8713"/>
</g>
<!-- n0x238cc00 -->
<g id="node20" class="node">
<title>n0x238cc00</title>
<polygon fill="none" stroke="#000000" points="836.5,-300.5 836.5,-323.5 941.5,-323.5 941.5,-300.5 836.5,-300.5"/>
<text text-anchor="middle" x="878.5" y="-308.3" font-family="Times,serif" font-size="14.00" fill="#000000">repeticao</text>
<polyline fill="none" stroke="#000000" points="920.5,-300.5 920.5,-323.5 "/>
<text text-anchor="middle" x="931" y="-308.3" font-family="Times,serif" font-size="14.00" fill="#000000"> </text>
</g>
<!-- n0x238ce30&#45;&gt;n0x238cc00 -->
<g id="edge30" class="edge">
<title>n0x238ce30&#45;&gt;n0x238cc00</title>
<path fill="none" stroke="#000000" d="M894.6503,-360.4314C893.7691,-352.8779 892.5909,-342.7793 891.5385,-333.7585"/>
<polygon fill="#000000" stroke="#000000" points="894.9808,-333.0601 890.3455,-323.5331 888.028,-333.8713 894.9808,-333.0601"/>
</g>
<!-- n0x238cde0 -->
<g id="node36" class="node">
<title>n0x238cde0</title>
<polygon fill="none" stroke="#000000" points="1011.5,-300.5 1011.5,-323.5 1156.5,-323.5 1156.5,-300.5 1011.5,-300.5"/>
<text text-anchor="middle" x="1073.5" y="-308.3" font-family="Times,serif" font-size="14.00" fill="#000000">lista comandos</text>
<polyline fill="none" stroke="#000000" points="1135.5,-300.5 1135.5,-323.5 "/>
<text text-anchor="middle" x="1146" y="-308.3" font-family="Times,serif" font-size="14.00" fill="#000000"> </text>
</g>
<!-- n0x238ce30&#45;&gt;n0x238cde0 -->
<g id="edge36" class="edge">
<title>n0x238ce30&#45;&gt;n0x238cde0</title>
<path fill="none" stroke="#000000" d="M932.2483,-360.4314C962.4178,-350.8028 1005.5459,-337.0385 1038.119,-326.6429"/>
<polygon fill="#000000" stroke="#000000" points="1039.4006,-329.9079 1047.863,-323.5331 1037.2722,-323.2392 1039.4006,-329.9079"/>
</g>
<!-- n0x238c7f0 -->
<g id="node21" class="node">
<title>n0x238c7f0</title>
<polygon fill="none" stroke="#000000" points="600,-240.5 600,-263.5 746,-263.5 746,-240.5 600,-240.5"/>
<text text-anchor="middle" x="662.5" y="-248.3" font-family="Times,serif" font-size="14.00" fill="#000000">compara maior</text>
<polyline fill="none" stroke="#000000" points="725,-240.5 725,-263.5 "/>
<text text-anchor="middle" x="735.5" y="-248.3" font-family="Times,serif" font-size="14.00" fill="#000000"> </text>
</g>
<!-- n0x238cc00&#45;&gt;n0x238c7f0 -->
<g id="edge17" class="edge">
<title>n0x238cc00&#45;&gt;n0x238c7f0</title>
<path fill="none" stroke="#000000" d="M847.353,-300.4314C812.2419,-290.6783 761.8547,-276.6819 724.2687,-266.2413"/>
<polygon fill="#000000" stroke="#000000" points="725.0911,-262.8373 714.5191,-263.5331 723.2175,-269.5819 725.0911,-262.8373"/>
</g>
<!-- n0x238cbb0 -->
<g id="node24" class="node">
<title>n0x238cbb0</title>
<polygon fill="none" stroke="#000000" points="816.5,-240.5 816.5,-263.5 961.5,-263.5 961.5,-240.5 816.5,-240.5"/>
<text text-anchor="middle" x="878.5" y="-248.3" font-family="Times,serif" font-size="14.00" fill="#000000">lista comandos</text>
<polyline fill="none" stroke="#000000" points="940.5,-240.5 940.5,-263.5 "/>
<text text-anchor="middle" x="951" y="-248.3" font-family="Times,serif" font-size="14.00" fill="#000000"> </text>
</g>
<!-- n0x238cc00&#45;&gt;n0x238cbb0 -->
<g id="edge29" class="edge">
<title>n0x238cc00&#45;&gt;n0x238cbb0</title>
<path fill="none" stroke="#000000" d="M889,-300.4314C889,-292.8779 889,-282.7793 889,-273.7585"/>
<polygon fill="#000000" stroke="#000000" points="892.5001,-273.5331 889,-263.5331 885.5001,-273.5331 892.5001,-273.5331"/>
</g>
<!-- n0x238c750 -->
<g id="node22" class="node">
<title>n0x238c750</title>
<polygon fill="none" stroke="#000000" points="506,-180.5 506,-203.5 606,-203.5 606,-180.5 506,-180.5"/>
<text text-anchor="middle" x="543" y="-188.3" font-family="Times,serif" font-size="14.00" fill="#000000">variavel</text>
<polyline fill="none" stroke="#000000" points="580,-180.5 580,-203.5 "/>
<text text-anchor="middle" x="593" y="-188.3" font-family="Times,serif" font-size="14.00" fill="#000000">n</text>
</g>
<!-- n0x238c7f0&#45;&gt;n0x238c750 -->
<g id="edge15" class="edge">
<title>n0x238c7f0&#45;&gt;n0x238c750</title>
<path fill="none" stroke="#000000" d="M650.4412,-240.4314C632.5557,-231.2593 607.3522,-218.3345 587.4798,-208.1435"/>
<polygon fill="#000000" stroke="#000000" points="588.9848,-204.9819 578.4895,-203.5331 585.7906,-211.2107 588.9848,-204.9819"/>
</g>
<!-- n0x238c7a0 -->
<g id="node23" class="node">
<title>n0x238c7a0</title>
<polygon fill="none" stroke="#000000" points="624.5,-180.5 624.5,-203.5 721.5,-203.5 721.5,-180.5 624.5,-180.5"/>
<text text-anchor="middle" x="660" y="-188.3" font-family="Times,serif" font-size="14.00" fill="#000000">numero</text>
<polyline fill="none" stroke="#000000" points="695.5,-180.5 695.5,-203.5 "/>
<text text-anchor="middle" x="708.5" y="-188.3" font-family="Times,serif" font-size="14.00" fill="#000000">0</text>
</g>
<!-- n0x238c7f0&#45;&gt;n0x238c7a0 -->
<g id="edge16" class="edge">
<title>n0x238c7f0&#45;&gt;n0x238c7a0</title>
<path fill="none" stroke="#000000" d="M673,-240.4314C673,-232.8779 673,-222.7793 673,-213.7585"/>
<polygon fill="#000000" stroke="#000000" points="676.5001,-213.5331 673,-203.5331 669.5001,-213.5331 676.5001,-213.5331"/>
</g>
<!-- n0x238c980 -->
<g id="node25" class="node">
<title>n0x238c980</title>
<polygon fill="none" stroke="#000000" points="740,-180.5 740,-203.5 850,-203.5 850,-180.5 740,-180.5"/>
<text text-anchor="middle" x="784.5" y="-188.3" font-family="Times,serif" font-size="14.00" fill="#000000">atribuicao</text>
<polyline fill="none" stroke="#000000" points="829,-180.5 829,-203.5 "/>
<text text-anchor="middle" x="839.5" y="-188.3" font-family="Times,serif" font-size="14.00" fill="#000000"> </text>
</g>
<!-- n0x238cbb0&#45;&gt;n0x238c980 -->
<g id="edge22" class="edge">
<title>n0x238cbb0&#45;&gt;n0x238c980</title>
<path fill="none" stroke="#000000" d="M870.8759,-240.4314C856.9615,-231.5499 837.5342,-219.1495 821.8211,-209.1199"/>
<polygon fill="#000000" stroke="#000000" points="823.3809,-205.9633 813.0685,-203.5331 819.6146,-211.8637 823.3809,-205.9633"/>
</g>
<!-- n0x238cb60 -->
<g id="node30" class="node">
<title>n0x238cb60</title>
<polygon fill="none" stroke="#000000" points="868.5,-180.5 868.5,-203.5 1013.5,-203.5 1013.5,-180.5 868.5,-180.5"/>
<text text-anchor="middle" x="930.5" y="-188.3" font-family="Times,serif" font-size="14.00" fill="#000000">lista comandos</text>
<polyline fill="none" stroke="#000000" points="992.5,-180.5 992.5,-203.5 "/>
<text text-anchor="middle" x="1003" y="-188.3" font-family="Times,serif" font-size="14.00" fill="#000000"> </text>
</g>
<!-- n0x238cbb0&#45;&gt;n0x238cb60 -->
<g id="edge28" class="edge">
<title>n0x238cbb0&#45;&gt;n0x238cb60</title>
<path fill="none" stroke="#000000" d="M899.0261,-240.4314C906.2199,-232.1309 916.0774,-220.7569 924.4319,-211.1171"/>
<polygon fill="#000000" stroke="#000000" points="927.1002,-213.3823 931.0047,-203.5331 921.8104,-208.7977 927.1002,-213.3823"/>
</g>
<!-- n0x238c840 -->
<g id="node26" class="node">
<title>n0x238c840</title>
<polygon fill="none" stroke="#000000" points="603,-120.5 603,-143.5 713,-143.5 713,-120.5 603,-120.5"/>
<text text-anchor="middle" x="640" y="-128.3" font-family="Times,serif" font-size="14.00" fill="#000000">variavel</text>
<polyline fill="none" stroke="#000000" points="677,-120.5 677,-143.5 "/>
<text text-anchor="middle" x="695" y="-128.3" font-family="Times,serif" font-size="14.00" fill="#000000">fat</text>
</g>
<!-- n0x238c980&#45;&gt;n0x238c840 -->
<g id="edge18" class="edge">
<title>n0x238c980&#45;&gt;n0x238c840</title>
<path fill="none" stroke="#000000" d="M768.585,-180.4314C747.2631,-171.0933 717.0593,-157.8654 693.6037,-147.5929"/>
<polygon fill="#000000" stroke="#000000" points="694.898,-144.3388 684.3339,-143.5331 692.0898,-150.7509 694.898,-144.3388"/>
</g>
<!-- n0x238c930 -->
<g id="node27" class="node">
<title>n0x238c930</title>
<polygon fill="none" stroke="#000000" points="731,-120.5 731,-143.5 865,-143.5 865,-120.5 731,-120.5"/>
<text text-anchor="middle" x="787.5" y="-128.3" font-family="Times,serif" font-size="14.00" fill="#000000">multiplicacao</text>
<polyline fill="none" stroke="#000000" points="844,-120.5 844,-143.5 "/>
<text text-anchor="middle" x="854.5" y="-128.3" font-family="Times,serif" font-size="14.00" fill="#000000"> </text>
</g>
<!-- n0x238c980&#45;&gt;n0x238c930 -->
<g id="edge21" class="edge">
<title>n0x238c980&#45;&gt;n0x238c930</title>
<path fill="none" stroke="#000000" d="M795.5784,-180.4314C795.9561,-172.8779 796.461,-162.7793 796.9121,-153.7585"/>
<polygon fill="#000000" stroke="#000000" points="800.4195,-153.6954 797.4233,-143.5331 793.4282,-153.3458 800.4195,-153.6954"/>
</g>
<!-- n0x238c890 -->
<g id="node28" class="node">
<title>n0x238c890</title>
<polygon fill="none" stroke="#000000" points="625,-60.5 625,-83.5 735,-83.5 735,-60.5 625,-60.5"/>
<text text-anchor="middle" x="662" y="-68.3" font-family="Times,serif" font-size="14.00" fill="#000000">variavel</text>
<polyline fill="none" stroke="#000000" points="699,-60.5 699,-83.5 "/>
<text text-anchor="middle" x="717" y="-68.3" font-family="Times,serif" font-size="14.00" fill="#000000">fat</text>
</g>
<!-- n0x238c930&#45;&gt;n0x238c890 -->
<g id="edge19" class="edge">
<title>n0x238c930&#45;&gt;n0x238c890</title>
<path fill="none" stroke="#000000" d="M775.2484,-120.4314C757.21,-111.2593 731.7911,-98.3345 711.7488,-88.1435"/>
<polygon fill="#000000" stroke="#000000" points="713.182,-84.9458 702.6817,-83.5331 710.0092,-91.1855 713.182,-84.9458"/>
</g>
<!-- n0x238c8e0 -->
<g id="node29" class="node">
<title>n0x238c8e0</title>
<polygon fill="none" stroke="#000000" points="753,-60.5 753,-83.5 853,-83.5 853,-60.5 753,-60.5"/>
<text text-anchor="middle" x="790" y="-68.3" font-family="Times,serif" font-size="14.00" fill="#000000">variavel</text>
<polyline fill="none" stroke="#000000" points="827,-60.5 827,-83.5 "/>
<text text-anchor="middle" x="840" y="-68.3" font-family="Times,serif" font-size="14.00" fill="#000000">n</text>
</g>
<!-- n0x238c930&#45;&gt;n0x238c8e0 -->
<g id="edge20" class="edge">
<title>n0x238c930&#45;&gt;n0x238c8e0</title>
<path fill="none" stroke="#000000" d="M798.9641,-120.4314C799.5935,-112.8779 800.4351,-102.7793 801.1868,-93.7585"/>
<polygon fill="#000000" stroke="#000000" points="804.6963,-93.7892 802.0389,-83.5331 797.7205,-93.2079 804.6963,-93.7892"/>
</g>
<!-- n0x238cb10 -->
<g id="node31" class="node">
<title>n0x238cb10</title>
<polygon fill="none" stroke="#000000" points="886,-120.5 886,-143.5 996,-143.5 996,-120.5 886,-120.5"/>
<text text-anchor="middle" x="930.5" y="-128.3" font-family="Times,serif" font-size="14.00" fill="#000000">atribuicao</text>
<polyline fill="none" stroke="#000000" points="975,-120.5 975,-143.5 "/>
<text text-anchor="middle" x="985.5" y="-128.3" font-family="Times,serif" font-size="14.00" fill="#000000"> </text>
</g>
<!-- n0x238cb60&#45;&gt;n0x238cb10 -->
<g id="edge27" class="edge">
<title>n0x238cb60&#45;&gt;n0x238cb10</title>
<path fill="none" stroke="#000000" d="M941,-180.4314C941,-172.8779 941,-162.7793 941,-153.7585"/>
<polygon fill="#000000" stroke="#000000" points="944.5001,-153.5331 941,-143.5331 937.5001,-153.5331 944.5001,-153.5331"/>
</g>
<!-- n0x238c9d0 -->
<g id="node32" class="node">
<title>n0x238c9d0</title>
<polygon fill="none" stroke="#000000" points="885,-60.5 885,-83.5 985,-83.5 985,-60.5 885,-60.5"/>
<text text-anchor="middle" x="922" y="-68.3" font-family="Times,serif" font-size="14.00" fill="#000000">variavel</text>
<polyline fill="none" stroke="#000000" points="959,-60.5 959,-83.5 "/>
<text text-anchor="middle" x="972" y="-68.3" font-family="Times,serif" font-size="14.00" fill="#000000">n</text>
</g>
<!-- n0x238cb10&#45;&gt;n0x238c9d0 -->
<g id="edge23" class="edge">
<title>n0x238cb10&#45;&gt;n0x238c9d0</title>
<path fill="none" stroke="#000000" d="M939.8431,-120.4314C939.0878,-112.8779 938.0779,-102.7793 937.1758,-93.7585"/>
<polygon fill="#000000" stroke="#000000" points="940.6311,-93.1352 936.1533,-83.5331 933.6658,-93.8318 940.6311,-93.1352"/>
</g>
<!-- n0x238cac0 -->
<g id="node33" class="node">
<title>n0x238cac0</title>
<polygon fill="none" stroke="#000000" points="1003.5,-60.5 1003.5,-83.5 1112.5,-83.5 1112.5,-60.5 1003.5,-60.5"/>
<text text-anchor="middle" x="1047.5" y="-68.3" font-family="Times,serif" font-size="14.00" fill="#000000">subtracao</text>
<polyline fill="none" stroke="#000000" points="1091.5,-60.5 1091.5,-83.5 "/>
<text text-anchor="middle" x="1102" y="-68.3" font-family="Times,serif" font-size="14.00" fill="#000000"> </text>
</g>
<!-- n0x238cb10&#45;&gt;n0x238cac0 -->
<g id="edge26" class="edge">
<title>n0x238cb10&#45;&gt;n0x238cac0</title>
<path fill="none" stroke="#000000" d="M963.5588,-120.4314C981.4443,-111.2593 1006.6478,-98.3345 1026.5202,-88.1435"/>
<polygon fill="#000000" stroke="#000000" points="1028.2094,-91.2107 1035.5105,-83.5331 1025.0152,-84.9819 1028.2094,-91.2107"/>
</g>
<!-- n0x238ca20 -->
<g id="node34" class="node">
<title>n0x238ca20</title>
<polygon fill="none" stroke="#000000" points="949,-.5 949,-23.5 1049,-23.5 1049,-.5 949,-.5"/>
<text text-anchor="middle" x="986" y="-8.3" font-family="Times,serif" font-size="14.00" fill="#000000">variavel</text>
<polyline fill="none" stroke="#000000" points="1023,-.5 1023,-23.5 "/>
<text text-anchor="middle" x="1036" y="-8.3" font-family="Times,serif" font-size="14.00" fill="#000000">n</text>
</g>
<!-- n0x238cac0&#45;&gt;n0x238ca20 -->
<g id="edge24" class="edge">
<title>n0x238cac0&#45;&gt;n0x238ca20</title>
<path fill="none" stroke="#000000" d="M1046.6242,-60.4314C1038.3804,-52.0479 1027.0536,-40.5291 1017.5146,-30.8284"/>
<polygon fill="#000000" stroke="#000000" points="1019.8479,-28.2094 1010.3409,-23.5331 1014.8567,-33.1174 1019.8479,-28.2094"/>
</g>
<!-- n0x238ca70 -->
<g id="node35" class="node">
<title>n0x238ca70</title>
<polygon fill="none" stroke="#000000" points="1067.5,-.5 1067.5,-23.5 1164.5,-23.5 1164.5,-.5 1067.5,-.5"/>
<text text-anchor="middle" x="1103" y="-8.3" font-family="Times,serif" font-size="14.00" fill="#000000">numero</text>
<polyline fill="none" stroke="#000000" points="1138.5,-.5 1138.5,-23.5 "/>
<text text-anchor="middle" x="1151.5" y="-8.3" font-family="Times,serif" font-size="14.00" fill="#000000">1</text>
</g>
<!-- n0x238cac0&#45;&gt;n0x238ca70 -->
<g id="edge25" class="edge">
<title>n0x238cac0&#45;&gt;n0x238ca70</title>
<path fill="none" stroke="#000000" d="M1069.183,-60.4314C1077.287,-52.0479 1088.4219,-40.5291 1097.7992,-30.8284"/>
<polygon fill="#000000" stroke="#000000" points="1100.4176,-33.1556 1104.8513,-23.5331 1095.3846,-28.2904 1100.4176,-33.1556"/>
</g>
<!-- n0x238cca0 -->
<g id="node37" class="node">
<title>n0x238cca0</title>
<polygon fill="none" stroke="#000000" points="1040.5,-240.5 1040.5,-263.5 1127.5,-263.5 1127.5,-240.5 1040.5,-240.5"/>
<text text-anchor="middle" x="1073.5" y="-248.3" font-family="Times,serif" font-size="14.00" fill="#000000">escrita</text>
<polyline fill="none" stroke="#000000" points="1106.5,-240.5 1106.5,-263.5 "/>
<text text-anchor="middle" x="1117" y="-248.3" font-family="Times,serif" font-size="14.00" fill="#000000"> </text>
</g>
<!-- n0x238cde0&#45;&gt;n0x238cca0 -->
<g id="edge32" class="edge">
<title>n0x238cde0&#45;&gt;n0x238cca0</title>
<path fill="none" stroke="#000000" d="M1084,-300.4314C1084,-292.8779 1084,-282.7793 1084,-273.7585"/>
<polygon fill="#000000" stroke="#000000" points="1087.5001,-273.5331 1084,-263.5331 1080.5001,-273.5331 1087.5001,-273.5331"/>
</g>
<!-- n0x238cd90 -->
<g id="node39" class="node">
<title>n0x238cd90</title>
<polygon fill="none" stroke="#000000" points="1145.5,-240.5 1145.5,-263.5 1290.5,-263.5 1290.5,-240.5 1145.5,-240.5"/>
<text text-anchor="middle" x="1207.5" y="-248.3" font-family="Times,serif" font-size="14.00" fill="#000000">lista comandos</text>
<polyline fill="none" stroke="#000000" points="1269.5,-240.5 1269.5,-263.5 "/>
<text text-anchor="middle" x="1280" y="-248.3" font-family="Times,serif" font-size="14.00" fill="#000000"> </text>
</g>
<!-- n0x238cde0&#45;&gt;n0x238cd90 -->
<g id="edge35" class="edge">
<title>n0x238cde0&#45;&gt;n0x238cd90</title>
<path fill="none" stroke="#000000" d="M1109.8365,-300.4314C1130.5989,-291.1348 1159.9716,-277.9829 1182.8697,-267.73"/>
<polygon fill="#000000" stroke="#000000" points="1184.5463,-270.8142 1192.2428,-263.5331 1181.6856,-264.4254 1184.5463,-270.8142"/>
</g>
<!-- n0x238cc50 -->
<g id="node38" class="node">
<title>n0x238cc50</title>
<polygon fill="none" stroke="#000000" points="1031.5,-180.5 1031.5,-203.5 1156.5,-203.5 1156.5,-180.5 1031.5,-180.5"/>
<text text-anchor="middle" x="1058" y="-188.3" font-family="Times,serif" font-size="14.00" fill="#000000">texto</text>
<polyline fill="none" stroke="#000000" points="1084.5,-180.5 1084.5,-203.5 "/>
<text text-anchor="middle" x="1120.5" y="-188.3" font-family="Times,serif" font-size="14.00" fill="#000000">_const1</text>
</g>
<!-- n0x238cca0&#45;&gt;n0x238cc50 -->
<g id="edge31" class="edge">
<title>n0x238cca0&#45;&gt;n0x238cc50</title>
<path fill="none" stroke="#000000" d="M1085.9281,-240.4314C1087.2008,-232.7949 1088.9072,-222.5571 1090.4231,-213.4615"/>
<polygon fill="#000000" stroke="#000000" points="1093.8861,-213.9725 1092.0778,-203.5331 1086.9814,-212.8216 1093.8861,-213.9725"/>
</g>
<!-- n0x238cd40 -->
<g id="node40" class="node">
<title>n0x238cd40</title>
<polygon fill="none" stroke="#000000" points="1174.5,-180.5 1174.5,-203.5 1261.5,-203.5 1261.5,-180.5 1174.5,-180.5"/>
<text text-anchor="middle" x="1207.5" y="-188.3" font-family="Times,serif" font-size="14.00" fill="#000000">escrita</text>
<polyline fill="none" stroke="#000000" points="1240.5,-180.5 1240.5,-203.5 "/>
<text text-anchor="middle" x="1251" y="-188.3" font-family="Times,serif" font-size="14.00" fill="#000000"> </text>
</g>
<!-- n0x238cd90&#45;&gt;n0x238cd40 -->
<g id="edge34" class="edge">
<title>n0x238cd90&#45;&gt;n0x238cd40</title>
<path fill="none" stroke="#000000" d="M1218,-240.4314C1218,-232.8779 1218,-222.7793 1218,-213.7585"/>
<polygon fill="#000000" stroke="#000000" points="1221.5001,-213.5331 1218,-203.5331 1214.5001,-213.5331 1221.5001,-213.5331"/>
</g>
<!-- n0x238ccf0 -->
<g id="node41" class="node">
<title>n0x238ccf0</title>
<polygon fill="none" stroke="#000000" points="1163,-120.5 1163,-143.5 1273,-143.5 1273,-120.5 1163,-120.5"/>
<text text-anchor="middle" x="1200" y="-128.3" font-family="Times,serif" font-size="14.00" fill="#000000">variavel</text>
<polyline fill="none" stroke="#000000" points="1237,-120.5 1237,-143.5 "/>
<text text-anchor="middle" x="1255" y="-128.3" font-family="Times,serif" font-size="14.00" fill="#000000">fat</text>
</g>
<!-- n0x238cd40&#45;&gt;n0x238ccf0 -->
<g id="edge33" class="edge">
<title>n0x238cd40&#45;&gt;n0x238ccf0</title>
<path fill="none" stroke="#000000" d="M1218,-180.4314C1218,-172.8779 1218,-162.7793 1218,-153.7585"/>
<polygon fill="#000000" stroke="#000000" points="1221.5001,-153.5331 1218,-143.5331 1214.5001,-153.5331 1221.5001,-153.5331"/>
</g>
</g>
</svg>
