<?xml version="1.0" encoding="UTF-8" standalone="no"?>
<!DOCTYPE svg PUBLIC "-//W3C//DTD SVG 1.1//EN"
 "http://www.w3.org/Graphics/SVG/1.1/DTD/svg11.dtd">
<!-- Generated by graphviz version 2.40.1 (0)
 -->
<!-- Title: %3 Pages: 1 -->
<svg width="1443pt" height="632pt"
 viewBox="0.00 0.00 1443.00 632.00" xmlns="http://www.w3.org/2000/svg" xmlns:xlink="http://www.w3.org/1999/xlink">
<g id="graph0" class="graph" transform="scale(1 1) rotate(0) translate(4 628)">
<title>%3</title>
<polygon fill="#ffffff" stroke="transparent" points="-4,4 -4,-628 1439,-628 1439,4 -4,4"/>
<!-- n0x22b9d90 -->
<g id="node1" class="node">
<title>n0x22b9d90</title>
<polygon fill="none" stroke="#000000" points="233.5,-600.5 233.5,-623.5 340.5,-623.5 340.5,-600.5 233.5,-600.5"/>
<text text-anchor="middle" x="276.5" y="-608.3" font-family="Times,serif" font-size="14.00" fill="#000000">programa</text>
<polyline fill="none" stroke="#000000" points="319.5,-600.5 319.5,-623.5 "/>
<text text-anchor="middle" x="330" y="-608.3" font-family="Times,serif" font-size="14.00" fill="#000000"> </text>
</g>
<!-- n0x22b92f0 -->
<g id="node2" class="node">
<title>n0x22b92f0</title>
<polygon fill="none" stroke="#000000" points="0,-540.5 0,-563.5 166,-563.5 166,-540.5 0,-540.5"/>
<text text-anchor="middle" x="54" y="-548.3" font-family="Times,serif" font-size="14.00" fill="#000000">identificador</text>
<polyline fill="none" stroke="#000000" points="108,-540.5 108,-563.5 "/>
<text text-anchor="middle" x="137" y="-548.3" font-family="Times,serif" font-size="14.00" fill="#000000">maior</text>
</g>
<!-- n0x22b9d90&#45;&gt;n0x22b92f0 -->
<g id="edge1" class="edge">
<title>n0x22b9d90&#45;&gt;n0x22b92f0</title>
<path fill="none" stroke="#000000" d="M247.6667,-600.4314C214.6474,-590.7198 167.3231,-576.8009 131.8742,-566.3748"/>
<polygon fill="#000000" stroke="#000000" points="132.7938,-562.997 122.2125,-563.5331 130.8186,-569.7126 132.7938,-562.997"/>
</g>
<!-- n0x22b94d0 -->
<g id="node3" class="node">
<title>n0x22b94d0</title>
<polygon fill="none" stroke="#000000" points="184,-540.5 184,-563.5 390,-563.5 390,-540.5 184,-540.5"/>
<text text-anchor="middle" x="276.5" y="-548.3" font-family="Times,serif" font-size="14.00" fill="#000000">declaracao de variaveis</text>
<polyline fill="none" stroke="#000000" points="369,-540.5 369,-563.5 "/>
<text text-anchor="middle" x="379.5" y="-548.3" font-family="Times,serif" font-size="14.00" fill="#000000"> </text>
</g>
<!-- n0x22b9d90&#45;&gt;n0x22b94d0 -->
<g id="edge7" class="edge">
<title>n0x22b9d90&#45;&gt;n0x22b94d0</title>
<path fill="none" stroke="#000000" d="M287,-600.4314C287,-592.8779 287,-582.7793 287,-573.7585"/>
<polygon fill="#000000" stroke="#000000" points="290.5001,-573.5331 287,-563.5331 283.5001,-573.5331 290.5001,-573.5331"/>
</g>
<!-- n0x22b9d40 -->
<g id="node9" class="node">
<title>n0x22b9d40</title>
<polygon fill="none" stroke="#000000" points="408.5,-540.5 408.5,-563.5 553.5,-563.5 553.5,-540.5 408.5,-540.5"/>
<text text-anchor="middle" x="470.5" y="-548.3" font-family="Times,serif" font-size="14.00" fill="#000000">lista comandos</text>
<polyline fill="none" stroke="#000000" points="532.5,-540.5 532.5,-563.5 "/>
<text text-anchor="middle" x="543" y="-548.3" font-family="Times,serif" font-size="14.00" fill="#000000"> </text>
</g>
<!-- n0x22b9d90&#45;&gt;n0x22b9d40 -->
<g id="edge34" class="edge">
<title>n0x22b9d90&#45;&gt;n0x22b9d40</title>
<path fill="none" stroke="#000000" d="M324.4052,-600.4314C355.6717,-590.7613 400.426,-576.9198 434.0888,-566.5086"/>
<polygon fill="#000000" stroke="#000000" points="435.1903,-569.8316 443.7097,-563.5331 433.122,-563.1441 435.1903,-569.8316"/>
</g>
<!-- n0x22b9340 -->
<g id="node4" class="node">
<title>n0x22b9340</title>
<polygon fill="none" stroke="#000000" points="98,-480.5 98,-503.5 206,-503.5 206,-480.5 98,-480.5"/>
<text text-anchor="middle" x="120" y="-488.3" font-family="Times,serif" font-size="14.00" fill="#000000">tipo</text>
<polyline fill="none" stroke="#000000" points="142,-480.5 142,-503.5 "/>
<text text-anchor="middle" x="174" y="-488.3" font-family="Times,serif" font-size="14.00" fill="#000000">inteiro</text>
</g>
<!-- n0x22b94d0&#45;&gt;n0x22b9340 -->
<g id="edge2" class="edge">
<title>n0x22b94d0&#45;&gt;n0x22b9340</title>
<path fill="none" stroke="#000000" d="M260.9706,-540.4314C240.0534,-531.1348 210.4615,-517.9829 187.3925,-507.73"/>
<polygon fill="#000000" stroke="#000000" points="188.5091,-504.3962 177.9494,-503.5331 185.6661,-510.7929 188.5091,-504.3962"/>
</g>
<!-- n0x22b9430 -->
<g id="node5" class="node">
<title>n0x22b9430</title>
<polygon fill="none" stroke="#000000" points="224.5,-480.5 224.5,-503.5 361.5,-503.5 361.5,-480.5 224.5,-480.5"/>
<text text-anchor="middle" x="282.5" y="-488.3" font-family="Times,serif" font-size="14.00" fill="#000000">lista variaveis</text>
<polyline fill="none" stroke="#000000" points="340.5,-480.5 340.5,-503.5 "/>
<text text-anchor="middle" x="351" y="-488.3" font-family="Times,serif" font-size="14.00" fill="#000000"> </text>
</g>
<!-- n0x22b94d0&#45;&gt;n0x22b9430 -->
<g id="edge6" class="edge">
<title>n0x22b94d0&#45;&gt;n0x22b9430</title>
<path fill="none" stroke="#000000" d="M288.1569,-540.4314C288.9122,-532.8779 289.9221,-522.7793 290.8242,-513.7585"/>
<polygon fill="#000000" stroke="#000000" points="294.3342,-513.8318 291.8467,-503.5331 287.3689,-513.1352 294.3342,-513.8318"/>
</g>
<!-- n0x22b9390 -->
<g id="node6" class="node">
<title>n0x22b9390</title>
<polygon fill="none" stroke="#000000" points="81.5,-420.5 81.5,-443.5 218.5,-443.5 218.5,-420.5 81.5,-420.5"/>
<text text-anchor="middle" x="139.5" y="-428.3" font-family="Times,serif" font-size="14.00" fill="#000000">lista variaveis</text>
<polyline fill="none" stroke="#000000" points="197.5,-420.5 197.5,-443.5 "/>
<text text-anchor="middle" x="208" y="-428.3" font-family="Times,serif" font-size="14.00" fill="#000000"> </text>
</g>
<!-- n0x22b9430&#45;&gt;n0x22b9390 -->
<g id="edge4" class="edge">
<title>n0x22b9430&#45;&gt;n0x22b9390</title>
<path fill="none" stroke="#000000" d="M265.4282,-480.4314C243.0735,-471.0518 211.3654,-457.7477 186.8369,-447.4561"/>
<polygon fill="#000000" stroke="#000000" points="188.0626,-444.1748 177.4872,-443.5331 185.3542,-450.6296 188.0626,-444.1748"/>
</g>
<!-- n0x22b9480 -->
<g id="node8" class="node">
<title>n0x22b9480</title>
<polygon fill="none" stroke="#000000" points="237,-420.5 237,-443.5 371,-443.5 371,-420.5 237,-420.5"/>
<text text-anchor="middle" x="291" y="-428.3" font-family="Times,serif" font-size="14.00" fill="#000000">identificador</text>
<polyline fill="none" stroke="#000000" points="345,-420.5 345,-443.5 "/>
<text text-anchor="middle" x="358" y="-428.3" font-family="Times,serif" font-size="14.00" fill="#000000">b</text>
</g>
<!-- n0x22b9430&#45;&gt;n0x22b9480 -->
<g id="edge5" class="edge">
<title>n0x22b9430&#45;&gt;n0x22b9480</title>
<path fill="none" stroke="#000000" d="M295.1209,-480.4314C296.5209,-472.7949 298.3979,-462.5571 300.0654,-453.4615"/>
<polygon fill="#000000" stroke="#000000" points="303.5249,-454.0003 301.8856,-443.5331 296.6396,-452.738 303.5249,-454.0003"/>
</g>
<!-- n0x22b93e0 -->
<g id="node7" class="node">
<title>n0x22b93e0</title>
<polygon fill="none" stroke="#000000" points="83.5,-360.5 83.5,-383.5 216.5,-383.5 216.5,-360.5 83.5,-360.5"/>
<text text-anchor="middle" x="137.5" y="-368.3" font-family="Times,serif" font-size="14.00" fill="#000000">identificador</text>
<polyline fill="none" stroke="#000000" points="191.5,-360.5 191.5,-383.5 "/>
<text text-anchor="middle" x="204" y="-368.3" font-family="Times,serif" font-size="14.00" fill="#000000">a</text>
</g>
<!-- n0x22b9390&#45;&gt;n0x22b93e0 -->
<g id="edge3" class="edge">
<title>n0x22b9390&#45;&gt;n0x22b93e0</title>
<path fill="none" stroke="#000000" d="M150,-420.4314C150,-412.8779 150,-402.7793 150,-393.7585"/>
<polygon fill="#000000" stroke="#000000" points="153.5001,-393.5331 150,-383.5331 146.5001,-393.5331 153.5001,-393.5331"/>
</g>
<!-- n0x22b9570 -->
<g id="node10" class="node">
<title>n0x22b9570</title>
<polygon fill="none" stroke="#000000" points="431.5,-480.5 431.5,-503.5 518.5,-503.5 518.5,-480.5 431.5,-480.5"/>
<text text-anchor="middle" x="464.5" y="-488.3" font-family="Times,serif" font-size="14.00" fill="#000000">escrita</text>
<polyline fill="none" stroke="#000000" points="497.5,-480.5 497.5,-503.5 "/>
<text text-anchor="middle" x="508" y="-488.3" font-family="Times,serif" font-size="14.00" fill="#000000"> </text>
</g>
<!-- n0x22b9d40&#45;&gt;n0x22b9570 -->
<g id="edge9" class="edge">
<title>n0x22b9d40&#45;&gt;n0x22b9570</title>
<path fill="none" stroke="#000000" d="M479.8431,-540.4314C479.0878,-532.8779 478.0779,-522.7793 477.1758,-513.7585"/>
<polygon fill="#000000" stroke="#000000" points="480.6311,-513.1352 476.1533,-503.5331 473.6658,-513.8318 480.6311,-513.1352"/>
</g>
<!-- n0x22b9cf0 -->
<g id="node12" class="node">
<title>n0x22b9cf0</title>
<polygon fill="none" stroke="#000000" points="536.5,-480.5 536.5,-503.5 681.5,-503.5 681.5,-480.5 536.5,-480.5"/>
<text text-anchor="middle" x="598.5" y="-488.3" font-family="Times,serif" font-size="14.00" fill="#000000">lista comandos</text>
<polyline fill="none" stroke="#000000" points="660.5,-480.5 660.5,-503.5 "/>
<text text-anchor="middle" x="671" y="-488.3" font-family="Times,serif" font-size="14.00" fill="#000000"> </text>
</g>
<!-- n0x22b9d40&#45;&gt;n0x22b9cf0 -->
<g id="edge33" class="edge">
<title>n0x22b9d40&#45;&gt;n0x22b9cf0</title>
<path fill="none" stroke="#000000" d="M505.6797,-540.4314C525.4238,-531.1763 553.3195,-518.1002 575.1494,-507.8675"/>
<polygon fill="#000000" stroke="#000000" points="576.827,-510.9466 584.3961,-503.5331 573.8559,-504.6084 576.827,-510.9466"/>
</g>
<!-- n0x22b9520 -->
<g id="node11" class="node">
<title>n0x22b9520</title>
<polygon fill="none" stroke="#000000" points="412.5,-420.5 412.5,-443.5 537.5,-443.5 537.5,-420.5 412.5,-420.5"/>
<text text-anchor="middle" x="439" y="-428.3" font-family="Times,serif" font-size="14.00" fill="#000000">texto</text>
<polyline fill="none" stroke="#000000" points="465.5,-420.5 465.5,-443.5 "/>
<text text-anchor="middle" x="501.5" y="-428.3" font-family="Times,serif" font-size="14.00" fill="#000000">_const0</text>
</g>
<!-- n0x22b9570&#45;&gt;n0x22b9520 -->
<g id="edge8" class="edge">
<title>n0x22b9570&#45;&gt;n0x22b9520</title>
<path fill="none" stroke="#000000" d="M475,-480.4314C475,-472.8779 475,-462.7793 475,-453.7585"/>
<polygon fill="#000000" stroke="#000000" points="478.5001,-453.5331 475,-443.5331 471.5001,-453.5331 478.5001,-453.5331"/>
</g>
<!-- n0x22b95c0 -->
<g id="node13" class="node">
<title>n0x22b95c0</title>
<polygon fill="none" stroke="#000000" points="561.5,-420.5 561.5,-443.5 646.5,-443.5 646.5,-420.5 561.5,-420.5"/>
<text text-anchor="middle" x="593.5" y="-428.3" font-family="Times,serif" font-size="14.00" fill="#000000">leitura</text>
<polyline fill="none" stroke="#000000" points="625.5,-420.5 625.5,-443.5 "/>
<text text-anchor="middle" x="636" y="-428.3" font-family="Times,serif" font-size="14.00" fill="#000000"> </text>
</g>
<!-- n0x22b9cf0&#45;&gt;n0x22b95c0 -->
<g id="edge11" class="edge">
<title>n0x22b9cf0&#45;&gt;n0x22b95c0</title>
<path fill="none" stroke="#000000" d="M608.0359,-480.4314C607.4065,-472.8779 606.5649,-462.7793 605.8132,-453.7585"/>
<polygon fill="#000000" stroke="#000000" points="609.2795,-453.2079 604.9611,-443.5331 602.3037,-453.7892 609.2795,-453.2079"/>
</g>
<!-- n0x22b9ca0 -->
<g id="node15" class="node">
<title>n0x22b9ca0</title>
<polygon fill="none" stroke="#000000" points="664.5,-420.5 664.5,-443.5 809.5,-443.5 809.5,-420.5 664.5,-420.5"/>
<text text-anchor="middle" x="726.5" y="-428.3" font-family="Times,serif" font-size="14.00" fill="#000000">lista comandos</text>
<polyline fill="none" stroke="#000000" points="788.5,-420.5 788.5,-443.5 "/>
<text text-anchor="middle" x="799" y="-428.3" font-family="Times,serif" font-size="14.00" fill="#000000"> </text>
</g>
<!-- n0x22b9cf0&#45;&gt;n0x22b9ca0 -->
<g id="edge32" class="edge">
<title>n0x22b9cf0&#45;&gt;n0x22b9ca0</title>
<path fill="none" stroke="#000000" d="M633.6797,-480.4314C653.4238,-471.1763 681.3195,-458.1002 703.1494,-447.8675"/>
<polygon fill="#000000" stroke="#000000" points="704.827,-450.9466 712.3961,-443.5331 701.8559,-444.6084 704.827,-450.9466"/>
</g>
<!-- n0x22b9610 -->
<g id="node14" class="node">
<title>n0x22b9610</title>
<polygon fill="none" stroke="#000000" points="537.5,-360.5 537.5,-383.5 670.5,-383.5 670.5,-360.5 537.5,-360.5"/>
<text text-anchor="middle" x="591.5" y="-368.3" font-family="Times,serif" font-size="14.00" fill="#000000">identificador</text>
<polyline fill="none" stroke="#000000" points="645.5,-360.5 645.5,-383.5 "/>
<text text-anchor="middle" x="658" y="-368.3" font-family="Times,serif" font-size="14.00" fill="#000000">a</text>
</g>
<!-- n0x22b95c0&#45;&gt;n0x22b9610 -->
<g id="edge10" class="edge">
<title>n0x22b95c0&#45;&gt;n0x22b9610</title>
<path fill="none" stroke="#000000" d="M604,-420.4314C604,-412.8779 604,-402.7793 604,-393.7585"/>
<polygon fill="#000000" stroke="#000000" points="607.5001,-393.5331 604,-383.5331 600.5001,-393.5331 607.5001,-393.5331"/>
</g>
<!-- n0x22b96b0 -->
<g id="node16" class="node">
<title>n0x22b96b0</title>
<polygon fill="none" stroke="#000000" points="690.5,-360.5 690.5,-383.5 777.5,-383.5 777.5,-360.5 690.5,-360.5"/>
<text text-anchor="middle" x="723.5" y="-368.3" font-family="Times,serif" font-size="14.00" fill="#000000">escrita</text>
<polyline fill="none" stroke="#000000" points="756.5,-360.5 756.5,-383.5 "/>
<text text-anchor="middle" x="767" y="-368.3" font-family="Times,serif" font-size="14.00" fill="#000000"> </text>
</g>
<!-- n0x22b9ca0&#45;&gt;n0x22b96b0 -->
<g id="edge13" class="edge">
<title>n0x22b9ca0&#45;&gt;n0x22b96b0</title>
<path fill="none" stroke="#000000" d="M736.4216,-420.4314C736.0439,-412.8779 735.539,-402.7793 735.0879,-393.7585"/>
<polygon fill="#000000" stroke="#000000" points="738.5718,-393.3458 734.5767,-383.5331 731.5805,-393.6954 738.5718,-393.3458"/>
</g>
<!-- n0x22b9c50 -->
<g id="node18" class="node">
<title>n0x22b9c50</title>
<polygon fill="none" stroke="#000000" points="795.5,-360.5 795.5,-383.5 940.5,-383.5 940.5,-360.5 795.5,-360.5"/>
<text text-anchor="middle" x="857.5" y="-368.3" font-family="Times,serif" font-size="14.00" fill="#000000">lista comandos</text>
<polyline fill="none" stroke="#000000" points="919.5,-360.5 919.5,-383.5 "/>
<text text-anchor="middle" x="930" y="-368.3" font-family="Times,serif" font-size="14.00" fill="#000000"> </text>
</g>
<!-- n0x22b9ca0&#45;&gt;n0x22b9c50 -->
<g id="edge31" class="edge">
<title>n0x22b9ca0&#45;&gt;n0x22b9c50</title>
<path fill="none" stroke="#000000" d="M762.2581,-420.4314C782.5556,-411.1348 811.2707,-397.9829 833.6562,-387.73"/>
<polygon fill="#000000" stroke="#000000" points="835.1851,-390.8794 842.8194,-383.5331 832.2702,-384.5152 835.1851,-390.8794"/>
</g>
<!-- n0x22b9660 -->
<g id="node17" class="node">
<title>n0x22b9660</title>
<polygon fill="none" stroke="#000000" points="671.5,-300.5 671.5,-323.5 796.5,-323.5 796.5,-300.5 671.5,-300.5"/>
<text text-anchor="middle" x="698" y="-308.3" font-family="Times,serif" font-size="14.00" fill="#000000">texto</text>
<polyline fill="none" stroke="#000000" points="724.5,-300.5 724.5,-323.5 "/>
<text text-anchor="middle" x="760.5" y="-308.3" font-family="Times,serif" font-size="14.00" fill="#000000">_const1</text>
</g>
<!-- n0x22b96b0&#45;&gt;n0x22b9660 -->
<g id="edge12" class="edge">
<title>n0x22b96b0&#45;&gt;n0x22b9660</title>
<path fill="none" stroke="#000000" d="M734,-360.4314C734,-352.8779 734,-342.7793 734,-333.7585"/>
<polygon fill="#000000" stroke="#000000" points="737.5001,-333.5331 734,-323.5331 730.5001,-333.5331 737.5001,-333.5331"/>
</g>
<!-- n0x22b9700 -->
<g id="node19" class="node">
<title>n0x22b9700</title>
<polygon fill="none" stroke="#000000" points="819.5,-300.5 819.5,-323.5 904.5,-323.5 904.5,-300.5 819.5,-300.5"/>
<text text-anchor="middle" x="851.5" y="-308.3" font-family="Times,serif" font-size="14.00" fill="#000000">leitura</text>
<polyline fill="none" stroke="#000000" points="883.5,-300.5 883.5,-323.5 "/>
<text text-anchor="middle" x="894" y="-308.3" font-family="Times,serif" font-size="14.00" fill="#000000"> </text>
</g>
<!-- n0x22b9c50&#45;&gt;n0x22b9700 -->
<g id="edge15" class="edge">
<title>n0x22b9c50&#45;&gt;n0x22b9700</title>
<path fill="none" stroke="#000000" d="M866.8431,-360.4314C866.0878,-352.8779 865.0779,-342.7793 864.1758,-333.7585"/>
<polygon fill="#000000" stroke="#000000" points="867.6311,-333.1352 863.1533,-323.5331 860.6658,-333.8318 867.6311,-333.1352"/>
</g>
<!-- n0x22b9c00 -->
<g id="node21" class="node">
<title>n0x22b9c00</title>
<polygon fill="none" stroke="#000000" points="922.5,-300.5 922.5,-323.5 1067.5,-323.5 1067.5,-300.5 922.5,-300.5"/>
<text text-anchor="middle" x="984.5" y="-308.3" font-family="Times,serif" font-size="14.00" fill="#000000">lista comandos</text>
<polyline fill="none" stroke="#000000" points="1046.5,-300.5 1046.5,-323.5 "/>
<text text-anchor="middle" x="1057" y="-308.3" font-family="Times,serif" font-size="14.00" fill="#000000"> </text>
</g>
<!-- n0x22b9c50&#45;&gt;n0x22b9c00 -->
<g id="edge30" class="edge">
<title>n0x22b9c50&#45;&gt;n0x22b9c00</title>
<path fill="none" stroke="#000000" d="M892.4869,-360.4314C912.0767,-351.1763 939.7545,-338.1002 961.4138,-327.8675"/>
<polygon fill="#000000" stroke="#000000" points="963.0417,-330.9694 970.5883,-323.5331 960.0515,-324.6402 963.0417,-330.9694"/>
</g>
<!-- n0x22b9750 -->
<g id="node20" class="node">
<title>n0x22b9750</title>
<polygon fill="none" stroke="#000000" points="795,-240.5 795,-263.5 929,-263.5 929,-240.5 795,-240.5"/>
<text text-anchor="middle" x="849" y="-248.3" font-family="Times,serif" font-size="14.00" fill="#000000">identificador</text>
<polyline fill="none" stroke="#000000" points="903,-240.5 903,-263.5 "/>
<text text-anchor="middle" x="916" y="-248.3" font-family="Times,serif" font-size="14.00" fill="#000000">b</text>
</g>
<!-- n0x22b9700&#45;&gt;n0x22b9750 -->
<g id="edge14" class="edge">
<title>n0x22b9700&#45;&gt;n0x22b9750</title>
<path fill="none" stroke="#000000" d="M862,-300.4314C862,-292.8779 862,-282.7793 862,-273.7585"/>
<polygon fill="#000000" stroke="#000000" points="865.5001,-273.5331 862,-263.5331 858.5001,-273.5331 865.5001,-273.5331"/>
</g>
<!-- n0x22b97f0 -->
<g id="node22" class="node">
<title>n0x22b97f0</title>
<polygon fill="none" stroke="#000000" points="949.5,-240.5 949.5,-263.5 1036.5,-263.5 1036.5,-240.5 949.5,-240.5"/>
<text text-anchor="middle" x="982.5" y="-248.3" font-family="Times,serif" font-size="14.00" fill="#000000">escrita</text>
<polyline fill="none" stroke="#000000" points="1015.5,-240.5 1015.5,-263.5 "/>
<text text-anchor="middle" x="1026" y="-248.3" font-family="Times,serif" font-size="14.00" fill="#000000"> </text>
</g>
<!-- n0x22b9c00&#45;&gt;n0x22b97f0 -->
<g id="edge17" class="edge">
<title>n0x22b9c00&#45;&gt;n0x22b97f0</title>
<path fill="none" stroke="#000000" d="M994.6144,-300.4314C994.3626,-292.8779 994.026,-282.7793 993.7253,-273.7585"/>
<polygon fill="#000000" stroke="#000000" points="997.2157,-273.4109 993.3844,-263.5331 990.2196,-273.6442 997.2157,-273.4109"/>
</g>
<!-- n0x22b9bb0 -->
<g id="node24" class="node">
<title>n0x22b9bb0</title>
<polygon fill="none" stroke="#000000" points="1054.5,-240.5 1054.5,-263.5 1199.5,-263.5 1199.5,-240.5 1054.5,-240.5"/>
<text text-anchor="middle" x="1116.5" y="-248.3" font-family="Times,serif" font-size="14.00" fill="#000000">lista comandos</text>
<polyline fill="none" stroke="#000000" points="1178.5,-240.5 1178.5,-263.5 "/>
<text text-anchor="middle" x="1189" y="-248.3" font-family="Times,serif" font-size="14.00" fill="#000000"> </text>
</g>
<!-- n0x22b9c00&#45;&gt;n0x22b9bb0 -->
<g id="edge29" class="edge">
<title>n0x22b9c00&#45;&gt;n0x22b9bb0</title>
<path fill="none" stroke="#000000" d="M1020.4509,-300.4314C1040.9034,-291.1348 1069.8377,-277.9829 1092.394,-267.73"/>
<polygon fill="#000000" stroke="#000000" points="1093.9719,-270.8575 1101.6272,-263.5331 1091.0752,-264.4849 1093.9719,-270.8575"/>
</g>
<!-- n0x22b97a0 -->
<g id="node23" class="node">
<title>n0x22b97a0</title>
<polygon fill="none" stroke="#000000" points="930.5,-180.5 930.5,-203.5 1055.5,-203.5 1055.5,-180.5 930.5,-180.5"/>
<text text-anchor="middle" x="957" y="-188.3" font-family="Times,serif" font-size="14.00" fill="#000000">texto</text>
<polyline fill="none" stroke="#000000" points="983.5,-180.5 983.5,-203.5 "/>
<text text-anchor="middle" x="1019.5" y="-188.3" font-family="Times,serif" font-size="14.00" fill="#000000">_const2</text>
</g>
<!-- n0x22b97f0&#45;&gt;n0x22b97a0 -->
<g id="edge16" class="edge">
<title>n0x22b97f0&#45;&gt;n0x22b97a0</title>
<path fill="none" stroke="#000000" d="M993,-240.4314C993,-232.8779 993,-222.7793 993,-213.7585"/>
<polygon fill="#000000" stroke="#000000" points="996.5001,-213.5331 993,-203.5331 989.5001,-213.5331 996.5001,-213.5331"/>
</g>
<!-- n0x22b9b60 -->
<g id="node25" class="node">
<title>n0x22b9b60</title>
<polygon fill="none" stroke="#000000" points="1081.5,-180.5 1081.5,-203.5 1172.5,-203.5 1172.5,-180.5 1081.5,-180.5"/>
<text text-anchor="middle" x="1116.5" y="-188.3" font-family="Times,serif" font-size="14.00" fill="#000000">selecao</text>
<polyline fill="none" stroke="#000000" points="1151.5,-180.5 1151.5,-203.5 "/>
<text text-anchor="middle" x="1162" y="-188.3" font-family="Times,serif" font-size="14.00" fill="#000000"> </text>
</g>
<!-- n0x22b9bb0&#45;&gt;n0x22b9b60 -->
<g id="edge28" class="edge">
<title>n0x22b9bb0&#45;&gt;n0x22b9b60</title>
<path fill="none" stroke="#000000" d="M1127,-240.4314C1127,-232.8779 1127,-222.7793 1127,-213.7585"/>
<polygon fill="#000000" stroke="#000000" points="1130.5001,-213.5331 1127,-203.5331 1123.5001,-213.5331 1130.5001,-213.5331"/>
</g>
<!-- n0x22b9b10 -->
<g id="node26" class="node">
<title>n0x22b9b10</title>
<polygon fill="none" stroke="#000000" points="891.5,-120.5 891.5,-143.5 1036.5,-143.5 1036.5,-120.5 891.5,-120.5"/>
<text text-anchor="middle" x="953.5" y="-128.3" font-family="Times,serif" font-size="14.00" fill="#000000">lista comandos</text>
<polyline fill="none" stroke="#000000" points="1015.5,-120.5 1015.5,-143.5 "/>
<text text-anchor="middle" x="1026" y="-128.3" font-family="Times,serif" font-size="14.00" fill="#000000"> </text>
</g>
<!-- n0x22b9b60&#45;&gt;n0x22b9b10 -->
<g id="edge20" class="edge">
<title>n0x22b9b60&#45;&gt;n0x22b9b10</title>
<path fill="none" stroke="#000000" d="M1095.572,-180.4314C1069.7526,-170.9273 1032.9865,-157.3938 1004.8799,-147.0478"/>
<polygon fill="#000000" stroke="#000000" points="1005.925,-143.703 995.3316,-143.5331 1003.5069,-150.2721 1005.925,-143.703"/>
</g>
<!-- n0x22b9a20 -->
<g id="node29" class="node">
<title>n0x22b9a20</title>
<polygon fill="none" stroke="#000000" points="1054.5,-120.5 1054.5,-143.5 1199.5,-143.5 1199.5,-120.5 1054.5,-120.5"/>
<text text-anchor="middle" x="1116.5" y="-128.3" font-family="Times,serif" font-size="14.00" fill="#000000">lista comandos</text>
<polyline fill="none" stroke="#000000" points="1178.5,-120.5 1178.5,-143.5 "/>
<text text-anchor="middle" x="1189" y="-128.3" font-family="Times,serif" font-size="14.00" fill="#000000"> </text>
</g>
<!-- n0x22b9b60&#45;&gt;n0x22b9a20 -->
<g id="edge23" class="edge">
<title>n0x22b9b60&#45;&gt;n0x22b9a20</title>
<path fill="none" stroke="#000000" d="M1127,-180.4314C1127,-172.8779 1127,-162.7793 1127,-153.7585"/>
<polygon fill="#000000" stroke="#000000" points="1130.5001,-153.5331 1127,-143.5331 1123.5001,-153.5331 1130.5001,-153.5331"/>
</g>
<!-- n0x22b9930 -->
<g id="node32" class="node">
<title>n0x22b9930</title>
<polygon fill="none" stroke="#000000" points="1217.5,-120.5 1217.5,-143.5 1364.5,-143.5 1364.5,-120.5 1217.5,-120.5"/>
<text text-anchor="middle" x="1280.5" y="-128.3" font-family="Times,serif" font-size="14.00" fill="#000000">negacao (NAO)</text>
<polyline fill="none" stroke="#000000" points="1343.5,-120.5 1343.5,-143.5 "/>
<text text-anchor="middle" x="1354" y="-128.3" font-family="Times,serif" font-size="14.00" fill="#000000"> </text>
</g>
<!-- n0x22b9b60&#45;&gt;n0x22b9930 -->
<g id="edge27" class="edge">
<title>n0x22b9b60&#45;&gt;n0x22b9930</title>
<path fill="none" stroke="#000000" d="M1158.6208,-180.4314C1184.5986,-170.9273 1221.5903,-157.3938 1249.8693,-147.0478"/>
<polygon fill="#000000" stroke="#000000" points="1251.2875,-150.2559 1259.4762,-143.5331 1248.8824,-143.682 1251.2875,-150.2559"/>
</g>
<!-- n0x22b9ac0 -->
<g id="node27" class="node">
<title>n0x22b9ac0</title>
<polygon fill="none" stroke="#000000" points="920.5,-60.5 920.5,-83.5 1007.5,-83.5 1007.5,-60.5 920.5,-60.5"/>
<text text-anchor="middle" x="953.5" y="-68.3" font-family="Times,serif" font-size="14.00" fill="#000000">escrita</text>
<polyline fill="none" stroke="#000000" points="986.5,-60.5 986.5,-83.5 "/>
<text text-anchor="middle" x="997" y="-68.3" font-family="Times,serif" font-size="14.00" fill="#000000"> </text>
</g>
<!-- n0x22b9b10&#45;&gt;n0x22b9ac0 -->
<g id="edge19" class="edge">
<title>n0x22b9b10&#45;&gt;n0x22b9ac0</title>
<path fill="none" stroke="#000000" d="M964,-120.4314C964,-112.8779 964,-102.7793 964,-93.7585"/>
<polygon fill="#000000" stroke="#000000" points="967.5001,-93.5331 964,-83.5331 960.5001,-93.5331 967.5001,-93.5331"/>
</g>
<!-- n0x22b9a70 -->
<g id="node28" class="node">
<title>n0x22b9a70</title>
<polygon fill="none" stroke="#000000" points="914,-.5 914,-23.5 1014,-23.5 1014,-.5 914,-.5"/>
<text text-anchor="middle" x="951" y="-8.3" font-family="Times,serif" font-size="14.00" fill="#000000">variavel</text>
<polyline fill="none" stroke="#000000" points="988,-.5 988,-23.5 "/>
<text text-anchor="middle" x="1001" y="-8.3" font-family="Times,serif" font-size="14.00" fill="#000000">b</text>
</g>
<!-- n0x22b9ac0&#45;&gt;n0x22b9a70 -->
<g id="edge18" class="edge">
<title>n0x22b9ac0&#45;&gt;n0x22b9a70</title>
<path fill="none" stroke="#000000" d="M964,-60.4314C964,-52.8779 964,-42.7793 964,-33.7585"/>
<polygon fill="#000000" stroke="#000000" points="967.5001,-33.5331 964,-23.5331 960.5001,-33.5331 967.5001,-33.5331"/>
</g>
<!-- n0x22b99d0 -->
<g id="node30" class="node">
<title>n0x22b99d0</title>
<polygon fill="none" stroke="#000000" points="1083.5,-60.5 1083.5,-83.5 1170.5,-83.5 1170.5,-60.5 1083.5,-60.5"/>
<text text-anchor="middle" x="1116.5" y="-68.3" font-family="Times,serif" font-size="14.00" fill="#000000">escrita</text>
<polyline fill="none" stroke="#000000" points="1149.5,-60.5 1149.5,-83.5 "/>
<text text-anchor="middle" x="1160" y="-68.3" font-family="Times,serif" font-size="14.00" fill="#000000"> </text>
</g>
<!-- n0x22b9a20&#45;&gt;n0x22b99d0 -->
<g id="edge22" class="edge">
<title>n0x22b9a20&#45;&gt;n0x22b99d0</title>
<path fill="none" stroke="#000000" d="M1127,-120.4314C1127,-112.8779 1127,-102.7793 1127,-93.7585"/>
<polygon fill="#000000" stroke="#000000" points="1130.5001,-93.5331 1127,-83.5331 1123.5001,-93.5331 1130.5001,-93.5331"/>
</g>
<!-- n0x22b9980 -->
<g id="node31" class="node">
<title>n0x22b9980</title>
<polygon fill="none" stroke="#000000" points="1077.5,-.5 1077.5,-23.5 1176.5,-23.5 1176.5,-.5 1077.5,-.5"/>
<text text-anchor="middle" x="1114.5" y="-8.3" font-family="Times,serif" font-size="14.00" fill="#000000">variavel</text>
<polyline fill="none" stroke="#000000" points="1151.5,-.5 1151.5,-23.5 "/>
<text text-anchor="middle" x="1164" y="-8.3" font-family="Times,serif" font-size="14.00" fill="#000000">a</text>
</g>
<!-- n0x22b99d0&#45;&gt;n0x22b9980 -->
<g id="edge21" class="edge">
<title>n0x22b99d0&#45;&gt;n0x22b9980</title>
<path fill="none" stroke="#000000" d="M1127,-60.4314C1127,-52.8779 1127,-42.7793 1127,-33.7585"/>
<polygon fill="#000000" stroke="#000000" points="1130.5001,-33.5331 1127,-23.5331 1123.5001,-33.5331 1130.5001,-33.5331"/>
</g>
<!-- n0x22b98e0 -->
<g id="node33" class="node">
<title>n0x22b98e0</title>
<polygon fill="none" stroke="#000000" points="1216,-60.5 1216,-83.5 1366,-83.5 1366,-60.5 1216,-60.5"/>
<text text-anchor="middle" x="1280.5" y="-68.3" font-family="Times,serif" font-size="14.00" fill="#000000">compara menor</text>
<polyline fill="none" stroke="#000000" points="1345,-60.5 1345,-83.5 "/>
<text text-anchor="middle" x="1355.5" y="-68.3" font-family="Times,serif" font-size="14.00" fill="#000000"> </text>
</g>
<!-- n0x22b9930&#45;&gt;n0x22b98e0 -->
<g id="edge26" class="edge">
<title>n0x22b9930&#45;&gt;n0x22b98e0</title>
<path fill="none" stroke="#000000" d="M1291,-120.4314C1291,-112.8779 1291,-102.7793 1291,-93.7585"/>
<polygon fill="#000000" stroke="#000000" points="1294.5001,-93.5331 1291,-83.5331 1287.5001,-93.5331 1294.5001,-93.5331"/>
</g>
<!-- n0x22b9840 -->
<g id="node34" class="node">
<title>n0x22b9840</title>
<polygon fill="none" stroke="#000000" points="1217.5,-.5 1217.5,-23.5 1316.5,-23.5 1316.5,-.5 1217.5,-.5"/>
<text text-anchor="middle" x="1254.5" y="-8.3" font-family="Times,serif" font-size="14.00" fill="#000000">variavel</text>
<polyline fill="none" stroke="#000000" points="1291.5,-.5 1291.5,-23.5 "/>
<text text-anchor="middle" x="1304" y="-8.3" font-family="Times,serif" font-size="14.00" fill="#000000">a</text>
</g>
<!-- n0x22b98e0&#45;&gt;n0x22b9840 -->
<g id="edge24" class="edge">
<title>n0x22b98e0&#45;&gt;n0x22b9840</title>
<path fill="none" stroke="#000000" d="M1286.3726,-60.4314C1283.2516,-52.6289 1279.0443,-42.1107 1275.348,-32.8699"/>
<polygon fill="#000000" stroke="#000000" points="1278.5769,-31.518 1271.6132,-23.5331 1272.0775,-34.1178 1278.5769,-31.518"/>
</g>
<!-- n0x22b9890 -->
<g id="node35" class="node">
<title>n0x22b9890</title>
<polygon fill="none" stroke="#000000" points="1335,-.5 1335,-23.5 1435,-23.5 1435,-.5 1335,-.5"/>
<text text-anchor="middle" x="1372" y="-8.3" font-family="Times,serif" font-size="14.00" fill="#000000">variavel</text>
<polyline fill="none" stroke="#000000" points="1409,-.5 1409,-23.5 "/>
<text text-anchor="middle" x="1422" y="-8.3" font-family="Times,serif" font-size="14.00" fill="#000000">b</text>
</g>
<!-- n0x22b98e0&#45;&gt;n0x22b9890 -->
<g id="edge25" class="edge">
<title>n0x22b98e0&#45;&gt;n0x22b9890</title>
<path fill="none" stroke="#000000" d="M1309.1241,-60.4314C1323.0385,-51.5499 1342.4658,-39.1495 1358.1789,-29.1199"/>
<polygon fill="#000000" stroke="#000000" points="1360.3854,-31.8637 1366.9315,-23.5331 1356.6191,-25.9633 1360.3854,-31.8637"/>
</g>
</g>
</svg>
