<?xml version="1.0" encoding="UTF-8" standalone="no"?>
<!DOCTYPE svg PUBLIC "-//W3C//DTD SVG 1.1//EN"
 "http://www.w3.org/Graphics/SVG/1.1/DTD/svg11.dtd">
<!-- Generated by graphviz version 2.40.1 (0)
 -->
<!-- Title: %3 Pages: 1 -->
<svg width="1475pt" height="752pt"
 viewBox="0.00 0.00 1474.50 752.00" xmlns="http://www.w3.org/2000/svg" xmlns:xlink="http://www.w3.org/1999/xlink">
<g id="graph0" class="graph" transform="scale(1 1) rotate(0) translate(4 748)">
<title>%3</title>
<polygon fill="#ffffff" stroke="transparent" points="-4,4 -4,-748 1470.5,-748 1470.5,4 -4,4"/>
<!-- n0x21261f0 -->
<g id="node1" class="node">
<title>n0x21261f0</title>
<polygon fill="none" stroke="#000000" points="349.5,-720.5 349.5,-743.5 456.5,-743.5 456.5,-720.5 349.5,-720.5"/>
<text text-anchor="middle" x="392.5" y="-728.3" font-family="Times,serif" font-size="14.00" fill="#000000">programa</text>
<polyline fill="none" stroke="#000000" points="435.5,-720.5 435.5,-743.5 "/>
<text text-anchor="middle" x="446" y="-728.3" font-family="Times,serif" font-size="14.00" fill="#000000"> </text>
</g>
<!-- n0x21252f0 -->
<g id="node2" class="node">
<title>n0x21252f0</title>
<polygon fill="none" stroke="#000000" points="0,-660.5 0,-683.5 282,-683.5 282,-660.5 0,-660.5"/>
<text text-anchor="middle" x="54" y="-668.3" font-family="Times,serif" font-size="14.00" fill="#000000">identificador</text>
<polyline fill="none" stroke="#000000" points="108,-660.5 108,-683.5 "/>
<text text-anchor="middle" x="195" y="-668.3" font-family="Times,serif" font-size="14.00" fill="#000000">maximodivisorcomum</text>
</g>
<!-- n0x21261f0&#45;&gt;n0x21252f0 -->
<g id="edge1" class="edge">
<title>n0x21261f0&#45;&gt;n0x21252f0</title>
<path fill="none" stroke="#000000" d="M352.4838,-720.4314C309.261,-710.5331 246.9528,-696.264 201.1604,-685.7772"/>
<polygon fill="#000000" stroke="#000000" points="201.8901,-682.3538 191.3612,-683.5331 200.3275,-689.1771 201.8901,-682.3538"/>
</g>
<!-- n0x21254d0 -->
<g id="node3" class="node">
<title>n0x21254d0</title>
<polygon fill="none" stroke="#000000" points="300,-660.5 300,-683.5 506,-683.5 506,-660.5 300,-660.5"/>
<text text-anchor="middle" x="392.5" y="-668.3" font-family="Times,serif" font-size="14.00" fill="#000000">declaracao de variaveis</text>
<polyline fill="none" stroke="#000000" points="485,-660.5 485,-683.5 "/>
<text text-anchor="middle" x="495.5" y="-668.3" font-family="Times,serif" font-size="14.00" fill="#000000"> </text>
</g>
<!-- n0x21261f0&#45;&gt;n0x21254d0 -->
<g id="edge7" class="edge">
<title>n0x21261f0&#45;&gt;n0x21254d0</title>
<path fill="none" stroke="#000000" d="M403,-720.4314C403,-712.8779 403,-702.7793 403,-693.7585"/>
<polygon fill="#000000" stroke="#000000" points="406.5001,-693.5331 403,-683.5331 399.5001,-693.5331 406.5001,-693.5331"/>
</g>
<!-- n0x21261a0 -->
<g id="node9" class="node">
<title>n0x21261a0</title>
<polygon fill="none" stroke="#000000" points="524.5,-660.5 524.5,-683.5 669.5,-683.5 669.5,-660.5 524.5,-660.5"/>
<text text-anchor="middle" x="586.5" y="-668.3" font-family="Times,serif" font-size="14.00" fill="#000000">lista comandos</text>
<polyline fill="none" stroke="#000000" points="648.5,-660.5 648.5,-683.5 "/>
<text text-anchor="middle" x="659" y="-668.3" font-family="Times,serif" font-size="14.00" fill="#000000"> </text>
</g>
<!-- n0x21261f0&#45;&gt;n0x21261a0 -->
<g id="edge48" class="edge">
<title>n0x21261f0&#45;&gt;n0x21261a0</title>
<path fill="none" stroke="#000000" d="M440.4052,-720.4314C471.6717,-710.7613 516.426,-696.9198 550.0888,-686.5086"/>
<polygon fill="#000000" stroke="#000000" points="551.1903,-689.8316 559.7097,-683.5331 549.122,-683.1441 551.1903,-689.8316"/>
</g>
<!-- n0x2125340 -->
<g id="node4" class="node">
<title>n0x2125340</title>
<polygon fill="none" stroke="#000000" points="214,-600.5 214,-623.5 322,-623.5 322,-600.5 214,-600.5"/>
<text text-anchor="middle" x="236" y="-608.3" font-family="Times,serif" font-size="14.00" fill="#000000">tipo</text>
<polyline fill="none" stroke="#000000" points="258,-600.5 258,-623.5 "/>
<text text-anchor="middle" x="290" y="-608.3" font-family="Times,serif" font-size="14.00" fill="#000000">inteiro</text>
</g>
<!-- n0x21254d0&#45;&gt;n0x2125340 -->
<g id="edge2" class="edge">
<title>n0x21254d0&#45;&gt;n0x2125340</title>
<path fill="none" stroke="#000000" d="M376.9706,-660.4314C356.0534,-651.1348 326.4615,-637.9829 303.3925,-627.73"/>
<polygon fill="#000000" stroke="#000000" points="304.5091,-624.3962 293.9494,-623.5331 301.6661,-630.7929 304.5091,-624.3962"/>
</g>
<!-- n0x2125430 -->
<g id="node5" class="node">
<title>n0x2125430</title>
<polygon fill="none" stroke="#000000" points="340.5,-600.5 340.5,-623.5 477.5,-623.5 477.5,-600.5 340.5,-600.5"/>
<text text-anchor="middle" x="398.5" y="-608.3" font-family="Times,serif" font-size="14.00" fill="#000000">lista variaveis</text>
<polyline fill="none" stroke="#000000" points="456.5,-600.5 456.5,-623.5 "/>
<text text-anchor="middle" x="467" y="-608.3" font-family="Times,serif" font-size="14.00" fill="#000000"> </text>
</g>
<!-- n0x21254d0&#45;&gt;n0x2125430 -->
<g id="edge6" class="edge">
<title>n0x21254d0&#45;&gt;n0x2125430</title>
<path fill="none" stroke="#000000" d="M404.1569,-660.4314C404.9122,-652.8779 405.9221,-642.7793 406.8242,-633.7585"/>
<polygon fill="#000000" stroke="#000000" points="410.3342,-633.8318 407.8467,-623.5331 403.3689,-633.1352 410.3342,-633.8318"/>
</g>
<!-- n0x2125390 -->
<g id="node6" class="node">
<title>n0x2125390</title>
<polygon fill="none" stroke="#000000" points="197.5,-540.5 197.5,-563.5 334.5,-563.5 334.5,-540.5 197.5,-540.5"/>
<text text-anchor="middle" x="255.5" y="-548.3" font-family="Times,serif" font-size="14.00" fill="#000000">lista variaveis</text>
<polyline fill="none" stroke="#000000" points="313.5,-540.5 313.5,-563.5 "/>
<text text-anchor="middle" x="324" y="-548.3" font-family="Times,serif" font-size="14.00" fill="#000000"> </text>
</g>
<!-- n0x2125430&#45;&gt;n0x2125390 -->
<g id="edge4" class="edge">
<title>n0x2125430&#45;&gt;n0x2125390</title>
<path fill="none" stroke="#000000" d="M381.4282,-600.4314C359.0735,-591.0518 327.3654,-577.7477 302.8369,-567.4561"/>
<polygon fill="#000000" stroke="#000000" points="304.0626,-564.1748 293.4872,-563.5331 301.3542,-570.6296 304.0626,-564.1748"/>
</g>
<!-- n0x2125480 -->
<g id="node8" class="node">
<title>n0x2125480</title>
<polygon fill="none" stroke="#000000" points="353,-540.5 353,-563.5 487,-563.5 487,-540.5 353,-540.5"/>
<text text-anchor="middle" x="407" y="-548.3" font-family="Times,serif" font-size="14.00" fill="#000000">identificador</text>
<polyline fill="none" stroke="#000000" points="461,-540.5 461,-563.5 "/>
<text text-anchor="middle" x="474" y="-548.3" font-family="Times,serif" font-size="14.00" fill="#000000">b</text>
</g>
<!-- n0x2125430&#45;&gt;n0x2125480 -->
<g id="edge5" class="edge">
<title>n0x2125430&#45;&gt;n0x2125480</title>
<path fill="none" stroke="#000000" d="M411.1209,-600.4314C412.5209,-592.7949 414.3979,-582.5571 416.0654,-573.4615"/>
<polygon fill="#000000" stroke="#000000" points="419.5249,-574.0003 417.8856,-563.5331 412.6396,-572.738 419.5249,-574.0003"/>
</g>
<!-- n0x21253e0 -->
<g id="node7" class="node">
<title>n0x21253e0</title>
<polygon fill="none" stroke="#000000" points="199.5,-480.5 199.5,-503.5 332.5,-503.5 332.5,-480.5 199.5,-480.5"/>
<text text-anchor="middle" x="253.5" y="-488.3" font-family="Times,serif" font-size="14.00" fill="#000000">identificador</text>
<polyline fill="none" stroke="#000000" points="307.5,-480.5 307.5,-503.5 "/>
<text text-anchor="middle" x="320" y="-488.3" font-family="Times,serif" font-size="14.00" fill="#000000">a</text>
</g>
<!-- n0x2125390&#45;&gt;n0x21253e0 -->
<g id="edge3" class="edge">
<title>n0x2125390&#45;&gt;n0x21253e0</title>
<path fill="none" stroke="#000000" d="M266,-540.4314C266,-532.8779 266,-522.7793 266,-513.7585"/>
<polygon fill="#000000" stroke="#000000" points="269.5001,-513.5331 266,-503.5331 262.5001,-513.5331 269.5001,-513.5331"/>
</g>
<!-- n0x2125570 -->
<g id="node10" class="node">
<title>n0x2125570</title>
<polygon fill="none" stroke="#000000" points="547.5,-600.5 547.5,-623.5 634.5,-623.5 634.5,-600.5 547.5,-600.5"/>
<text text-anchor="middle" x="580.5" y="-608.3" font-family="Times,serif" font-size="14.00" fill="#000000">escrita</text>
<polyline fill="none" stroke="#000000" points="613.5,-600.5 613.5,-623.5 "/>
<text text-anchor="middle" x="624" y="-608.3" font-family="Times,serif" font-size="14.00" fill="#000000"> </text>
</g>
<!-- n0x21261a0&#45;&gt;n0x2125570 -->
<g id="edge9" class="edge">
<title>n0x21261a0&#45;&gt;n0x2125570</title>
<path fill="none" stroke="#000000" d="M595.8431,-660.4314C595.0878,-652.8779 594.0779,-642.7793 593.1758,-633.7585"/>
<polygon fill="#000000" stroke="#000000" points="596.6311,-633.1352 592.1533,-623.5331 589.6658,-633.8318 596.6311,-633.1352"/>
</g>
<!-- n0x2126150 -->
<g id="node12" class="node">
<title>n0x2126150</title>
<polygon fill="none" stroke="#000000" points="652.5,-600.5 652.5,-623.5 797.5,-623.5 797.5,-600.5 652.5,-600.5"/>
<text text-anchor="middle" x="714.5" y="-608.3" font-family="Times,serif" font-size="14.00" fill="#000000">lista comandos</text>
<polyline fill="none" stroke="#000000" points="776.5,-600.5 776.5,-623.5 "/>
<text text-anchor="middle" x="787" y="-608.3" font-family="Times,serif" font-size="14.00" fill="#000000"> </text>
</g>
<!-- n0x21261a0&#45;&gt;n0x2126150 -->
<g id="edge47" class="edge">
<title>n0x21261a0&#45;&gt;n0x2126150</title>
<path fill="none" stroke="#000000" d="M621.6797,-660.4314C641.4238,-651.1763 669.3195,-638.1002 691.1494,-627.8675"/>
<polygon fill="#000000" stroke="#000000" points="692.827,-630.9466 700.3961,-623.5331 689.8559,-624.6084 692.827,-630.9466"/>
</g>
<!-- n0x2125520 -->
<g id="node11" class="node">
<title>n0x2125520</title>
<polygon fill="none" stroke="#000000" points="528.5,-540.5 528.5,-563.5 653.5,-563.5 653.5,-540.5 528.5,-540.5"/>
<text text-anchor="middle" x="555" y="-548.3" font-family="Times,serif" font-size="14.00" fill="#000000">texto</text>
<polyline fill="none" stroke="#000000" points="581.5,-540.5 581.5,-563.5 "/>
<text text-anchor="middle" x="617.5" y="-548.3" font-family="Times,serif" font-size="14.00" fill="#000000">_const0</text>
</g>
<!-- n0x2125570&#45;&gt;n0x2125520 -->
<g id="edge8" class="edge">
<title>n0x2125570&#45;&gt;n0x2125520</title>
<path fill="none" stroke="#000000" d="M591,-600.4314C591,-592.8779 591,-582.7793 591,-573.7585"/>
<polygon fill="#000000" stroke="#000000" points="594.5001,-573.5331 591,-563.5331 587.5001,-573.5331 594.5001,-573.5331"/>
</g>
<!-- n0x21255c0 -->
<g id="node13" class="node">
<title>n0x21255c0</title>
<polygon fill="none" stroke="#000000" points="677.5,-540.5 677.5,-563.5 762.5,-563.5 762.5,-540.5 677.5,-540.5"/>
<text text-anchor="middle" x="709.5" y="-548.3" font-family="Times,serif" font-size="14.00" fill="#000000">leitura</text>
<polyline fill="none" stroke="#000000" points="741.5,-540.5 741.5,-563.5 "/>
<text text-anchor="middle" x="752" y="-548.3" font-family="Times,serif" font-size="14.00" fill="#000000"> </text>
</g>
<!-- n0x2126150&#45;&gt;n0x21255c0 -->
<g id="edge11" class="edge">
<title>n0x2126150&#45;&gt;n0x21255c0</title>
<path fill="none" stroke="#000000" d="M724.0359,-600.4314C723.4065,-592.8779 722.5649,-582.7793 721.8132,-573.7585"/>
<polygon fill="#000000" stroke="#000000" points="725.2795,-573.2079 720.9611,-563.5331 718.3037,-573.7892 725.2795,-573.2079"/>
</g>
<!-- n0x2126100 -->
<g id="node15" class="node">
<title>n0x2126100</title>
<polygon fill="none" stroke="#000000" points="780.5,-540.5 780.5,-563.5 925.5,-563.5 925.5,-540.5 780.5,-540.5"/>
<text text-anchor="middle" x="842.5" y="-548.3" font-family="Times,serif" font-size="14.00" fill="#000000">lista comandos</text>
<polyline fill="none" stroke="#000000" points="904.5,-540.5 904.5,-563.5 "/>
<text text-anchor="middle" x="915" y="-548.3" font-family="Times,serif" font-size="14.00" fill="#000000"> </text>
</g>
<!-- n0x2126150&#45;&gt;n0x2126100 -->
<g id="edge46" class="edge">
<title>n0x2126150&#45;&gt;n0x2126100</title>
<path fill="none" stroke="#000000" d="M749.6797,-600.4314C769.4238,-591.1763 797.3195,-578.1002 819.1494,-567.8675"/>
<polygon fill="#000000" stroke="#000000" points="820.827,-570.9466 828.3961,-563.5331 817.8559,-564.6084 820.827,-570.9466"/>
</g>
<!-- n0x2125610 -->
<g id="node14" class="node">
<title>n0x2125610</title>
<polygon fill="none" stroke="#000000" points="653.5,-480.5 653.5,-503.5 786.5,-503.5 786.5,-480.5 653.5,-480.5"/>
<text text-anchor="middle" x="707.5" y="-488.3" font-family="Times,serif" font-size="14.00" fill="#000000">identificador</text>
<polyline fill="none" stroke="#000000" points="761.5,-480.5 761.5,-503.5 "/>
<text text-anchor="middle" x="774" y="-488.3" font-family="Times,serif" font-size="14.00" fill="#000000">a</text>
</g>
<!-- n0x21255c0&#45;&gt;n0x2125610 -->
<g id="edge10" class="edge">
<title>n0x21255c0&#45;&gt;n0x2125610</title>
<path fill="none" stroke="#000000" d="M720,-540.4314C720,-532.8779 720,-522.7793 720,-513.7585"/>
<polygon fill="#000000" stroke="#000000" points="723.5001,-513.5331 720,-503.5331 716.5001,-513.5331 723.5001,-513.5331"/>
</g>
<!-- n0x21256b0 -->
<g id="node16" class="node">
<title>n0x21256b0</title>
<polygon fill="none" stroke="#000000" points="806.5,-480.5 806.5,-503.5 893.5,-503.5 893.5,-480.5 806.5,-480.5"/>
<text text-anchor="middle" x="839.5" y="-488.3" font-family="Times,serif" font-size="14.00" fill="#000000">escrita</text>
<polyline fill="none" stroke="#000000" points="872.5,-480.5 872.5,-503.5 "/>
<text text-anchor="middle" x="883" y="-488.3" font-family="Times,serif" font-size="14.00" fill="#000000"> </text>
</g>
<!-- n0x2126100&#45;&gt;n0x21256b0 -->
<g id="edge13" class="edge">
<title>n0x2126100&#45;&gt;n0x21256b0</title>
<path fill="none" stroke="#000000" d="M852.4216,-540.4314C852.0439,-532.8779 851.539,-522.7793 851.0879,-513.7585"/>
<polygon fill="#000000" stroke="#000000" points="854.5718,-513.3458 850.5767,-503.5331 847.5805,-513.6954 854.5718,-513.3458"/>
</g>
<!-- n0x21260b0 -->
<g id="node18" class="node">
<title>n0x21260b0</title>
<polygon fill="none" stroke="#000000" points="911.5,-480.5 911.5,-503.5 1056.5,-503.5 1056.5,-480.5 911.5,-480.5"/>
<text text-anchor="middle" x="973.5" y="-488.3" font-family="Times,serif" font-size="14.00" fill="#000000">lista comandos</text>
<polyline fill="none" stroke="#000000" points="1035.5,-480.5 1035.5,-503.5 "/>
<text text-anchor="middle" x="1046" y="-488.3" font-family="Times,serif" font-size="14.00" fill="#000000"> </text>
</g>
<!-- n0x2126100&#45;&gt;n0x21260b0 -->
<g id="edge45" class="edge">
<title>n0x2126100&#45;&gt;n0x21260b0</title>
<path fill="none" stroke="#000000" d="M878.2581,-540.4314C898.5556,-531.1348 927.2707,-517.9829 949.6562,-507.73"/>
<polygon fill="#000000" stroke="#000000" points="951.1851,-510.8794 958.8194,-503.5331 948.2702,-504.5152 951.1851,-510.8794"/>
</g>
<!-- n0x2125660 -->
<g id="node17" class="node">
<title>n0x2125660</title>
<polygon fill="none" stroke="#000000" points="787.5,-420.5 787.5,-443.5 912.5,-443.5 912.5,-420.5 787.5,-420.5"/>
<text text-anchor="middle" x="814" y="-428.3" font-family="Times,serif" font-size="14.00" fill="#000000">texto</text>
<polyline fill="none" stroke="#000000" points="840.5,-420.5 840.5,-443.5 "/>
<text text-anchor="middle" x="876.5" y="-428.3" font-family="Times,serif" font-size="14.00" fill="#000000">_const1</text>
</g>
<!-- n0x21256b0&#45;&gt;n0x2125660 -->
<g id="edge12" class="edge">
<title>n0x21256b0&#45;&gt;n0x2125660</title>
<path fill="none" stroke="#000000" d="M850,-480.4314C850,-472.8779 850,-462.7793 850,-453.7585"/>
<polygon fill="#000000" stroke="#000000" points="853.5001,-453.5331 850,-443.5331 846.5001,-453.5331 853.5001,-453.5331"/>
</g>
<!-- n0x2125700 -->
<g id="node19" class="node">
<title>n0x2125700</title>
<polygon fill="none" stroke="#000000" points="935.5,-420.5 935.5,-443.5 1020.5,-443.5 1020.5,-420.5 935.5,-420.5"/>
<text text-anchor="middle" x="967.5" y="-428.3" font-family="Times,serif" font-size="14.00" fill="#000000">leitura</text>
<polyline fill="none" stroke="#000000" points="999.5,-420.5 999.5,-443.5 "/>
<text text-anchor="middle" x="1010" y="-428.3" font-family="Times,serif" font-size="14.00" fill="#000000"> </text>
</g>
<!-- n0x21260b0&#45;&gt;n0x2125700 -->
<g id="edge15" class="edge">
<title>n0x21260b0&#45;&gt;n0x2125700</title>
<path fill="none" stroke="#000000" d="M982.8431,-480.4314C982.0878,-472.8779 981.0779,-462.7793 980.1758,-453.7585"/>
<polygon fill="#000000" stroke="#000000" points="983.6311,-453.1352 979.1533,-443.5331 976.6658,-453.8318 983.6311,-453.1352"/>
</g>
<!-- n0x2126060 -->
<g id="node21" class="node">
<title>n0x2126060</title>
<polygon fill="none" stroke="#000000" points="1040.5,-420.5 1040.5,-443.5 1185.5,-443.5 1185.5,-420.5 1040.5,-420.5"/>
<text text-anchor="middle" x="1102.5" y="-428.3" font-family="Times,serif" font-size="14.00" fill="#000000">lista comandos</text>
<polyline fill="none" stroke="#000000" points="1164.5,-420.5 1164.5,-443.5 "/>
<text text-anchor="middle" x="1175" y="-428.3" font-family="Times,serif" font-size="14.00" fill="#000000"> </text>
</g>
<!-- n0x21260b0&#45;&gt;n0x2126060 -->
<g id="edge44" class="edge">
<title>n0x21260b0&#45;&gt;n0x2126060</title>
<path fill="none" stroke="#000000" d="M1008.8725,-480.4314C1028.7709,-471.1763 1056.8845,-458.1002 1078.8849,-447.8675"/>
<polygon fill="#000000" stroke="#000000" points="1080.6127,-450.924 1088.2039,-443.5331 1077.6606,-444.5769 1080.6127,-450.924"/>
</g>
<!-- n0x2125750 -->
<g id="node20" class="node">
<title>n0x2125750</title>
<polygon fill="none" stroke="#000000" points="908,-360.5 908,-383.5 1042,-383.5 1042,-360.5 908,-360.5"/>
<text text-anchor="middle" x="962" y="-368.3" font-family="Times,serif" font-size="14.00" fill="#000000">identificador</text>
<polyline fill="none" stroke="#000000" points="1016,-360.5 1016,-383.5 "/>
<text text-anchor="middle" x="1029" y="-368.3" font-family="Times,serif" font-size="14.00" fill="#000000">b</text>
</g>
<!-- n0x2125700&#45;&gt;n0x2125750 -->
<g id="edge14" class="edge">
<title>n0x2125700&#45;&gt;n0x2125750</title>
<path fill="none" stroke="#000000" d="M977.4216,-420.4314C977.0439,-412.8779 976.539,-402.7793 976.0879,-393.7585"/>
<polygon fill="#000000" stroke="#000000" points="979.5718,-393.3458 975.5767,-383.5331 972.5805,-393.6954 979.5718,-393.3458"/>
</g>
<!-- n0x2125e30 -->
<g id="node22" class="node">
<title>n0x2125e30</title>
<polygon fill="none" stroke="#000000" points="1060.5,-360.5 1060.5,-383.5 1165.5,-383.5 1165.5,-360.5 1060.5,-360.5"/>
<text text-anchor="middle" x="1102.5" y="-368.3" font-family="Times,serif" font-size="14.00" fill="#000000">repeticao</text>
<polyline fill="none" stroke="#000000" points="1144.5,-360.5 1144.5,-383.5 "/>
<text text-anchor="middle" x="1155" y="-368.3" font-family="Times,serif" font-size="14.00" fill="#000000"> </text>
</g>
<!-- n0x2126060&#45;&gt;n0x2125e30 -->
<g id="edge37" class="edge">
<title>n0x2126060&#45;&gt;n0x2125e30</title>
<path fill="none" stroke="#000000" d="M1113,-420.4314C1113,-412.8779 1113,-402.7793 1113,-393.7585"/>
<polygon fill="#000000" stroke="#000000" points="1116.5001,-393.5331 1113,-383.5331 1109.5001,-393.5331 1116.5001,-393.5331"/>
</g>
<!-- n0x2126010 -->
<g id="node44" class="node">
<title>n0x2126010</title>
<polygon fill="none" stroke="#000000" points="1187.5,-360.5 1187.5,-383.5 1332.5,-383.5 1332.5,-360.5 1187.5,-360.5"/>
<text text-anchor="middle" x="1249.5" y="-368.3" font-family="Times,serif" font-size="14.00" fill="#000000">lista comandos</text>
<polyline fill="none" stroke="#000000" points="1311.5,-360.5 1311.5,-383.5 "/>
<text text-anchor="middle" x="1322" y="-368.3" font-family="Times,serif" font-size="14.00" fill="#000000"> </text>
</g>
<!-- n0x2126060&#45;&gt;n0x2126010 -->
<g id="edge43" class="edge">
<title>n0x2126060&#45;&gt;n0x2126010</title>
<path fill="none" stroke="#000000" d="M1141.3431,-420.4314C1164.4247,-411.0103 1197.2068,-397.6299 1222.4669,-387.3196"/>
<polygon fill="#000000" stroke="#000000" points="1223.8081,-390.5526 1231.7439,-383.5331 1221.1628,-384.0717 1223.8081,-390.5526"/>
</g>
<!-- n0x2125de0 -->
<g id="node23" class="node">
<title>n0x2125de0</title>
<polygon fill="none" stroke="#000000" points="806.5,-300.5 806.5,-323.5 951.5,-323.5 951.5,-300.5 806.5,-300.5"/>
<text text-anchor="middle" x="868.5" y="-308.3" font-family="Times,serif" font-size="14.00" fill="#000000">lista comandos</text>
<polyline fill="none" stroke="#000000" points="930.5,-300.5 930.5,-323.5 "/>
<text text-anchor="middle" x="941" y="-308.3" font-family="Times,serif" font-size="14.00" fill="#000000"> </text>
</g>
<!-- n0x2125e30&#45;&gt;n0x2125de0 -->
<g id="edge32" class="edge">
<title>n0x2125e30&#45;&gt;n0x2125de0</title>
<path fill="none" stroke="#000000" d="M1067.8824,-360.4314C1029.6026,-350.6161 974.5618,-336.503 933.7631,-326.0418"/>
<polygon fill="#000000" stroke="#000000" points="934.535,-322.6266 923.979,-323.5331 932.7963,-329.4072 934.535,-322.6266"/>
</g>
<!-- n0x2125890 -->
<g id="node40" class="node">
<title>n0x2125890</title>
<polygon fill="none" stroke="#000000" points="1039.5,-300.5 1039.5,-323.5 1186.5,-323.5 1186.5,-300.5 1039.5,-300.5"/>
<text text-anchor="middle" x="1102.5" y="-308.3" font-family="Times,serif" font-size="14.00" fill="#000000">negacao (NAO)</text>
<polyline fill="none" stroke="#000000" points="1165.5,-300.5 1165.5,-323.5 "/>
<text text-anchor="middle" x="1176" y="-308.3" font-family="Times,serif" font-size="14.00" fill="#000000"> </text>
</g>
<!-- n0x2125e30&#45;&gt;n0x2125890 -->
<g id="edge36" class="edge">
<title>n0x2125e30&#45;&gt;n0x2125890</title>
<path fill="none" stroke="#000000" d="M1113,-360.4314C1113,-352.8779 1113,-342.7793 1113,-333.7585"/>
<polygon fill="#000000" stroke="#000000" points="1116.5001,-333.5331 1113,-323.5331 1109.5001,-333.5331 1116.5001,-333.5331"/>
</g>
<!-- n0x2125d90 -->
<g id="node24" class="node">
<title>n0x2125d90</title>
<polygon fill="none" stroke="#000000" points="797.5,-240.5 797.5,-263.5 888.5,-263.5 888.5,-240.5 797.5,-240.5"/>
<text text-anchor="middle" x="832.5" y="-248.3" font-family="Times,serif" font-size="14.00" fill="#000000">selecao</text>
<polyline fill="none" stroke="#000000" points="867.5,-240.5 867.5,-263.5 "/>
<text text-anchor="middle" x="878" y="-248.3" font-family="Times,serif" font-size="14.00" fill="#000000"> </text>
</g>
<!-- n0x2125de0&#45;&gt;n0x2125d90 -->
<g id="edge31" class="edge">
<title>n0x2125de0&#45;&gt;n0x2125d90</title>
<path fill="none" stroke="#000000" d="M872.0588,-300.4314C867.2778,-292.4629 860.7971,-281.6619 855.1691,-272.2819"/>
<polygon fill="#000000" stroke="#000000" points="858.0661,-270.3073 849.9199,-263.5331 852.0636,-273.9088 858.0661,-270.3073"/>
</g>
<!-- n0x2125d40 -->
<g id="node25" class="node">
<title>n0x2125d40</title>
<polygon fill="none" stroke="#000000" points="572.5,-180.5 572.5,-203.5 717.5,-203.5 717.5,-180.5 572.5,-180.5"/>
<text text-anchor="middle" x="634.5" y="-188.3" font-family="Times,serif" font-size="14.00" fill="#000000">lista comandos</text>
<polyline fill="none" stroke="#000000" points="696.5,-180.5 696.5,-203.5 "/>
<text text-anchor="middle" x="707" y="-188.3" font-family="Times,serif" font-size="14.00" fill="#000000"> </text>
</g>
<!-- n0x2125d90&#45;&gt;n0x2125d40 -->
<g id="edge21" class="edge">
<title>n0x2125d90&#45;&gt;n0x2125d40</title>
<path fill="none" stroke="#000000" d="M804.8236,-240.4314C772.9123,-230.7613 727.2353,-216.9198 692.8785,-206.5086"/>
<polygon fill="#000000" stroke="#000000" points="693.6445,-203.0836 683.0592,-203.5331 691.6144,-209.7828 693.6445,-203.0836"/>
</g>
<!-- n0x2125b60 -->
<g id="node31" class="node">
<title>n0x2125b60</title>
<polygon fill="none" stroke="#000000" points="735.5,-180.5 735.5,-203.5 880.5,-203.5 880.5,-180.5 735.5,-180.5"/>
<text text-anchor="middle" x="797.5" y="-188.3" font-family="Times,serif" font-size="14.00" fill="#000000">lista comandos</text>
<polyline fill="none" stroke="#000000" points="859.5,-180.5 859.5,-203.5 "/>
<text text-anchor="middle" x="870" y="-188.3" font-family="Times,serif" font-size="14.00" fill="#000000"> </text>
</g>
<!-- n0x2125d90&#45;&gt;n0x2125b60 -->
<g id="edge27" class="edge">
<title>n0x2125d90&#45;&gt;n0x2125b60</title>
<path fill="none" stroke="#000000" d="M836.2516,-240.4314C831.6034,-232.4629 825.3028,-221.6619 819.8311,-212.2819"/>
<polygon fill="#000000" stroke="#000000" points="822.7896,-210.4073 814.7276,-203.5331 816.7432,-213.9345 822.7896,-210.4073"/>
</g>
<!-- n0x2125980 -->
<g id="node37" class="node">
<title>n0x2125980</title>
<polygon fill="none" stroke="#000000" points="899,-180.5 899,-203.5 1045,-203.5 1045,-180.5 899,-180.5"/>
<text text-anchor="middle" x="961.5" y="-188.3" font-family="Times,serif" font-size="14.00" fill="#000000">compara maior</text>
<polyline fill="none" stroke="#000000" points="1024,-180.5 1024,-203.5 "/>
<text text-anchor="middle" x="1034.5" y="-188.3" font-family="Times,serif" font-size="14.00" fill="#000000"> </text>
</g>
<!-- n0x2125d90&#45;&gt;n0x2125980 -->
<g id="edge30" class="edge">
<title>n0x2125d90&#45;&gt;n0x2125980</title>
<path fill="none" stroke="#000000" d="M867.8725,-240.4314C887.7709,-231.1763 915.8845,-218.1002 937.8849,-207.8675"/>
<polygon fill="#000000" stroke="#000000" points="939.6127,-210.924 947.2039,-203.5331 936.6606,-204.5769 939.6127,-210.924"/>
</g>
<!-- n0x2125ca0 -->
<g id="node26" class="node">
<title>n0x2125ca0</title>
<polygon fill="none" stroke="#000000" points="590,-120.5 590,-143.5 700,-143.5 700,-120.5 590,-120.5"/>
<text text-anchor="middle" x="634.5" y="-128.3" font-family="Times,serif" font-size="14.00" fill="#000000">atribuicao</text>
<polyline fill="none" stroke="#000000" points="679,-120.5 679,-143.5 "/>
<text text-anchor="middle" x="689.5" y="-128.3" font-family="Times,serif" font-size="14.00" fill="#000000"> </text>
</g>
<!-- n0x2125d40&#45;&gt;n0x2125ca0 -->
<g id="edge20" class="edge">
<title>n0x2125d40&#45;&gt;n0x2125ca0</title>
<path fill="none" stroke="#000000" d="M645,-180.4314C645,-172.8779 645,-162.7793 645,-153.7585"/>
<polygon fill="#000000" stroke="#000000" points="648.5001,-153.5331 645,-143.5331 641.5001,-153.5331 648.5001,-153.5331"/>
</g>
<!-- n0x2125cf0 -->
<g id="node27" class="node">
<title>n0x2125cf0</title>
<polygon fill="none" stroke="#000000" points="445.5,-60.5 445.5,-83.5 578.5,-83.5 578.5,-60.5 445.5,-60.5"/>
<text text-anchor="middle" x="499.5" y="-68.3" font-family="Times,serif" font-size="14.00" fill="#000000">identificador</text>
<polyline fill="none" stroke="#000000" points="553.5,-60.5 553.5,-83.5 "/>
<text text-anchor="middle" x="566" y="-68.3" font-family="Times,serif" font-size="14.00" fill="#000000">a</text>
</g>
<!-- n0x2125ca0&#45;&gt;n0x2125cf0 -->
<g id="edge16" class="edge">
<title>n0x2125ca0&#45;&gt;n0x2125cf0</title>
<path fill="none" stroke="#000000" d="M619.3563,-120.4314C598.7489,-111.1348 569.5954,-97.9829 546.8681,-87.73"/>
<polygon fill="#000000" stroke="#000000" points="548.1197,-84.455 537.565,-83.5331 545.2411,-90.8357 548.1197,-84.455"/>
</g>
<!-- n0x2125c50 -->
<g id="node28" class="node">
<title>n0x2125c50</title>
<polygon fill="none" stroke="#000000" points="596.5,-60.5 596.5,-83.5 705.5,-83.5 705.5,-60.5 596.5,-60.5"/>
<text text-anchor="middle" x="640.5" y="-68.3" font-family="Times,serif" font-size="14.00" fill="#000000">subtracao</text>
<polyline fill="none" stroke="#000000" points="684.5,-60.5 684.5,-83.5 "/>
<text text-anchor="middle" x="695" y="-68.3" font-family="Times,serif" font-size="14.00" fill="#000000"> </text>
</g>
<!-- n0x2125ca0&#45;&gt;n0x2125c50 -->
<g id="edge19" class="edge">
<title>n0x2125ca0&#45;&gt;n0x2125c50</title>
<path fill="none" stroke="#000000" d="M646.1569,-120.4314C646.9122,-112.8779 647.9221,-102.7793 648.8242,-93.7585"/>
<polygon fill="#000000" stroke="#000000" points="652.3342,-93.8318 649.8467,-83.5331 645.3689,-93.1352 652.3342,-93.8318"/>
</g>
<!-- n0x2125bb0 -->
<g id="node29" class="node">
<title>n0x2125bb0</title>
<polygon fill="none" stroke="#000000" points="511,-.5 511,-23.5 611,-23.5 611,-.5 511,-.5"/>
<text text-anchor="middle" x="548" y="-8.3" font-family="Times,serif" font-size="14.00" fill="#000000">variavel</text>
<polyline fill="none" stroke="#000000" points="585,-.5 585,-23.5 "/>
<text text-anchor="middle" x="598" y="-8.3" font-family="Times,serif" font-size="14.00" fill="#000000">b</text>
</g>
<!-- n0x2125c50&#45;&gt;n0x2125bb0 -->
<g id="edge17" class="edge">
<title>n0x2125c50&#45;&gt;n0x2125bb0</title>
<path fill="none" stroke="#000000" d="M633.6471,-60.4314C620.3248,-51.5499 601.7242,-39.1495 586.6798,-29.1199"/>
<polygon fill="#000000" stroke="#000000" points="588.5616,-26.168 578.2996,-23.5331 584.6787,-31.9923 588.5616,-26.168"/>
</g>
<!-- n0x2125c00 -->
<g id="node30" class="node">
<title>n0x2125c00</title>
<polygon fill="none" stroke="#000000" points="629.5,-.5 629.5,-23.5 728.5,-23.5 728.5,-.5 629.5,-.5"/>
<text text-anchor="middle" x="666.5" y="-8.3" font-family="Times,serif" font-size="14.00" fill="#000000">variavel</text>
<polyline fill="none" stroke="#000000" points="703.5,-.5 703.5,-23.5 "/>
<text text-anchor="middle" x="716" y="-8.3" font-family="Times,serif" font-size="14.00" fill="#000000">a</text>
</g>
<!-- n0x2125c50&#45;&gt;n0x2125c00 -->
<g id="edge18" class="edge">
<title>n0x2125c50&#45;&gt;n0x2125c00</title>
<path fill="none" stroke="#000000" d="M656.3987,-60.4314C660.0398,-52.6289 664.9483,-42.1107 669.2607,-32.8699"/>
<polygon fill="#000000" stroke="#000000" points="672.5606,-34.075 673.6179,-23.5331 666.2173,-31.1148 672.5606,-34.075"/>
</g>
<!-- n0x2125ac0 -->
<g id="node32" class="node">
<title>n0x2125ac0</title>
<polygon fill="none" stroke="#000000" points="753,-120.5 753,-143.5 863,-143.5 863,-120.5 753,-120.5"/>
<text text-anchor="middle" x="797.5" y="-128.3" font-family="Times,serif" font-size="14.00" fill="#000000">atribuicao</text>
<polyline fill="none" stroke="#000000" points="842,-120.5 842,-143.5 "/>
<text text-anchor="middle" x="852.5" y="-128.3" font-family="Times,serif" font-size="14.00" fill="#000000"> </text>
</g>
<!-- n0x2125b60&#45;&gt;n0x2125ac0 -->
<g id="edge26" class="edge">
<title>n0x2125b60&#45;&gt;n0x2125ac0</title>
<path fill="none" stroke="#000000" d="M808,-180.4314C808,-172.8779 808,-162.7793 808,-153.7585"/>
<polygon fill="#000000" stroke="#000000" points="811.5001,-153.5331 808,-143.5331 804.5001,-153.5331 811.5001,-153.5331"/>
</g>
<!-- n0x2125b10 -->
<g id="node33" class="node">
<title>n0x2125b10</title>
<polygon fill="none" stroke="#000000" points="735,-60.5 735,-83.5 869,-83.5 869,-60.5 735,-60.5"/>
<text text-anchor="middle" x="789" y="-68.3" font-family="Times,serif" font-size="14.00" fill="#000000">identificador</text>
<polyline fill="none" stroke="#000000" points="843,-60.5 843,-83.5 "/>
<text text-anchor="middle" x="856" y="-68.3" font-family="Times,serif" font-size="14.00" fill="#000000">b</text>
</g>
<!-- n0x2125ac0&#45;&gt;n0x2125b10 -->
<g id="edge22" class="edge">
<title>n0x2125ac0&#45;&gt;n0x2125b10</title>
<path fill="none" stroke="#000000" d="M806.8431,-120.4314C806.0878,-112.8779 805.0779,-102.7793 804.1758,-93.7585"/>
<polygon fill="#000000" stroke="#000000" points="807.6311,-93.1352 803.1533,-83.5331 800.6658,-93.8318 807.6311,-93.1352"/>
</g>
<!-- n0x2125a70 -->
<g id="node34" class="node">
<title>n0x2125a70</title>
<polygon fill="none" stroke="#000000" points="887.5,-60.5 887.5,-83.5 996.5,-83.5 996.5,-60.5 887.5,-60.5"/>
<text text-anchor="middle" x="931.5" y="-68.3" font-family="Times,serif" font-size="14.00" fill="#000000">subtracao</text>
<polyline fill="none" stroke="#000000" points="975.5,-60.5 975.5,-83.5 "/>
<text text-anchor="middle" x="986" y="-68.3" font-family="Times,serif" font-size="14.00" fill="#000000"> </text>
</g>
<!-- n0x2125ac0&#45;&gt;n0x2125a70 -->
<g id="edge25" class="edge">
<title>n0x2125ac0&#45;&gt;n0x2125a70</title>
<path fill="none" stroke="#000000" d="M833.8365,-120.4314C854.5989,-111.1348 883.9716,-97.9829 906.8697,-87.73"/>
<polygon fill="#000000" stroke="#000000" points="908.5463,-90.8142 916.2428,-83.5331 905.6856,-84.4254 908.5463,-90.8142"/>
</g>
<!-- n0x21259d0 -->
<g id="node35" class="node">
<title>n0x21259d0</title>
<polygon fill="none" stroke="#000000" points="833.5,-.5 833.5,-23.5 932.5,-23.5 932.5,-.5 833.5,-.5"/>
<text text-anchor="middle" x="870.5" y="-8.3" font-family="Times,serif" font-size="14.00" fill="#000000">variavel</text>
<polyline fill="none" stroke="#000000" points="907.5,-.5 907.5,-23.5 "/>
<text text-anchor="middle" x="920" y="-8.3" font-family="Times,serif" font-size="14.00" fill="#000000">a</text>
</g>
<!-- n0x2125a70&#45;&gt;n0x21259d0 -->
<g id="edge23" class="edge">
<title>n0x2125a70&#45;&gt;n0x21259d0</title>
<path fill="none" stroke="#000000" d="M930.6242,-60.4314C922.3804,-52.0479 911.0536,-40.5291 901.5146,-30.8284"/>
<polygon fill="#000000" stroke="#000000" points="903.8479,-28.2094 894.3409,-23.5331 898.8567,-33.1174 903.8479,-28.2094"/>
</g>
<!-- n0x2125a20 -->
<g id="node36" class="node">
<title>n0x2125a20</title>
<polygon fill="none" stroke="#000000" points="951,-.5 951,-23.5 1051,-23.5 1051,-.5 951,-.5"/>
<text text-anchor="middle" x="988" y="-8.3" font-family="Times,serif" font-size="14.00" fill="#000000">variavel</text>
<polyline fill="none" stroke="#000000" points="1025,-.5 1025,-23.5 "/>
<text text-anchor="middle" x="1038" y="-8.3" font-family="Times,serif" font-size="14.00" fill="#000000">b</text>
</g>
<!-- n0x2125a70&#45;&gt;n0x2125a20 -->
<g id="edge24" class="edge">
<title>n0x2125a70&#45;&gt;n0x2125a20</title>
<path fill="none" stroke="#000000" d="M953.3758,-60.4314C961.6196,-52.0479 972.9464,-40.5291 982.4854,-30.8284"/>
<polygon fill="#000000" stroke="#000000" points="985.1433,-33.1174 989.6591,-23.5331 980.1521,-28.2094 985.1433,-33.1174"/>
</g>
<!-- n0x21258e0 -->
<g id="node38" class="node">
<title>n0x21258e0</title>
<polygon fill="none" stroke="#000000" points="901.5,-120.5 901.5,-143.5 1000.5,-143.5 1000.5,-120.5 901.5,-120.5"/>
<text text-anchor="middle" x="938.5" y="-128.3" font-family="Times,serif" font-size="14.00" fill="#000000">variavel</text>
<polyline fill="none" stroke="#000000" points="975.5,-120.5 975.5,-143.5 "/>
<text text-anchor="middle" x="988" y="-128.3" font-family="Times,serif" font-size="14.00" fill="#000000">a</text>
</g>
<!-- n0x2125980&#45;&gt;n0x21258e0 -->
<g id="edge28" class="edge">
<title>n0x2125980&#45;&gt;n0x21258e0</title>
<path fill="none" stroke="#000000" d="M967.951,-180.4314C965.2492,-172.7119 961.617,-162.3342 958.4079,-153.1653"/>
<polygon fill="#000000" stroke="#000000" points="961.6437,-151.8154 955.0366,-143.5331 955.0366,-154.1279 961.6437,-151.8154"/>
</g>
<!-- n0x2125930 -->
<g id="node39" class="node">
<title>n0x2125930</title>
<polygon fill="none" stroke="#000000" points="1019,-120.5 1019,-143.5 1119,-143.5 1119,-120.5 1019,-120.5"/>
<text text-anchor="middle" x="1056" y="-128.3" font-family="Times,serif" font-size="14.00" fill="#000000">variavel</text>
<polyline fill="none" stroke="#000000" points="1093,-120.5 1093,-143.5 "/>
<text text-anchor="middle" x="1106" y="-128.3" font-family="Times,serif" font-size="14.00" fill="#000000">b</text>
</g>
<!-- n0x2125980&#45;&gt;n0x2125930 -->
<g id="edge29" class="edge">
<title>n0x2125980&#45;&gt;n0x2125930</title>
<path fill="none" stroke="#000000" d="M990.7026,-180.4314C1005.1952,-171.4669 1025.4836,-158.9174 1041.7765,-148.8393"/>
<polygon fill="#000000" stroke="#000000" points="1043.6915,-151.7702 1050.3548,-143.5331 1040.0091,-145.8171 1043.6915,-151.7702"/>
</g>
<!-- n0x2125840 -->
<g id="node41" class="node">
<title>n0x2125840</title>
<polygon fill="none" stroke="#000000" points="1043,-240.5 1043,-263.5 1183,-263.5 1183,-240.5 1043,-240.5"/>
<text text-anchor="middle" x="1102.5" y="-248.3" font-family="Times,serif" font-size="14.00" fill="#000000">compara igual</text>
<polyline fill="none" stroke="#000000" points="1162,-240.5 1162,-263.5 "/>
<text text-anchor="middle" x="1172.5" y="-248.3" font-family="Times,serif" font-size="14.00" fill="#000000"> </text>
</g>
<!-- n0x2125890&#45;&gt;n0x2125840 -->
<g id="edge35" class="edge">
<title>n0x2125890&#45;&gt;n0x2125840</title>
<path fill="none" stroke="#000000" d="M1113,-300.4314C1113,-292.8779 1113,-282.7793 1113,-273.7585"/>
<polygon fill="#000000" stroke="#000000" points="1116.5001,-273.5331 1113,-263.5331 1109.5001,-273.5331 1116.5001,-273.5331"/>
</g>
<!-- n0x21257a0 -->
<g id="node42" class="node">
<title>n0x21257a0</title>
<polygon fill="none" stroke="#000000" points="1063.5,-180.5 1063.5,-203.5 1162.5,-203.5 1162.5,-180.5 1063.5,-180.5"/>
<text text-anchor="middle" x="1100.5" y="-188.3" font-family="Times,serif" font-size="14.00" fill="#000000">variavel</text>
<polyline fill="none" stroke="#000000" points="1137.5,-180.5 1137.5,-203.5 "/>
<text text-anchor="middle" x="1150" y="-188.3" font-family="Times,serif" font-size="14.00" fill="#000000">a</text>
</g>
<!-- n0x2125840&#45;&gt;n0x21257a0 -->
<g id="edge33" class="edge">
<title>n0x2125840&#45;&gt;n0x21257a0</title>
<path fill="none" stroke="#000000" d="M1113,-240.4314C1113,-232.8779 1113,-222.7793 1113,-213.7585"/>
<polygon fill="#000000" stroke="#000000" points="1116.5001,-213.5331 1113,-203.5331 1109.5001,-213.5331 1116.5001,-213.5331"/>
</g>
<!-- n0x21257f0 -->
<g id="node43" class="node">
<title>n0x21257f0</title>
<polygon fill="none" stroke="#000000" points="1181,-180.5 1181,-203.5 1281,-203.5 1281,-180.5 1181,-180.5"/>
<text text-anchor="middle" x="1218" y="-188.3" font-family="Times,serif" font-size="14.00" fill="#000000">variavel</text>
<polyline fill="none" stroke="#000000" points="1255,-180.5 1255,-203.5 "/>
<text text-anchor="middle" x="1268" y="-188.3" font-family="Times,serif" font-size="14.00" fill="#000000">b</text>
</g>
<!-- n0x2125840&#45;&gt;n0x21257f0 -->
<g id="edge34" class="edge">
<title>n0x2125840&#45;&gt;n0x21257f0</title>
<path fill="none" stroke="#000000" d="M1135.7516,-240.4314C1153.79,-231.2593 1179.2089,-218.3345 1199.2512,-208.1435"/>
<polygon fill="#000000" stroke="#000000" points="1200.9908,-211.1855 1208.3183,-203.5331 1197.818,-204.9458 1200.9908,-211.1855"/>
</g>
<!-- n0x2125ed0 -->
<g id="node45" class="node">
<title>n0x2125ed0</title>
<polygon fill="none" stroke="#000000" points="1216.5,-300.5 1216.5,-323.5 1303.5,-323.5 1303.5,-300.5 1216.5,-300.5"/>
<text text-anchor="middle" x="1249.5" y="-308.3" font-family="Times,serif" font-size="14.00" fill="#000000">escrita</text>
<polyline fill="none" stroke="#000000" points="1282.5,-300.5 1282.5,-323.5 "/>
<text text-anchor="middle" x="1293" y="-308.3" font-family="Times,serif" font-size="14.00" fill="#000000"> </text>
</g>
<!-- n0x2126010&#45;&gt;n0x2125ed0 -->
<g id="edge39" class="edge">
<title>n0x2126010&#45;&gt;n0x2125ed0</title>
<path fill="none" stroke="#000000" d="M1260,-360.4314C1260,-352.8779 1260,-342.7793 1260,-333.7585"/>
<polygon fill="#000000" stroke="#000000" points="1263.5001,-333.5331 1260,-323.5331 1256.5001,-333.5331 1263.5001,-333.5331"/>
</g>
<!-- n0x2125fc0 -->
<g id="node47" class="node">
<title>n0x2125fc0</title>
<polygon fill="none" stroke="#000000" points="1321.5,-300.5 1321.5,-323.5 1466.5,-323.5 1466.5,-300.5 1321.5,-300.5"/>
<text text-anchor="middle" x="1383.5" y="-308.3" font-family="Times,serif" font-size="14.00" fill="#000000">lista comandos</text>
<polyline fill="none" stroke="#000000" points="1445.5,-300.5 1445.5,-323.5 "/>
<text text-anchor="middle" x="1456" y="-308.3" font-family="Times,serif" font-size="14.00" fill="#000000"> </text>
</g>
<!-- n0x2126010&#45;&gt;n0x2125fc0 -->
<g id="edge42" class="edge">
<title>n0x2126010&#45;&gt;n0x2125fc0</title>
<path fill="none" stroke="#000000" d="M1285.8365,-360.4314C1306.5989,-351.1348 1335.9716,-337.9829 1358.8697,-327.73"/>
<polygon fill="#000000" stroke="#000000" points="1360.5463,-330.8142 1368.2428,-323.5331 1357.6856,-324.4254 1360.5463,-330.8142"/>
</g>
<!-- n0x2125e80 -->
<g id="node46" class="node">
<title>n0x2125e80</title>
<polygon fill="none" stroke="#000000" points="1201.5,-240.5 1201.5,-263.5 1326.5,-263.5 1326.5,-240.5 1201.5,-240.5"/>
<text text-anchor="middle" x="1228" y="-248.3" font-family="Times,serif" font-size="14.00" fill="#000000">texto</text>
<polyline fill="none" stroke="#000000" points="1254.5,-240.5 1254.5,-263.5 "/>
<text text-anchor="middle" x="1290.5" y="-248.3" font-family="Times,serif" font-size="14.00" fill="#000000">_const2</text>
</g>
<!-- n0x2125ed0&#45;&gt;n0x2125e80 -->
<g id="edge38" class="edge">
<title>n0x2125ed0&#45;&gt;n0x2125e80</title>
<path fill="none" stroke="#000000" d="M1260.7712,-300.4314C1261.2748,-292.8779 1261.948,-282.7793 1262.5494,-273.7585"/>
<polygon fill="#000000" stroke="#000000" points="1266.0581,-273.7438 1263.2311,-263.5331 1259.0736,-273.2781 1266.0581,-273.7438"/>
</g>
<!-- n0x2125f70 -->
<g id="node48" class="node">
<title>n0x2125f70</title>
<polygon fill="none" stroke="#000000" points="1350.5,-240.5 1350.5,-263.5 1437.5,-263.5 1437.5,-240.5 1350.5,-240.5"/>
<text text-anchor="middle" x="1383.5" y="-248.3" font-family="Times,serif" font-size="14.00" fill="#000000">escrita</text>
<polyline fill="none" stroke="#000000" points="1416.5,-240.5 1416.5,-263.5 "/>
<text text-anchor="middle" x="1427" y="-248.3" font-family="Times,serif" font-size="14.00" fill="#000000"> </text>
</g>
<!-- n0x2125fc0&#45;&gt;n0x2125f70 -->
<g id="edge41" class="edge">
<title>n0x2125fc0&#45;&gt;n0x2125f70</title>
<path fill="none" stroke="#000000" d="M1394,-300.4314C1394,-292.8779 1394,-282.7793 1394,-273.7585"/>
<polygon fill="#000000" stroke="#000000" points="1397.5001,-273.5331 1394,-263.5331 1390.5001,-273.5331 1397.5001,-273.5331"/>
</g>
<!-- n0x2125f20 -->
<g id="node49" class="node">
<title>n0x2125f20</title>
<polygon fill="none" stroke="#000000" points="1344.5,-180.5 1344.5,-203.5 1443.5,-203.5 1443.5,-180.5 1344.5,-180.5"/>
<text text-anchor="middle" x="1381.5" y="-188.3" font-family="Times,serif" font-size="14.00" fill="#000000">variavel</text>
<polyline fill="none" stroke="#000000" points="1418.5,-180.5 1418.5,-203.5 "/>
<text text-anchor="middle" x="1431" y="-188.3" font-family="Times,serif" font-size="14.00" fill="#000000">a</text>
</g>
<!-- n0x2125f70&#45;&gt;n0x2125f20 -->
<g id="edge40" class="edge">
<title>n0x2125f70&#45;&gt;n0x2125f20</title>
<path fill="none" stroke="#000000" d="M1394,-240.4314C1394,-232.8779 1394,-222.7793 1394,-213.7585"/>
<polygon fill="#000000" stroke="#000000" points="1397.5001,-213.5331 1394,-203.5331 1390.5001,-213.5331 1397.5001,-213.5331"/>
</g>
</g>
</svg>
