<?xml version="1.0" encoding="UTF-8" standalone="no"?>
<!DOCTYPE svg PUBLIC "-//W3C//DTD SVG 1.1//EN"
 "http://www.w3.org/Graphics/SVG/1.1/DTD/svg11.dtd">
<!-- Generated by graphviz version 2.38.0 (20140413.2041)
 -->
<!-- Title: %3 Pages: 1 -->
<svg width="1265pt" height="752pt"
 viewBox="0.00 0.00 1264.50 752.00" xmlns="http://www.w3.org/2000/svg" xmlns:xlink="http://www.w3.org/1999/xlink">
<g id="graph0" class="graph" transform="scale(1 1) rotate(0) translate(4 748)">
<title>%3</title>
<polygon fill="white" stroke="none" points="-4,4 -4,-748 1260.5,-748 1260.5,4 -4,4"/>
<!-- n0x600086450 -->
<g id="node1" class="node"><title>n0x600086450</title>
<polygon fill="none" stroke="black" points="283.5,-720.5 283.5,-743.5 373.5,-743.5 373.5,-720.5 283.5,-720.5"/>
<text text-anchor="middle" x="318.5" y="-728.3" font-family="Times New Roman,serif" font-size="14.00">programa</text>
<polyline fill="none" stroke="black" points="353.5,-720.5 353.5,-743.5 "/>
<text text-anchor="middle" x="363.5" y="-728.3" font-family="Times New Roman,serif" font-size="14.00"> </text>
</g>
<!-- n0x6000284d0 -->
<g id="node2" class="node"><title>n0x6000284d0</title>
<polygon fill="none" stroke="black" points="0,-660.5 0,-683.5 227,-683.5 227,-660.5 0,-660.5"/>
<text text-anchor="middle" x="43" y="-668.3" font-family="Times New Roman,serif" font-size="14.00">identificador</text>
<polyline fill="none" stroke="black" points="86,-660.5 86,-683.5 "/>
<text text-anchor="middle" x="156.5" y="-668.3" font-family="Times New Roman,serif" font-size="14.00">maximodivisorcomum</text>
</g>
<!-- n0x600086450&#45;&gt;n0x6000284d0 -->
<g id="edge1" class="edge"><title>n0x600086450&#45;&gt;n0x6000284d0</title>
<path fill="none" stroke="black" d="M289.565,-720.497C253.907,-710.877 200.976,-696.598 162.464,-686.209"/>
<polygon fill="black" stroke="black" points="163.074,-682.748 152.508,-683.523 161.251,-689.507 163.074,-682.748"/>
</g>
<!-- n0x600085eb0 -->
<g id="node3" class="node"><title>n0x600085eb0</title>
<polygon fill="none" stroke="black" points="245.5,-660.5 245.5,-683.5 411.5,-683.5 411.5,-660.5 245.5,-660.5"/>
<text text-anchor="middle" x="318.5" y="-668.3" font-family="Times New Roman,serif" font-size="14.00">declaracao de variaveis</text>
<polyline fill="none" stroke="black" points="391.5,-660.5 391.5,-683.5 "/>
<text text-anchor="middle" x="401.5" y="-668.3" font-family="Times New Roman,serif" font-size="14.00"> </text>
</g>
<!-- n0x600086450&#45;&gt;n0x600085eb0 -->
<g id="edge2" class="edge"><title>n0x600086450&#45;&gt;n0x600085eb0</title>
<path fill="none" stroke="black" d="M328.5,-720.362C328.5,-712.922 328.5,-702.743 328.5,-693.728"/>
<polygon fill="black" stroke="black" points="332,-693.571 328.5,-683.571 325,-693.571 332,-693.571"/>
</g>
<!-- n0x600086430 -->
<g id="node9" class="node"><title>n0x600086430</title>
<polygon fill="none" stroke="black" points="430,-660.5 430,-683.5 551,-683.5 551,-660.5 430,-660.5"/>
<text text-anchor="middle" x="480.5" y="-668.3" font-family="Times New Roman,serif" font-size="14.00">lista comandos</text>
<polyline fill="none" stroke="black" points="531,-660.5 531,-683.5 "/>
<text text-anchor="middle" x="541" y="-668.3" font-family="Times New Roman,serif" font-size="14.00"> </text>
</g>
<!-- n0x600086450&#45;&gt;n0x600086430 -->
<g id="edge8" class="edge"><title>n0x600086450&#45;&gt;n0x600086430</title>
<path fill="none" stroke="black" d="M357.837,-720.497C384.019,-711.123 422.56,-697.324 451.363,-687.012"/>
<polygon fill="black" stroke="black" points="452.873,-690.189 461.108,-683.523 450.513,-683.599 452.873,-690.189"/>
</g>
<!-- n0x600085e10 -->
<g id="node4" class="node"><title>n0x600085e10</title>
<polygon fill="none" stroke="black" points="170,-600.5 170,-623.5 259,-623.5 259,-600.5 170,-600.5"/>
<text text-anchor="middle" x="189" y="-608.3" font-family="Times New Roman,serif" font-size="14.00">tipo</text>
<polyline fill="none" stroke="black" points="208,-600.5 208,-623.5 "/>
<text text-anchor="middle" x="233.5" y="-608.3" font-family="Times New Roman,serif" font-size="14.00">inteiro</text>
</g>
<!-- n0x600085eb0&#45;&gt;n0x600085e10 -->
<g id="edge3" class="edge"><title>n0x600085eb0&#45;&gt;n0x600085e10</title>
<path fill="none" stroke="black" d="M307.855,-660.497C290.13,-651.479 264.355,-638.365 244.377,-628.201"/>
<polygon fill="black" stroke="black" points="245.876,-625.036 235.376,-623.621 242.702,-631.275 245.876,-625.036"/>
</g>
<!-- n0x600085e90 -->
<g id="node5" class="node"><title>n0x600085e90</title>
<polygon fill="none" stroke="black" points="277.5,-600.5 277.5,-623.5 387.5,-623.5 387.5,-600.5 277.5,-600.5"/>
<text text-anchor="middle" x="322.5" y="-608.3" font-family="Times New Roman,serif" font-size="14.00">lista variaveis</text>
<polyline fill="none" stroke="black" points="367.5,-600.5 367.5,-623.5 "/>
<text text-anchor="middle" x="377.5" y="-608.3" font-family="Times New Roman,serif" font-size="14.00"> </text>
</g>
<!-- n0x600085eb0&#45;&gt;n0x600085e90 -->
<g id="edge4" class="edge"><title>n0x600085eb0&#45;&gt;n0x600085e90</title>
<path fill="none" stroke="black" d="M329.234,-660.362C329.747,-652.922 330.449,-642.743 331.071,-633.728"/>
<polygon fill="black" stroke="black" points="334.575,-633.788 331.771,-623.571 327.591,-633.306 334.575,-633.788"/>
</g>
<!-- n0x600085e70 -->
<g id="node6" class="node"><title>n0x600085e70</title>
<polygon fill="none" stroke="black" points="158.5,-540.5 158.5,-563.5 268.5,-563.5 268.5,-540.5 158.5,-540.5"/>
<text text-anchor="middle" x="201.5" y="-548.3" font-family="Times New Roman,serif" font-size="14.00">identificador</text>
<polyline fill="none" stroke="black" points="244.5,-540.5 244.5,-563.5 "/>
<text text-anchor="middle" x="256.5" y="-548.3" font-family="Times New Roman,serif" font-size="14.00">b</text>
</g>
<!-- n0x600085e90&#45;&gt;n0x600085e70 -->
<g id="edge5" class="edge"><title>n0x600085e90&#45;&gt;n0x600085e70</title>
<path fill="none" stroke="black" d="M310.95,-600.497C292.364,-591.438 265.298,-578.246 244.405,-568.063"/>
<polygon fill="black" stroke="black" points="245.814,-564.856 235.292,-563.621 242.747,-571.149 245.814,-564.856"/>
</g>
<!-- n0x600085e50 -->
<g id="node7" class="node"><title>n0x600085e50</title>
<polygon fill="none" stroke="black" points="286.5,-540.5 286.5,-563.5 396.5,-563.5 396.5,-540.5 286.5,-540.5"/>
<text text-anchor="middle" x="331.5" y="-548.3" font-family="Times New Roman,serif" font-size="14.00">lista variaveis</text>
<polyline fill="none" stroke="black" points="376.5,-540.5 376.5,-563.5 "/>
<text text-anchor="middle" x="386.5" y="-548.3" font-family="Times New Roman,serif" font-size="14.00"> </text>
</g>
<!-- n0x600085e90&#45;&gt;n0x600085e50 -->
<g id="edge6" class="edge"><title>n0x600085e90&#45;&gt;n0x600085e50</title>
<path fill="none" stroke="black" d="M334.151,-600.362C335.305,-592.922 336.885,-582.743 338.284,-573.728"/>
<polygon fill="black" stroke="black" points="341.785,-573.989 339.86,-563.571 334.868,-572.916 341.785,-573.989"/>
</g>
<!-- n0x600085e30 -->
<g id="node8" class="node"><title>n0x600085e30</title>
<polygon fill="none" stroke="black" points="287,-480.5 287,-503.5 396,-503.5 396,-480.5 287,-480.5"/>
<text text-anchor="middle" x="330" y="-488.3" font-family="Times New Roman,serif" font-size="14.00">identificador</text>
<polyline fill="none" stroke="black" points="373,-480.5 373,-503.5 "/>
<text text-anchor="middle" x="384.5" y="-488.3" font-family="Times New Roman,serif" font-size="14.00">a</text>
</g>
<!-- n0x600085e50&#45;&gt;n0x600085e30 -->
<g id="edge7" class="edge"><title>n0x600085e50&#45;&gt;n0x600085e30</title>
<path fill="none" stroke="black" d="M341.5,-540.362C341.5,-532.922 341.5,-522.743 341.5,-513.728"/>
<polygon fill="black" stroke="black" points="345,-513.571 341.5,-503.571 338,-513.571 345,-513.571"/>
</g>
<!-- n0x600085f10 -->
<g id="node10" class="node"><title>n0x600085f10</title>
<polygon fill="none" stroke="black" points="449,-600.5 449,-623.5 522,-623.5 522,-600.5 449,-600.5"/>
<text text-anchor="middle" x="475.5" y="-608.3" font-family="Times New Roman,serif" font-size="14.00">escrita</text>
<polyline fill="none" stroke="black" points="502,-600.5 502,-623.5 "/>
<text text-anchor="middle" x="512" y="-608.3" font-family="Times New Roman,serif" font-size="14.00"> </text>
</g>
<!-- n0x600086430&#45;&gt;n0x600085f10 -->
<g id="edge9" class="edge"><title>n0x600086430&#45;&gt;n0x600085f10</title>
<path fill="none" stroke="black" d="M489.583,-660.362C488.942,-652.922 488.064,-642.743 487.287,-633.728"/>
<polygon fill="black" stroke="black" points="490.757,-633.233 486.411,-623.571 483.783,-633.834 490.757,-633.233"/>
</g>
<!-- n0x600086410 -->
<g id="node12" class="node"><title>n0x600086410</title>
<polygon fill="none" stroke="black" points="540,-600.5 540,-623.5 661,-623.5 661,-600.5 540,-600.5"/>
<text text-anchor="middle" x="590.5" y="-608.3" font-family="Times New Roman,serif" font-size="14.00">lista comandos</text>
<polyline fill="none" stroke="black" points="641,-600.5 641,-623.5 "/>
<text text-anchor="middle" x="651" y="-608.3" font-family="Times New Roman,serif" font-size="14.00"> </text>
</g>
<!-- n0x600086430&#45;&gt;n0x600086410 -->
<g id="edge11" class="edge"><title>n0x600086430&#45;&gt;n0x600086410</title>
<path fill="none" stroke="black" d="M510.42,-660.497C527.446,-651.519 552.169,-638.484 571.409,-628.339"/>
<polygon fill="black" stroke="black" points="573.143,-631.381 580.356,-623.621 569.878,-625.189 573.143,-631.381"/>
</g>
<!-- n0x600085ef0 -->
<g id="node11" class="node"><title>n0x600085ef0</title>
<polygon fill="none" stroke="black" points="432.5,-540.5 432.5,-563.5 538.5,-563.5 538.5,-540.5 432.5,-540.5"/>
<text text-anchor="middle" x="454.5" y="-548.3" font-family="Times New Roman,serif" font-size="14.00">texto</text>
<polyline fill="none" stroke="black" points="476.5,-540.5 476.5,-563.5 "/>
<text text-anchor="middle" x="507.5" y="-548.3" font-family="Times New Roman,serif" font-size="14.00">_const0</text>
</g>
<!-- n0x600085f10&#45;&gt;n0x600085ef0 -->
<g id="edge10" class="edge"><title>n0x600085f10&#45;&gt;n0x600085ef0</title>
<path fill="none" stroke="black" d="M485.5,-600.362C485.5,-592.922 485.5,-582.743 485.5,-573.728"/>
<polygon fill="black" stroke="black" points="489,-573.571 485.5,-563.571 482,-573.571 489,-573.571"/>
</g>
<!-- n0x600085f50 -->
<g id="node13" class="node"><title>n0x600085f50</title>
<polygon fill="none" stroke="black" points="561.5,-540.5 561.5,-563.5 631.5,-563.5 631.5,-540.5 561.5,-540.5"/>
<text text-anchor="middle" x="586.5" y="-548.3" font-family="Times New Roman,serif" font-size="14.00">leitura</text>
<polyline fill="none" stroke="black" points="611.5,-540.5 611.5,-563.5 "/>
<text text-anchor="middle" x="621.5" y="-548.3" font-family="Times New Roman,serif" font-size="14.00"> </text>
</g>
<!-- n0x600086410&#45;&gt;n0x600085f50 -->
<g id="edge12" class="edge"><title>n0x600086410&#45;&gt;n0x600085f50</title>
<path fill="none" stroke="black" d="M599.766,-600.362C599.253,-592.922 598.551,-582.743 597.929,-573.728"/>
<polygon fill="black" stroke="black" points="601.409,-573.306 597.229,-563.571 594.425,-573.788 601.409,-573.306"/>
</g>
<!-- n0x6000863f0 -->
<g id="node15" class="node"><title>n0x6000863f0</title>
<polygon fill="none" stroke="black" points="650,-540.5 650,-563.5 771,-563.5 771,-540.5 650,-540.5"/>
<text text-anchor="middle" x="700.5" y="-548.3" font-family="Times New Roman,serif" font-size="14.00">lista comandos</text>
<polyline fill="none" stroke="black" points="751,-540.5 751,-563.5 "/>
<text text-anchor="middle" x="761" y="-548.3" font-family="Times New Roman,serif" font-size="14.00"> </text>
</g>
<!-- n0x600086410&#45;&gt;n0x6000863f0 -->
<g id="edge14" class="edge"><title>n0x600086410&#45;&gt;n0x6000863f0</title>
<path fill="none" stroke="black" d="M620.42,-600.497C637.446,-591.519 662.169,-578.484 681.409,-568.339"/>
<polygon fill="black" stroke="black" points="683.143,-571.381 690.356,-563.621 679.878,-565.189 683.143,-571.381"/>
</g>
<!-- n0x600085f30 -->
<g id="node14" class="node"><title>n0x600085f30</title>
<polygon fill="none" stroke="black" points="542,-480.5 542,-503.5 651,-503.5 651,-480.5 542,-480.5"/>
<text text-anchor="middle" x="585" y="-488.3" font-family="Times New Roman,serif" font-size="14.00">identificador</text>
<polyline fill="none" stroke="black" points="628,-480.5 628,-503.5 "/>
<text text-anchor="middle" x="639.5" y="-488.3" font-family="Times New Roman,serif" font-size="14.00">a</text>
</g>
<!-- n0x600085f50&#45;&gt;n0x600085f30 -->
<g id="edge13" class="edge"><title>n0x600085f50&#45;&gt;n0x600085f30</title>
<path fill="none" stroke="black" d="M596.5,-540.362C596.5,-532.922 596.5,-522.743 596.5,-513.728"/>
<polygon fill="black" stroke="black" points="600,-513.571 596.5,-503.571 593,-513.571 600,-513.571"/>
</g>
<!-- n0x600085fb0 -->
<g id="node16" class="node"><title>n0x600085fb0</title>
<polygon fill="none" stroke="black" points="671,-480.5 671,-503.5 744,-503.5 744,-480.5 671,-480.5"/>
<text text-anchor="middle" x="697.5" y="-488.3" font-family="Times New Roman,serif" font-size="14.00">escrita</text>
<polyline fill="none" stroke="black" points="724,-480.5 724,-503.5 "/>
<text text-anchor="middle" x="734" y="-488.3" font-family="Times New Roman,serif" font-size="14.00"> </text>
</g>
<!-- n0x6000863f0&#45;&gt;n0x600085fb0 -->
<g id="edge15" class="edge"><title>n0x6000863f0&#45;&gt;n0x600085fb0</title>
<path fill="none" stroke="black" d="M709.95,-540.362C709.565,-532.922 709.038,-522.743 708.572,-513.728"/>
<polygon fill="black" stroke="black" points="712.059,-513.376 708.047,-503.571 705.068,-513.738 712.059,-513.376"/>
</g>
<!-- n0x6000863d0 -->
<g id="node18" class="node"><title>n0x6000863d0</title>
<polygon fill="none" stroke="black" points="762,-480.5 762,-503.5 883,-503.5 883,-480.5 762,-480.5"/>
<text text-anchor="middle" x="812.5" y="-488.3" font-family="Times New Roman,serif" font-size="14.00">lista comandos</text>
<polyline fill="none" stroke="black" points="863,-480.5 863,-503.5 "/>
<text text-anchor="middle" x="873" y="-488.3" font-family="Times New Roman,serif" font-size="14.00"> </text>
</g>
<!-- n0x6000863f0&#45;&gt;n0x6000863d0 -->
<g id="edge17" class="edge"><title>n0x6000863f0&#45;&gt;n0x6000863d0</title>
<path fill="none" stroke="black" d="M730.782,-540.497C748.118,-531.519 773.29,-518.484 792.88,-508.339"/>
<polygon fill="black" stroke="black" points="794.72,-511.328 801.99,-503.621 791.501,-505.112 794.72,-511.328"/>
</g>
<!-- n0x600085f90 -->
<g id="node17" class="node"><title>n0x600085f90</title>
<polygon fill="none" stroke="black" points="654.5,-420.5 654.5,-443.5 760.5,-443.5 760.5,-420.5 654.5,-420.5"/>
<text text-anchor="middle" x="676.5" y="-428.3" font-family="Times New Roman,serif" font-size="14.00">texto</text>
<polyline fill="none" stroke="black" points="698.5,-420.5 698.5,-443.5 "/>
<text text-anchor="middle" x="729.5" y="-428.3" font-family="Times New Roman,serif" font-size="14.00">_const1</text>
</g>
<!-- n0x600085fb0&#45;&gt;n0x600085f90 -->
<g id="edge16" class="edge"><title>n0x600085fb0&#45;&gt;n0x600085f90</title>
<path fill="none" stroke="black" d="M707.5,-480.362C707.5,-472.922 707.5,-462.743 707.5,-453.728"/>
<polygon fill="black" stroke="black" points="711,-453.571 707.5,-443.571 704,-453.571 711,-453.571"/>
</g>
<!-- n0x600085ff0 -->
<g id="node19" class="node"><title>n0x600085ff0</title>
<polygon fill="none" stroke="black" points="782.5,-420.5 782.5,-443.5 852.5,-443.5 852.5,-420.5 782.5,-420.5"/>
<text text-anchor="middle" x="807.5" y="-428.3" font-family="Times New Roman,serif" font-size="14.00">leitura</text>
<polyline fill="none" stroke="black" points="832.5,-420.5 832.5,-443.5 "/>
<text text-anchor="middle" x="842.5" y="-428.3" font-family="Times New Roman,serif" font-size="14.00"> </text>
</g>
<!-- n0x6000863d0&#45;&gt;n0x600085ff0 -->
<g id="edge18" class="edge"><title>n0x6000863d0&#45;&gt;n0x600085ff0</title>
<path fill="none" stroke="black" d="M821.583,-480.362C820.942,-472.922 820.064,-462.743 819.287,-453.728"/>
<polygon fill="black" stroke="black" points="822.757,-453.233 818.411,-443.571 815.783,-453.834 822.757,-453.233"/>
</g>
<!-- n0x6000863b0 -->
<g id="node21" class="node"><title>n0x6000863b0</title>
<polygon fill="none" stroke="black" points="872,-420.5 872,-443.5 993,-443.5 993,-420.5 872,-420.5"/>
<text text-anchor="middle" x="922.5" y="-428.3" font-family="Times New Roman,serif" font-size="14.00">lista comandos</text>
<polyline fill="none" stroke="black" points="973,-420.5 973,-443.5 "/>
<text text-anchor="middle" x="983" y="-428.3" font-family="Times New Roman,serif" font-size="14.00"> </text>
</g>
<!-- n0x6000863d0&#45;&gt;n0x6000863b0 -->
<g id="edge20" class="edge"><title>n0x6000863d0&#45;&gt;n0x6000863b0</title>
<path fill="none" stroke="black" d="M842.42,-480.497C859.446,-471.519 884.169,-458.484 903.409,-448.339"/>
<polygon fill="black" stroke="black" points="905.143,-451.381 912.356,-443.621 901.878,-445.189 905.143,-451.381"/>
</g>
<!-- n0x600085fd0 -->
<g id="node20" class="node"><title>n0x600085fd0</title>
<polygon fill="none" stroke="black" points="760.5,-360.5 760.5,-383.5 870.5,-383.5 870.5,-360.5 760.5,-360.5"/>
<text text-anchor="middle" x="803.5" y="-368.3" font-family="Times New Roman,serif" font-size="14.00">identificador</text>
<polyline fill="none" stroke="black" points="846.5,-360.5 846.5,-383.5 "/>
<text text-anchor="middle" x="858.5" y="-368.3" font-family="Times New Roman,serif" font-size="14.00">b</text>
</g>
<!-- n0x600085ff0&#45;&gt;n0x600085fd0 -->
<g id="edge19" class="edge"><title>n0x600085ff0&#45;&gt;n0x600085fd0</title>
<path fill="none" stroke="black" d="M817.133,-420.362C816.877,-412.922 816.526,-402.743 816.215,-393.728"/>
<polygon fill="black" stroke="black" points="819.707,-393.444 815.865,-383.571 812.711,-393.685 819.707,-393.444"/>
</g>
<!-- n0x6000862b0 -->
<g id="node22" class="node"><title>n0x6000862b0</title>
<polygon fill="none" stroke="black" points="888.5,-360.5 888.5,-383.5 976.5,-383.5 976.5,-360.5 888.5,-360.5"/>
<text text-anchor="middle" x="922.5" y="-368.3" font-family="Times New Roman,serif" font-size="14.00">repeticao</text>
<polyline fill="none" stroke="black" points="956.5,-360.5 956.5,-383.5 "/>
<text text-anchor="middle" x="966.5" y="-368.3" font-family="Times New Roman,serif" font-size="14.00"> </text>
</g>
<!-- n0x6000863b0&#45;&gt;n0x6000862b0 -->
<g id="edge21" class="edge"><title>n0x6000863b0&#45;&gt;n0x6000862b0</title>
<path fill="none" stroke="black" d="M932.5,-420.362C932.5,-412.922 932.5,-402.743 932.5,-393.728"/>
<polygon fill="black" stroke="black" points="936,-393.571 932.5,-383.571 929,-393.571 936,-393.571"/>
</g>
<!-- n0x600086390 -->
<g id="node44" class="node"><title>n0x600086390</title>
<polygon fill="none" stroke="black" points="1000,-360.5 1000,-383.5 1121,-383.5 1121,-360.5 1000,-360.5"/>
<text text-anchor="middle" x="1050.5" y="-368.3" font-family="Times New Roman,serif" font-size="14.00">lista comandos</text>
<polyline fill="none" stroke="black" points="1101,-360.5 1101,-383.5 "/>
<text text-anchor="middle" x="1111" y="-368.3" font-family="Times New Roman,serif" font-size="14.00"> </text>
</g>
<!-- n0x6000863b0&#45;&gt;n0x600086390 -->
<g id="edge43" class="edge"><title>n0x6000863b0&#45;&gt;n0x600086390</title>
<path fill="none" stroke="black" d="M955.68,-420.497C975.852,-411.356 1005.31,-398.008 1027.86,-387.788"/>
<polygon fill="black" stroke="black" points="1029.4,-390.937 1037.06,-383.621 1026.51,-384.561 1029.4,-390.937"/>
</g>
<!-- n0x600086070 -->
<g id="node23" class="node"><title>n0x600086070</title>
<polygon fill="none" stroke="black" points="670,-300.5 670,-323.5 795,-323.5 795,-300.5 670,-300.5"/>
<text text-anchor="middle" x="722.5" y="-308.3" font-family="Times New Roman,serif" font-size="14.00">negacao (NAO)</text>
<polyline fill="none" stroke="black" points="775,-300.5 775,-323.5 "/>
<text text-anchor="middle" x="785" y="-308.3" font-family="Times New Roman,serif" font-size="14.00"> </text>
</g>
<!-- n0x6000862b0&#45;&gt;n0x600086070 -->
<g id="edge22" class="edge"><title>n0x6000862b0&#45;&gt;n0x600086070</title>
<path fill="none" stroke="black" d="M896.282,-360.497C863.253,-350.918 814.292,-336.72 778.506,-326.342"/>
<polygon fill="black" stroke="black" points="779.366,-322.947 768.786,-323.523 777.416,-329.67 779.366,-322.947"/>
</g>
<!-- n0x600086290 -->
<g id="node27" class="node"><title>n0x600086290</title>
<polygon fill="none" stroke="black" points="872,-300.5 872,-323.5 993,-323.5 993,-300.5 872,-300.5"/>
<text text-anchor="middle" x="922.5" y="-308.3" font-family="Times New Roman,serif" font-size="14.00">lista comandos</text>
<polyline fill="none" stroke="black" points="973,-300.5 973,-323.5 "/>
<text text-anchor="middle" x="983" y="-308.3" font-family="Times New Roman,serif" font-size="14.00"> </text>
</g>
<!-- n0x6000862b0&#45;&gt;n0x600086290 -->
<g id="edge26" class="edge"><title>n0x6000862b0&#45;&gt;n0x600086290</title>
<path fill="none" stroke="black" d="M932.5,-360.362C932.5,-352.922 932.5,-342.743 932.5,-333.728"/>
<polygon fill="black" stroke="black" points="936,-333.571 932.5,-323.571 929,-333.571 936,-333.571"/>
</g>
<!-- n0x600086050 -->
<g id="node24" class="node"><title>n0x600086050</title>
<polygon fill="none" stroke="black" points="616,-240.5 616,-263.5 731,-263.5 731,-240.5 616,-240.5"/>
<text text-anchor="middle" x="663.5" y="-248.3" font-family="Times New Roman,serif" font-size="14.00">compara igual</text>
<polyline fill="none" stroke="black" points="711,-240.5 711,-263.5 "/>
<text text-anchor="middle" x="721" y="-248.3" font-family="Times New Roman,serif" font-size="14.00"> </text>
</g>
<!-- n0x600086070&#45;&gt;n0x600086050 -->
<g id="edge23" class="edge"><title>n0x600086070&#45;&gt;n0x600086050</title>
<path fill="none" stroke="black" d="M721.678,-300.362C713.279,-292.104 701.446,-280.472 691.61,-270.803"/>
<polygon fill="black" stroke="black" points="693.838,-268.085 684.253,-263.571 688.931,-273.077 693.838,-268.085"/>
</g>
<!-- n0x600086010 -->
<g id="node25" class="node"><title>n0x600086010</title>
<polygon fill="none" stroke="black" points="531.5,-180.5 531.5,-203.5 613.5,-203.5 613.5,-180.5 531.5,-180.5"/>
<text text-anchor="middle" x="561" y="-188.3" font-family="Times New Roman,serif" font-size="14.00">variavel</text>
<polyline fill="none" stroke="black" points="590.5,-180.5 590.5,-203.5 "/>
<text text-anchor="middle" x="602" y="-188.3" font-family="Times New Roman,serif" font-size="14.00">a</text>
</g>
<!-- n0x600086050&#45;&gt;n0x600086010 -->
<g id="edge24" class="edge"><title>n0x600086050&#45;&gt;n0x600086010</title>
<path fill="none" stroke="black" d="M654.975,-240.362C639.599,-231.532 617.504,-218.844 600.053,-208.822"/>
<polygon fill="black" stroke="black" points="601.322,-205.515 590.908,-203.571 597.836,-211.586 601.322,-205.515"/>
</g>
<!-- n0x600086030 -->
<g id="node26" class="node"><title>n0x600086030</title>
<polygon fill="none" stroke="black" points="632,-180.5 632,-203.5 715,-203.5 715,-180.5 632,-180.5"/>
<text text-anchor="middle" x="661.5" y="-188.3" font-family="Times New Roman,serif" font-size="14.00">variavel</text>
<polyline fill="none" stroke="black" points="691,-180.5 691,-203.5 "/>
<text text-anchor="middle" x="703" y="-188.3" font-family="Times New Roman,serif" font-size="14.00">b</text>
</g>
<!-- n0x600086050&#45;&gt;n0x600086030 -->
<g id="edge25" class="edge"><title>n0x600086050&#45;&gt;n0x600086030</title>
<path fill="none" stroke="black" d="M673.5,-240.362C673.5,-232.922 673.5,-222.743 673.5,-213.728"/>
<polygon fill="black" stroke="black" points="677,-213.571 673.5,-203.571 670,-213.571 677,-213.571"/>
</g>
<!-- n0x600086270 -->
<g id="node28" class="node"><title>n0x600086270</title>
<polygon fill="none" stroke="black" points="893.5,-240.5 893.5,-263.5 971.5,-263.5 971.5,-240.5 893.5,-240.5"/>
<text text-anchor="middle" x="922.5" y="-248.3" font-family="Times New Roman,serif" font-size="14.00">selecao</text>
<polyline fill="none" stroke="black" points="951.5,-240.5 951.5,-263.5 "/>
<text text-anchor="middle" x="961.5" y="-248.3" font-family="Times New Roman,serif" font-size="14.00"> </text>
</g>
<!-- n0x600086290&#45;&gt;n0x600086270 -->
<g id="edge27" class="edge"><title>n0x600086290&#45;&gt;n0x600086270</title>
<path fill="none" stroke="black" d="M932.5,-300.362C932.5,-292.922 932.5,-282.743 932.5,-273.728"/>
<polygon fill="black" stroke="black" points="936,-273.571 932.5,-263.571 929,-273.571 936,-273.571"/>
</g>
<!-- n0x6000860d0 -->
<g id="node29" class="node"><title>n0x6000860d0</title>
<polygon fill="none" stroke="black" points="733,-180.5 733,-203.5 854,-203.5 854,-180.5 733,-180.5"/>
<text text-anchor="middle" x="783.5" y="-188.3" font-family="Times New Roman,serif" font-size="14.00">compara maior</text>
<polyline fill="none" stroke="black" points="834,-180.5 834,-203.5 "/>
<text text-anchor="middle" x="844" y="-188.3" font-family="Times New Roman,serif" font-size="14.00"> </text>
</g>
<!-- n0x600086270&#45;&gt;n0x6000860d0 -->
<g id="edge28" class="edge"><title>n0x600086270&#45;&gt;n0x6000860d0</title>
<path fill="none" stroke="black" d="M907.328,-240.497C885.227,-231.275 852.861,-217.769 828.287,-207.515"/>
<polygon fill="black" stroke="black" points="829.531,-204.242 818.954,-203.621 826.835,-210.702 829.531,-204.242"/>
</g>
<!-- n0x600086190 -->
<g id="node32" class="node"><title>n0x600086190</title>
<polygon fill="none" stroke="black" points="872,-180.5 872,-203.5 993,-203.5 993,-180.5 872,-180.5"/>
<text text-anchor="middle" x="922.5" y="-188.3" font-family="Times New Roman,serif" font-size="14.00">lista comandos</text>
<polyline fill="none" stroke="black" points="973,-180.5 973,-203.5 "/>
<text text-anchor="middle" x="983" y="-188.3" font-family="Times New Roman,serif" font-size="14.00"> </text>
</g>
<!-- n0x600086270&#45;&gt;n0x600086190 -->
<g id="edge31" class="edge"><title>n0x600086270&#45;&gt;n0x600086190</title>
<path fill="none" stroke="black" d="M932.5,-240.362C932.5,-232.922 932.5,-222.743 932.5,-213.728"/>
<polygon fill="black" stroke="black" points="936,-213.571 932.5,-203.571 929,-213.571 936,-213.571"/>
</g>
<!-- n0x600086250 -->
<g id="node38" class="node"><title>n0x600086250</title>
<polygon fill="none" stroke="black" points="1011,-180.5 1011,-203.5 1132,-203.5 1132,-180.5 1011,-180.5"/>
<text text-anchor="middle" x="1061.5" y="-188.3" font-family="Times New Roman,serif" font-size="14.00">lista comandos</text>
<polyline fill="none" stroke="black" points="1112,-180.5 1112,-203.5 "/>
<text text-anchor="middle" x="1122" y="-188.3" font-family="Times New Roman,serif" font-size="14.00"> </text>
</g>
<!-- n0x600086270&#45;&gt;n0x600086250 -->
<g id="edge37" class="edge"><title>n0x600086270&#45;&gt;n0x600086250</title>
<path fill="none" stroke="black" d="M957.672,-240.497C979.773,-231.275 1012.14,-217.769 1036.71,-207.515"/>
<polygon fill="black" stroke="black" points="1038.16,-210.702 1046.05,-203.621 1035.47,-204.242 1038.16,-210.702"/>
</g>
<!-- n0x600086090 -->
<g id="node30" class="node"><title>n0x600086090</title>
<polygon fill="none" stroke="black" points="668.5,-120.5 668.5,-143.5 750.5,-143.5 750.5,-120.5 668.5,-120.5"/>
<text text-anchor="middle" x="698" y="-128.3" font-family="Times New Roman,serif" font-size="14.00">variavel</text>
<polyline fill="none" stroke="black" points="727.5,-120.5 727.5,-143.5 "/>
<text text-anchor="middle" x="739" y="-128.3" font-family="Times New Roman,serif" font-size="14.00">a</text>
</g>
<!-- n0x6000860d0&#45;&gt;n0x600086090 -->
<g id="edge29" class="edge"><title>n0x6000860d0&#45;&gt;n0x600086090</title>
<path fill="none" stroke="black" d="M778.093,-180.362C765.542,-171.696 747.608,-159.313 733.225,-149.382"/>
<polygon fill="black" stroke="black" points="735.027,-146.372 724.809,-143.571 731.05,-152.133 735.027,-146.372"/>
</g>
<!-- n0x6000860b0 -->
<g id="node31" class="node"><title>n0x6000860b0</title>
<polygon fill="none" stroke="black" points="769,-120.5 769,-143.5 852,-143.5 852,-120.5 769,-120.5"/>
<text text-anchor="middle" x="798.5" y="-128.3" font-family="Times New Roman,serif" font-size="14.00">variavel</text>
<polyline fill="none" stroke="black" points="828,-120.5 828,-143.5 "/>
<text text-anchor="middle" x="840" y="-128.3" font-family="Times New Roman,serif" font-size="14.00">b</text>
</g>
<!-- n0x6000860d0&#45;&gt;n0x6000860b0 -->
<g id="edge30" class="edge"><title>n0x6000860d0&#45;&gt;n0x6000860b0</title>
<path fill="none" stroke="black" d="M796.618,-180.362C798.823,-172.84 801.848,-162.519 804.512,-153.431"/>
<polygon fill="black" stroke="black" points="807.948,-154.151 807.402,-143.571 801.23,-152.182 807.948,-154.151"/>
</g>
<!-- n0x600086170 -->
<g id="node33" class="node"><title>n0x600086170</title>
<polygon fill="none" stroke="black" points="887,-120.5 887,-143.5 978,-143.5 978,-120.5 887,-120.5"/>
<text text-anchor="middle" x="922.5" y="-128.3" font-family="Times New Roman,serif" font-size="14.00">atribuicao</text>
<polyline fill="none" stroke="black" points="958,-120.5 958,-143.5 "/>
<text text-anchor="middle" x="968" y="-128.3" font-family="Times New Roman,serif" font-size="14.00"> </text>
</g>
<!-- n0x600086190&#45;&gt;n0x600086170 -->
<g id="edge32" class="edge"><title>n0x600086190&#45;&gt;n0x600086170</title>
<path fill="none" stroke="black" d="M932.5,-180.362C932.5,-172.922 932.5,-162.743 932.5,-153.728"/>
<polygon fill="black" stroke="black" points="936,-153.571 932.5,-143.571 929,-153.571 936,-153.571"/>
</g>
<!-- n0x600086150 -->
<g id="node34" class="node"><title>n0x600086150</title>
<polygon fill="none" stroke="black" points="775,-60.5 775,-83.5 884,-83.5 884,-60.5 775,-60.5"/>
<text text-anchor="middle" x="818" y="-68.3" font-family="Times New Roman,serif" font-size="14.00">identificador</text>
<polyline fill="none" stroke="black" points="861,-60.5 861,-83.5 "/>
<text text-anchor="middle" x="872.5" y="-68.3" font-family="Times New Roman,serif" font-size="14.00">a</text>
</g>
<!-- n0x600086170&#45;&gt;n0x600086150 -->
<g id="edge33" class="edge"><title>n0x600086170&#45;&gt;n0x600086150</title>
<path fill="none" stroke="black" d="M913.608,-120.362C897.782,-111.45 874.977,-98.6087 857.105,-88.5447"/>
<polygon fill="black" stroke="black" points="858.703,-85.4276 848.272,-83.5707 855.268,-91.5271 858.703,-85.4276"/>
</g>
<!-- n0x600086130 -->
<g id="node35" class="node"><title>n0x600086130</title>
<polygon fill="none" stroke="black" points="902.5,-60.5 902.5,-83.5 976.5,-83.5 976.5,-60.5 902.5,-60.5"/>
<text text-anchor="middle" x="929.5" y="-68.3" font-family="Times New Roman,serif" font-size="14.00">subtrai</text>
<polyline fill="none" stroke="black" points="956.5,-60.5 956.5,-83.5 "/>
<text text-anchor="middle" x="966.5" y="-68.3" font-family="Times New Roman,serif" font-size="14.00"> </text>
</g>
<!-- n0x600086170&#45;&gt;n0x600086130 -->
<g id="edge34" class="edge"><title>n0x600086170&#45;&gt;n0x600086130</title>
<path fill="none" stroke="black" d="M933.784,-120.362C934.682,-112.922 935.91,-102.743 936.998,-93.7276"/>
<polygon fill="black" stroke="black" points="940.501,-93.918 938.224,-83.5707 933.551,-93.0792 940.501,-93.918"/>
</g>
<!-- n0x6000860f0 -->
<g id="node36" class="node"><title>n0x6000860f0</title>
<polygon fill="none" stroke="black" points="855.5,-0.5 855.5,-23.5 937.5,-23.5 937.5,-0.5 855.5,-0.5"/>
<text text-anchor="middle" x="885" y="-8.3" font-family="Times New Roman,serif" font-size="14.00">variavel</text>
<polyline fill="none" stroke="black" points="914.5,-0.5 914.5,-23.5 "/>
<text text-anchor="middle" x="926" y="-8.3" font-family="Times New Roman,serif" font-size="14.00">a</text>
</g>
<!-- n0x600086130&#45;&gt;n0x6000860f0 -->
<g id="edge35" class="edge"><title>n0x600086130&#45;&gt;n0x6000860f0</title>
<path fill="none" stroke="black" d="M931.613,-60.3619C925.673,-52.3496 917.378,-41.1605 910.341,-31.6696"/>
<polygon fill="black" stroke="black" points="913.104,-29.5193 904.337,-23.5707 907.481,-33.6883 913.104,-29.5193"/>
</g>
<!-- n0x600086110 -->
<g id="node37" class="node"><title>n0x600086110</title>
<polygon fill="none" stroke="black" points="956,-0.5 956,-23.5 1039,-23.5 1039,-0.5 956,-0.5"/>
<text text-anchor="middle" x="985.5" y="-8.3" font-family="Times New Roman,serif" font-size="14.00">variavel</text>
<polyline fill="none" stroke="black" points="1015,-0.5 1015,-23.5 "/>
<text text-anchor="middle" x="1027" y="-8.3" font-family="Times New Roman,serif" font-size="14.00">b</text>
</g>
<!-- n0x600086130&#45;&gt;n0x600086110 -->
<g id="edge36" class="edge"><title>n0x600086130&#45;&gt;n0x600086110</title>
<path fill="none" stroke="black" d="M950.138,-60.3619C958.396,-52.1043 970.028,-40.4725 979.697,-30.8029"/>
<polygon fill="black" stroke="black" points="982.333,-33.1166 986.929,-23.5707 977.383,-28.1669 982.333,-33.1166"/>
</g>
<!-- n0x600086230 -->
<g id="node39" class="node"><title>n0x600086230</title>
<polygon fill="none" stroke="black" points="1026,-120.5 1026,-143.5 1117,-143.5 1117,-120.5 1026,-120.5"/>
<text text-anchor="middle" x="1061.5" y="-128.3" font-family="Times New Roman,serif" font-size="14.00">atribuicao</text>
<polyline fill="none" stroke="black" points="1097,-120.5 1097,-143.5 "/>
<text text-anchor="middle" x="1107" y="-128.3" font-family="Times New Roman,serif" font-size="14.00"> </text>
</g>
<!-- n0x600086250&#45;&gt;n0x600086230 -->
<g id="edge38" class="edge"><title>n0x600086250&#45;&gt;n0x600086230</title>
<path fill="none" stroke="black" d="M1071.5,-180.362C1071.5,-172.922 1071.5,-162.743 1071.5,-153.728"/>
<polygon fill="black" stroke="black" points="1075,-153.571 1071.5,-143.571 1068,-153.571 1075,-153.571"/>
</g>
<!-- n0x600086210 -->
<g id="node40" class="node"><title>n0x600086210</title>
<polygon fill="none" stroke="black" points="1008.5,-60.5 1008.5,-83.5 1118.5,-83.5 1118.5,-60.5 1008.5,-60.5"/>
<text text-anchor="middle" x="1051.5" y="-68.3" font-family="Times New Roman,serif" font-size="14.00">identificador</text>
<polyline fill="none" stroke="black" points="1094.5,-60.5 1094.5,-83.5 "/>
<text text-anchor="middle" x="1106.5" y="-68.3" font-family="Times New Roman,serif" font-size="14.00">b</text>
</g>
<!-- n0x600086230&#45;&gt;n0x600086210 -->
<g id="edge39" class="edge"><title>n0x600086230&#45;&gt;n0x600086210</title>
<path fill="none" stroke="black" d="M1070.03,-120.362C1069.01,-112.922 1067.6,-102.743 1066.36,-93.7276"/>
<polygon fill="black" stroke="black" points="1069.79,-92.9986 1064.96,-83.5707 1062.86,-93.9551 1069.79,-92.9986"/>
</g>
<!-- n0x6000861f0 -->
<g id="node41" class="node"><title>n0x6000861f0</title>
<polygon fill="none" stroke="black" points="1136.5,-60.5 1136.5,-83.5 1210.5,-83.5 1210.5,-60.5 1136.5,-60.5"/>
<text text-anchor="middle" x="1163.5" y="-68.3" font-family="Times New Roman,serif" font-size="14.00">subtrai</text>
<polyline fill="none" stroke="black" points="1190.5,-60.5 1190.5,-83.5 "/>
<text text-anchor="middle" x="1200.5" y="-68.3" font-family="Times New Roman,serif" font-size="14.00"> </text>
</g>
<!-- n0x600086230&#45;&gt;n0x6000861f0 -->
<g id="edge40" class="edge"><title>n0x600086230&#45;&gt;n0x6000861f0</title>
<path fill="none" stroke="black" d="M1090.21,-120.362C1105.88,-111.45 1128.46,-98.6087 1146.16,-88.5447"/>
<polygon fill="black" stroke="black" points="1147.95,-91.5562 1154.91,-83.5707 1144.49,-85.4712 1147.95,-91.5562"/>
</g>
<!-- n0x6000861b0 -->
<g id="node42" class="node"><title>n0x6000861b0</title>
<polygon fill="none" stroke="black" points="1073,-0.5 1073,-23.5 1156,-23.5 1156,-0.5 1073,-0.5"/>
<text text-anchor="middle" x="1102.5" y="-8.3" font-family="Times New Roman,serif" font-size="14.00">variavel</text>
<polyline fill="none" stroke="black" points="1132,-0.5 1132,-23.5 "/>
<text text-anchor="middle" x="1144" y="-8.3" font-family="Times New Roman,serif" font-size="14.00">b</text>
</g>
<!-- n0x6000861f0&#45;&gt;n0x6000861b0 -->
<g id="edge41" class="edge"><title>n0x6000861f0&#45;&gt;n0x6000861b0</title>
<path fill="none" stroke="black" d="M1162.68,-60.3619C1154.28,-52.1043 1142.45,-40.4725 1132.61,-30.8029"/>
<polygon fill="black" stroke="black" points="1134.84,-28.0851 1125.25,-23.5707 1129.93,-33.077 1134.84,-28.0851"/>
</g>
<!-- n0x6000861d0 -->
<g id="node43" class="node"><title>n0x6000861d0</title>
<polygon fill="none" stroke="black" points="1174.5,-0.5 1174.5,-23.5 1256.5,-23.5 1256.5,-0.5 1174.5,-0.5"/>
<text text-anchor="middle" x="1204" y="-8.3" font-family="Times New Roman,serif" font-size="14.00">variavel</text>
<polyline fill="none" stroke="black" points="1233.5,-0.5 1233.5,-23.5 "/>
<text text-anchor="middle" x="1245" y="-8.3" font-family="Times New Roman,serif" font-size="14.00">a</text>
</g>
<!-- n0x6000861f0&#45;&gt;n0x6000861d0 -->
<g id="edge42" class="edge"><title>n0x6000861f0&#45;&gt;n0x6000861d0</title>
<path fill="none" stroke="black" d="M1181.2,-60.3619C1186.95,-52.4313 1194.94,-41.3885 1201.77,-31.9606"/>
<polygon fill="black" stroke="black" points="1204.82,-33.7229 1207.85,-23.5707 1199.15,-29.6173 1204.82,-33.7229"/>
</g>
<!-- n0x600086310 -->
<g id="node45" class="node"><title>n0x600086310</title>
<polygon fill="none" stroke="black" points="1024,-300.5 1024,-323.5 1097,-323.5 1097,-300.5 1024,-300.5"/>
<text text-anchor="middle" x="1050.5" y="-308.3" font-family="Times New Roman,serif" font-size="14.00">escrita</text>
<polyline fill="none" stroke="black" points="1077,-300.5 1077,-323.5 "/>
<text text-anchor="middle" x="1087" y="-308.3" font-family="Times New Roman,serif" font-size="14.00"> </text>
</g>
<!-- n0x600086390&#45;&gt;n0x600086310 -->
<g id="edge44" class="edge"><title>n0x600086390&#45;&gt;n0x600086310</title>
<path fill="none" stroke="black" d="M1060.5,-360.362C1060.5,-352.922 1060.5,-342.743 1060.5,-333.728"/>
<polygon fill="black" stroke="black" points="1064,-333.571 1060.5,-323.571 1057,-333.571 1064,-333.571"/>
</g>
<!-- n0x600086370 -->
<g id="node47" class="node"><title>n0x600086370</title>
<polygon fill="none" stroke="black" points="1125,-300.5 1125,-323.5 1246,-323.5 1246,-300.5 1125,-300.5"/>
<text text-anchor="middle" x="1175.5" y="-308.3" font-family="Times New Roman,serif" font-size="14.00">lista comandos</text>
<polyline fill="none" stroke="black" points="1226,-300.5 1226,-323.5 "/>
<text text-anchor="middle" x="1236" y="-308.3" font-family="Times New Roman,serif" font-size="14.00"> </text>
</g>
<!-- n0x600086390&#45;&gt;n0x600086370 -->
<g id="edge46" class="edge"><title>n0x600086390&#45;&gt;n0x600086370</title>
<path fill="none" stroke="black" d="M1083.14,-360.497C1102.75,-351.397 1131.35,-338.127 1153.33,-327.925"/>
<polygon fill="black" stroke="black" points="1155.01,-331.005 1162.61,-323.621 1152.07,-324.655 1155.01,-331.005"/>
</g>
<!-- n0x6000862f0 -->
<g id="node46" class="node"><title>n0x6000862f0</title>
<polygon fill="none" stroke="black" points="1007.5,-240.5 1007.5,-263.5 1113.5,-263.5 1113.5,-240.5 1007.5,-240.5"/>
<text text-anchor="middle" x="1029.5" y="-248.3" font-family="Times New Roman,serif" font-size="14.00">texto</text>
<polyline fill="none" stroke="black" points="1051.5,-240.5 1051.5,-263.5 "/>
<text text-anchor="middle" x="1082.5" y="-248.3" font-family="Times New Roman,serif" font-size="14.00">_const2</text>
</g>
<!-- n0x600086310&#45;&gt;n0x6000862f0 -->
<g id="edge45" class="edge"><title>n0x600086310&#45;&gt;n0x6000862f0</title>
<path fill="none" stroke="black" d="M1060.5,-300.362C1060.5,-292.922 1060.5,-282.743 1060.5,-273.728"/>
<polygon fill="black" stroke="black" points="1064,-273.571 1060.5,-263.571 1057,-273.571 1064,-273.571"/>
</g>
<!-- n0x600086350 -->
<g id="node48" class="node"><title>n0x600086350</title>
<polygon fill="none" stroke="black" points="1152,-240.5 1152,-263.5 1225,-263.5 1225,-240.5 1152,-240.5"/>
<text text-anchor="middle" x="1178.5" y="-248.3" font-family="Times New Roman,serif" font-size="14.00">escrita</text>
<polyline fill="none" stroke="black" points="1205,-240.5 1205,-263.5 "/>
<text text-anchor="middle" x="1215" y="-248.3" font-family="Times New Roman,serif" font-size="14.00"> </text>
</g>
<!-- n0x600086370&#45;&gt;n0x600086350 -->
<g id="edge47" class="edge"><title>n0x600086370&#45;&gt;n0x600086350</title>
<path fill="none" stroke="black" d="M1186.05,-300.362C1186.44,-292.922 1186.96,-282.743 1187.43,-273.728"/>
<polygon fill="black" stroke="black" points="1190.93,-273.738 1187.95,-263.571 1183.94,-273.376 1190.93,-273.738"/>
</g>
<!-- n0x600086330 -->
<g id="node49" class="node"><title>n0x600086330</title>
<polygon fill="none" stroke="black" points="1150.5,-180.5 1150.5,-203.5 1232.5,-203.5 1232.5,-180.5 1150.5,-180.5"/>
<text text-anchor="middle" x="1180" y="-188.3" font-family="Times New Roman,serif" font-size="14.00">variavel</text>
<polyline fill="none" stroke="black" points="1209.5,-180.5 1209.5,-203.5 "/>
<text text-anchor="middle" x="1221" y="-188.3" font-family="Times New Roman,serif" font-size="14.00">a</text>
</g>
<!-- n0x600086350&#45;&gt;n0x600086330 -->
<g id="edge48" class="edge"><title>n0x600086350&#45;&gt;n0x600086330</title>
<path fill="none" stroke="black" d="M1189.05,-240.362C1189.44,-232.922 1189.96,-222.743 1190.43,-213.728"/>
<polygon fill="black" stroke="black" points="1193.93,-213.738 1190.95,-203.571 1186.94,-213.376 1193.93,-213.738"/>
</g>
</g>
</svg>
